<svg width="357" height="291" viewBox="0 0 357 291" fill="none" xmlns="http://www.w3.org/2000/svg">
<path d="M101.844 58.2085L93.371 72.7394L84.8982 87.3127H101.844H118.832L110.359 72.7394L101.844 58.2085Z" fill="#D3D8E5"/>
<path d="M33.9336 174.625H50.9217H67.9097L59.3945 160.052L50.9217 145.521L42.4488 160.052L33.9336 174.625Z" fill="#D3D8E5"/>
<path d="M67.9099 116.417L59.3947 130.948L50.9219 145.521H67.9099H84.898L76.3828 130.948L67.9099 116.417Z" fill="#F7E8CB"/>
<path d="M271.597 58.2085H288.585H305.573L297.058 43.6352L288.585 29.1042L280.112 43.6352L271.597 58.2085Z" fill="#E9F2D9"/>
<path d="M101.844 58.2085H118.832H135.82L127.305 43.6352L118.832 29.1042L110.359 43.6352L101.844 58.2085Z" fill="#F7E8CB"/>
<path d="M67.9099 58.2085L59.3947 72.7394L50.9219 87.3127H67.9099H84.898L76.3828 72.7394L67.9099 58.2085Z" fill="#E9F2D9"/>
<path d="M67.9099 58.2085H84.898H101.844L93.3708 43.6352L84.898 29.1042L76.3828 43.6352L67.9099 58.2085Z" fill="#F7E8CB"/>
<path d="M220.675 29.1042L212.203 43.6352L203.73 58.2085H220.675H237.663L229.191 43.6352L220.675 29.1042Z" fill="#D3D8E5"/>
<path d="M84.8982 261.896H101.844H118.832L110.359 247.365L101.844 232.834L93.371 247.365L84.8982 261.896Z" fill="#D3D8E5"/>
<path d="M322.562 29.1042L314.046 14.5309L305.573 0L297.058 14.5309L288.585 29.1042H305.573H322.562Z" fill="#E9F2D9"/>
<path d="M33.9335 174.625L25.4606 189.156L16.9878 203.73H33.9335H50.9216L42.4487 189.156L33.9335 174.625Z" fill="#F7E8CB"/>
<path d="M50.9216 87.3127L42.4487 72.7394L33.9335 58.2085L25.4606 72.7394L16.9878 87.3127H33.9335H50.9216Z" fill="#D3D8E5"/>
<path d="M33.9338 58.2085L25.4609 43.6352L16.9881 29.1042L8.47285 43.6352L0 58.2085H16.9881H33.9338Z" fill="#D3D8E5"/>
<path d="M16.9881 116.417H33.383H33.9338L25.4609 101.844L16.9881 87.3127L8.47285 101.844L0 116.417H16.395H16.9881Z" fill="#F2B6B1"/>
<path d="M33.9335 291L42.4487 276.469L50.9216 261.896H33.9335H16.9878L25.4606 276.469L33.9335 291Z" fill="#E9F2D9"/>
<path d="M0 232.834L8.47285 247.365L16.9881 261.896L25.4609 247.365L33.9338 232.834H16.9881H0Z" fill="#D3D8E5"/>
<path d="M152.765 203.73L161.28 189.156L169.753 174.625H152.765H135.82L144.292 189.156L152.765 203.73Z" fill="#E9F2D9"/>
<path d="M33.9336 174.625L42.4488 189.156L50.9217 203.73L59.3945 189.156L67.9097 174.625H50.9217H33.9336Z" fill="#D3D8E5"/>
<path d="M16.9881 203.73L25.4609 189.156L33.9338 174.625H16.9881H0L8.47285 189.156L16.9881 203.73Z" fill="#F2B6B1"/>
<path d="M84.8982 145.521L93.371 160.052L101.844 174.625L110.359 160.052L118.832 145.521H101.844H84.8982Z" fill="#F7E8CB"/>
<path d="M16.9878 145.521L25.4606 160.052L33.9335 174.625L42.4487 160.052L50.9216 145.521H33.9335H16.9878Z" fill="#F7E8CB"/>
<path d="M8.47285 160.052L16.9881 145.521H16.395H0V174.625L8.47285 160.052Z" fill="#D3D8E5"/>
<path d="M169.754 116.417L178.269 130.948L186.742 145.521L195.215 130.948L203.73 116.417H186.742H169.754Z" fill="#F7E8CB"/>
<path d="M101.844 116.417H84.898H67.9099L76.3828 130.948L84.898 145.521L93.3708 130.948L101.844 116.417Z" fill="#F2B6B1"/>
<path d="M16.395 145.521L16.6915 145.013L24.9102 130.948L33.383 116.417H16.9881H16.395H0V117.391L7.92211 130.948L16.395 145.521Z" fill="#D3D8E5"/>
<path d="M254.651 87.3127L263.124 101.844L271.597 116.417L280.112 101.844L288.585 87.3127H271.597H254.651Z" fill="#F7E8CB"/>
<path d="M152.765 87.3127L161.281 101.844L169.753 116.417L178.269 101.844L186.741 87.3127H169.753H152.765Z" fill="#F7E8CB"/>
<path d="M135.82 116.417L144.293 101.844L152.766 87.3127H135.82H118.832L127.305 101.844L135.82 116.417Z" fill="#D3D8E5"/>
<path d="M84.8982 87.3127L93.371 101.844L101.844 116.417L110.359 101.844L118.832 87.3127H101.844H84.8982Z" fill="#F7E8CB"/>
<path d="M50.9216 87.3127H33.9335H16.9878L25.4606 101.844L33.9335 116.417L42.4487 101.844L50.9216 87.3127Z" fill="#F7E8CB"/>
<path d="M16.9881 87.3127H0V116.417L8.47285 101.844L16.9881 87.3127Z" fill="#F7E8CB"/>
<path d="M169.754 58.2085L178.269 72.7394L186.742 87.3127L195.215 72.7394L203.73 58.2085H186.742H169.754Z" fill="#D3D8E5"/>
<path d="M101.844 58.2085L110.359 72.7394L118.832 87.3127L127.305 72.7394L135.82 58.2085H118.832H101.844Z" fill="#D3D8E5"/>
<path d="M101.844 58.2085H84.898H67.9099L76.3828 72.7394L84.898 87.3127L93.3708 72.7394L101.844 58.2085Z" fill="#D3D8E5"/>
<path d="M16.9881 87.3127L25.4609 72.7394L33.9338 58.2085H16.9881H0L8.47285 72.7394L16.9881 87.3127Z" fill="#D3D8E5"/>
<path d="M339.507 58.2085L348.022 43.6352L356.495 29.1042H339.507H322.562L331.034 43.6352L339.507 58.2085Z" fill="#E9F2D9"/>
<path d="M220.676 29.1042L229.191 43.6352L237.664 58.2085L246.136 43.6352L254.652 29.1042H237.664H220.676Z" fill="#E9F2D9"/>
<path d="M169.753 58.2085L178.269 43.6352L186.741 29.1042H169.753H152.765L161.281 43.6352L169.753 58.2085Z" fill="#F7E8CB"/>
<path d="M135.82 58.2085L144.293 43.6352L152.766 29.1042H135.82H118.832L127.305 43.6352L135.82 58.2085Z" fill="#F2B6B1"/>
<path d="M101.844 58.2085L110.359 43.6352L118.832 29.1042H101.844H84.8982L93.371 43.6352L101.844 58.2085Z" fill="#D3D8E5"/>
<path d="M50.9219 29.1042L59.3947 43.6352L67.9099 58.2085L76.3828 43.6352L84.898 29.1042H67.9099H50.9219Z" fill="#F2B6B1"/>
<path d="M50.9216 29.1042H33.9335H16.9878L25.4606 43.6352L33.9335 58.2085L42.4487 43.6352L50.9216 29.1042Z" fill="#F7E8CB"/>
<path d="M16.9881 29.1042H0V58.2085L8.47285 43.6352L16.9881 29.1042Z" fill="#D3D8E5"/>
<path d="M254.651 29.1042L263.124 14.5309L271.597 0H254.651H237.663L246.136 14.5309L254.651 29.1042Z" fill="#D3D8E5"/>
<path d="M186.742 29.1042L195.215 14.5309L203.73 0H186.742H169.754L178.269 14.5309L186.742 29.1042Z" fill="#D3D8E5"/>
<path d="M135.82 0L144.292 14.5309L152.765 29.1042L161.28 14.5309L169.753 0H152.765H135.82Z" fill="#F2B6B1"/>
<path d="M84.898 29.1042L93.3708 14.5309L101.844 0H84.898H67.9099L76.3828 14.5309L84.898 29.1042Z" fill="#D3D8E5"/>
<path d="M50.9217 29.1042L59.3945 14.5309L67.9097 0H50.9217H33.9336L42.4488 14.5309L50.9217 29.1042Z" fill="#F7E8CB"/>
<path d="M16.9881 29.1042L25.4609 14.5309L33.9338 0H16.9881H0L8.47285 14.5309L16.9881 29.1042Z" fill="#D3D8E5"/>
</svg>
