<svg width="357" height="291" viewBox="0 0 357 291" fill="none" xmlns="http://www.w3.org/2000/svg">
<path d="M255.156 232.792L263.629 218.261L272.102 203.687H255.156H238.168L246.641 218.261L255.156 232.792Z" fill="#D3D8E5"/>
<path d="M323.066 116.375H306.078H289.09L297.605 130.948L306.078 145.479L314.551 130.948L323.066 116.375Z" fill="#D3D8E5"/>
<path d="M289.09 174.583L297.605 160.052L306.078 145.479H289.09H272.102L280.617 160.052L289.09 174.583Z" fill="#F7E8CB"/>
<path d="M85.4031 232.792H68.415H51.4269L59.9422 247.365L68.415 261.896L76.8878 247.365L85.4031 232.792Z" fill="#E9F2D9"/>
<path d="M255.156 232.792H238.168H221.18L229.695 247.365L238.168 261.896L246.641 247.365L255.156 232.792Z" fill="#F7E8CB"/>
<path d="M289.09 232.792L297.605 218.261L306.078 203.687H289.09H272.102L280.617 218.261L289.09 232.792Z" fill="#E9F2D9"/>
<path d="M289.09 232.792H272.102H255.156L263.629 247.365L272.102 261.896L280.617 247.365L289.09 232.792Z" fill="#F7E8CB"/>
<path d="M136.325 261.896L144.797 247.365L153.27 232.792H136.325H119.337L127.809 247.365L136.325 261.896Z" fill="#D3D8E5"/>
<path d="M272.102 29.1042H255.156H238.168L246.641 43.6352L255.156 58.1661L263.629 43.6352L272.102 29.1042Z" fill="#D3D8E5"/>
<path d="M34.4384 261.896L42.9537 276.469L51.4265 291L59.9417 276.469L68.4146 261.896H51.4265H34.4384Z" fill="#E9F2D9"/>
<path d="M323.066 116.375L331.539 101.844L340.012 87.2704H323.066H306.078L314.551 101.844L323.066 116.375Z" fill="#F7E8CB"/>
<path d="M306.078 203.687L314.551 218.261L323.066 232.792L331.539 218.261L340.012 203.687H323.066H306.078Z" fill="#D3D8E5"/>
<path d="M323.066 232.792L331.539 247.365L340.012 261.896L348.527 247.365L357 232.792H340.012H323.066Z" fill="#D3D8E5"/>
<path d="M340.012 174.583H323.617H323.066L331.539 189.156L340.012 203.687L348.527 189.156L357 174.583H340.605H340.012Z" fill="#F2B6B1"/>
<path d="M323.066 3.8147e-05L314.551 14.531L306.078 29.1043H323.066H340.012L331.539 14.531L323.066 3.8147e-05Z" fill="#E9F2D9"/>
<path d="M357 58.1661L348.527 43.6352L340.012 29.1042L331.539 43.6352L323.066 58.1661H340.012H357Z" fill="#D3D8E5"/>
<path d="M204.235 87.2704L195.72 101.844L187.247 116.375H204.235H221.18L212.708 101.844L204.235 87.2704Z" fill="#E9F2D9"/>
<path d="M323.066 116.375L314.551 101.844L306.078 87.2704L297.605 101.844L289.09 116.375H306.078H323.066Z" fill="#D3D8E5"/>
<path d="M340.012 87.2704L331.539 101.844L323.066 116.375H340.012H357L348.527 101.844L340.012 87.2704Z" fill="#F2B6B1"/>
<path d="M272.102 145.479L263.629 130.948L255.156 116.375L246.641 130.948L238.168 145.479H255.156H272.102Z" fill="#F7E8CB"/>
<path d="M340.012 145.479L331.539 130.948L323.066 116.375L314.551 130.948L306.078 145.479H323.066H340.012Z" fill="#F7E8CB"/>
<path d="M348.527 130.948L340.012 145.479H340.605H357V116.375L348.527 130.948Z" fill="#D3D8E5"/>
<path d="M187.246 174.583L178.731 160.052L170.258 145.479L161.785 160.052L153.27 174.583H170.258H187.246Z" fill="#F7E8CB"/>
<path d="M255.156 174.583H272.102H289.09L280.617 160.052L272.102 145.479L263.629 160.052L255.156 174.583Z" fill="#F2B6B1"/>
<path d="M340.605 145.479L340.308 145.987L332.09 160.052L323.617 174.583H340.012H340.605H357V173.609L349.078 160.052L340.605 145.479Z" fill="#D3D8E5"/>
<path d="M102.349 203.687L93.8758 189.156L85.4029 174.583L76.8877 189.156L68.4149 203.687H85.4029H102.349Z" fill="#F7E8CB"/>
<path d="M204.235 203.687L195.719 189.156L187.247 174.583L178.731 189.156L170.259 203.687H187.247H204.235Z" fill="#F7E8CB"/>
<path d="M221.18 174.583L212.707 189.156L204.234 203.687H221.18H238.168L229.695 189.156L221.18 174.583Z" fill="#D3D8E5"/>
<path d="M272.102 203.687L263.629 189.156L255.156 174.583L246.641 189.156L238.168 203.687H255.156H272.102Z" fill="#F7E8CB"/>
<path d="M306.078 203.687H323.066H340.012L331.539 189.156L323.066 174.583L314.551 189.156L306.078 203.687Z" fill="#F7E8CB"/>
<path d="M340.012 203.687H357V174.583L348.527 189.156L340.012 203.687Z" fill="#F7E8CB"/>
<path d="M187.246 232.792L178.731 218.261L170.258 203.687L161.785 218.261L153.27 232.792H170.258H187.246Z" fill="#D3D8E5"/>
<path d="M255.156 232.792L246.641 218.261L238.168 203.687L229.695 218.261L221.18 232.792H238.168H255.156Z" fill="#D3D8E5"/>
<path d="M255.156 232.792H272.102H289.09L280.617 218.261L272.102 203.687L263.629 218.261L255.156 232.792Z" fill="#D3D8E5"/>
<path d="M340.012 203.687L331.539 218.261L323.066 232.792H340.012H357L348.527 218.261L340.012 203.687Z" fill="#D3D8E5"/>
<path d="M17.4928 232.792L8.97758 247.365L0.504726 261.896H17.4928H34.4385L25.9656 247.365L17.4928 232.792Z" fill="#E9F2D9"/>
<path d="M136.324 261.896L127.809 247.365L119.336 232.792L110.864 247.365L102.348 261.896H119.336H136.324Z" fill="#E9F2D9"/>
<path d="M187.247 232.792L178.731 247.365L170.259 261.896H187.247H204.235L195.719 247.365L187.247 232.792Z" fill="#F7E8CB"/>
<path d="M221.18 232.792L212.707 247.365L204.234 261.896H221.18H238.168L229.695 247.365L221.18 232.792Z" fill="#F2B6B1"/>
<path d="M255.156 232.792L246.641 247.365L238.168 261.896H255.156H272.102L263.629 247.365L255.156 232.792Z" fill="#D3D8E5"/>
<path d="M306.078 261.896L297.605 247.365L289.09 232.792L280.617 247.365L272.102 261.896H289.09H306.078Z" fill="#F2B6B1"/>
<path d="M306.078 261.896H323.066H340.012L331.539 247.365L323.066 232.792L314.551 247.365L306.078 261.896Z" fill="#F7E8CB"/>
<path d="M340.012 261.896H357V232.792L348.527 247.365L340.012 261.896Z" fill="#D3D8E5"/>
<path d="M102.349 261.896L93.8758 276.469L85.4029 291H102.349H119.337L110.864 276.469L102.349 261.896Z" fill="#D3D8E5"/>
<path d="M170.258 261.896L161.785 276.469L153.27 291H170.258H187.246L178.731 276.469L170.258 261.896Z" fill="#D3D8E5"/>
<path d="M221.18 291L212.708 276.469L204.235 261.896L195.72 276.469L187.247 291H204.235H221.18Z" fill="#F2B6B1"/>
<path d="M272.102 261.896L263.629 276.469L255.156 291H272.102H289.09L280.617 276.469L272.102 261.896Z" fill="#D3D8E5"/>
<path d="M306.078 261.896L297.605 276.469L289.09 291H306.078H323.066L314.551 276.469L306.078 261.896Z" fill="#F7E8CB"/>
<path d="M340.012 261.896L331.539 276.469L323.066 291H340.012H357L348.527 276.469L340.012 261.896Z" fill="#D3D8E5"/>
</svg>
