<svg width="56" height="56" viewBox="0 0 56 56" fill="none" xmlns="http://www.w3.org/2000/svg">
<path d="M42 50.7332L41.125 49.2177C42.7765 48.2643 43.2214 45.1276 42.3457 40.6119C41.3985 35.7278 39.0367 29.8504 35.695 24.0625C32.3532 18.2746 28.4443 13.2904 24.688 10.0282C21.2151 7.01194 18.2763 5.82894 16.625 6.78237L15.75 5.26687C18.1225 3.89705 21.7042 5.11877 25.8356 8.70693C29.7346 12.0932 33.7743 17.2359 37.2106 23.1876C40.6468 29.1394 43.0806 35.2092 44.0637 40.2789C45.1054 45.6506 44.3725 49.3635 42 50.7332Z" fill="#233D7C"/>
<path d="M15.7499 50.7331C13.3774 49.3634 12.6445 45.6506 13.6862 40.2787C14.6693 35.209 17.1031 29.1391 20.5393 23.1875C23.9755 17.2358 28.0153 12.093 31.9143 8.70678C36.0457 5.11873 39.6274 3.89712 41.9999 5.26682L41.1249 6.78232C39.4736 5.8289 36.5346 7.01179 33.0619 10.028C29.3056 13.2904 25.3966 18.2746 22.0549 24.0625C18.7133 29.8504 16.3513 35.7278 15.4041 40.6119C14.5285 45.1276 14.9734 48.2641 16.6249 49.2176L15.7499 50.7331Z" fill="#233D7C"/>
<path d="M55.125 28H53.375C53.375 26.0932 50.881 24.1395 46.5326 22.6401C41.8293 21.0183 35.5584 20.125 28.875 20.125C22.1916 20.125 15.9207 21.0183 11.2174 22.6401C6.86897 24.1395 4.375 26.0932 4.375 28H2.625C2.625 25.2605 5.47389 22.7695 10.6469 20.9857C15.529 19.3022 22.0025 18.375 28.875 18.375C35.7475 18.375 42.221 19.3022 47.1031 20.9857C52.2761 22.7695 55.125 25.2605 55.125 28Z" fill="#233D7C"/>
<path d="M45.5 28C45.5 35.6381 32.8244 42.045 29.0488 43.7843C28.72 43.9363 28.3622 44.015 28 44.015C27.6378 44.015 27.28 43.9363 26.9513 43.7843C23.1756 42.045 10.5 35.6381 10.5 28C10.5 20.3618 23.1756 13.955 26.9513 12.2156C27.28 12.0637 27.6378 11.985 28 11.985C28.3622 11.985 28.72 12.0637 29.0488 12.2156C32.8244 13.955 45.5 20.3618 45.5 28Z" fill="#FFC937"/>
<path d="M30.5 20.5C30.5 21.163 30.2366 21.7989 29.7678 22.2678C29.2989 22.7366 28.663 23 28 23C27.337 23 26.7011 22.7366 26.2322 22.2678C25.7634 21.7989 25.5 21.163 25.5 20.5C25.5 19.837 25.7634 19.2011 26.2322 18.7322C26.7011 18.2634 27.337 18 28 18C28.663 18 29.2989 18.2634 29.7678 18.7322C30.2366 19.2011 30.5 19.837 30.5 20.5Z" fill="#FFC937"/>
<path d="M28 38C27.5032 37.9985 27.0271 37.8005 26.6758 37.4492C26.3245 37.0979 26.1265 36.6218 26.125 36.125V26.75C26.125 26.2527 26.3225 25.7758 26.6742 25.4242C27.0258 25.0725 27.5027 24.875 28 24.875C28.4973 24.875 28.9742 25.0725 29.3258 25.4242C29.6775 25.7758 29.875 26.2527 29.875 26.75V36.125C29.8735 36.6218 29.6755 37.0979 29.3242 37.4492C28.9729 37.8005 28.4968 37.9985 28 38Z" fill="#FFC937"/>
<path d="M45.5 28C45.5 35.6381 32.8244 42.045 29.0488 43.7843C28.72 43.9363 28.3622 44.015 28 44.015C27.6378 44.015 27.28 43.9363 26.9513 43.7843C23.1756 42.045 10.5 35.6381 10.5 28C10.5 20.3618 23.1756 13.955 26.9513 12.2156C27.28 12.0637 27.6378 11.985 28 11.985C28.3622 11.985 28.72 12.0637 29.0488 12.2156C32.8244 13.955 45.5 20.3618 45.5 28Z" fill="#FFC937"/>
<path d="M30.5 20.5C30.5 21.163 30.2366 21.7989 29.7678 22.2678C29.2989 22.7366 28.663 23 28 23C27.337 23 26.7011 22.7366 26.2322 22.2678C25.7634 21.7989 25.5 21.163 25.5 20.5C25.5 19.837 25.7634 19.2011 26.2322 18.7322C26.7011 18.2634 27.337 18 28 18C28.663 18 29.2989 18.2634 29.7678 18.7322C30.2366 19.2011 30.5 19.837 30.5 20.5Z" fill="#CDE1F1"/>
<path d="M28 38C27.5032 37.9985 27.0271 37.8005 26.6758 37.4492C26.3245 37.0979 26.1265 36.6218 26.125 36.125V26.75C26.125 26.2527 26.3225 25.7758 26.6742 25.4242C27.0258 25.0725 27.5027 24.875 28 24.875C28.4973 24.875 28.9742 25.0725 29.3258 25.4242C29.6775 25.7758 29.875 26.2527 29.875 26.75V36.125C29.8735 36.6218 29.6755 37.0979 29.3242 37.4492C28.9729 37.8005 28.4968 37.9985 28 38Z" fill="#FCDC3C"/>
<path d="M29.3125 11.6481C28.9017 11.4583 28.4545 11.36 28.0019 11.36C27.5493 11.36 27.1021 11.4583 26.6913 11.6481C4.42939 22.1481 4.45939 33.8637 26.6913 44.3519C27.102 44.5416 27.5491 44.6398 28.0016 44.6398C28.454 44.6398 28.9011 44.5416 29.3119 44.3519C51.5669 33.8537 51.5469 22.1362 29.3125 11.6481ZM28.79 43.2169C28.5429 43.3304 28.2741 43.3891 28.0022 43.3891C27.7303 43.3891 27.4615 43.3304 27.2144 43.2169C5.89772 33.0777 5.89772 22.9331 27.2144 12.7831C27.4613 12.6693 27.73 12.6103 28.0019 12.6103C28.2738 12.6103 28.5425 12.6693 28.7894 12.7831C50.0998 22.9189 50.0994 33.0635 28.7881 43.2169H28.79ZM28 17.375C23.87 17.5062 23.8713 23.4944 28 23.625C32.13 23.4937 32.1288 17.5056 28 17.375ZM28 22.375C27.5027 22.375 27.0258 22.1774 26.6742 21.8258C26.3226 21.4742 26.125 20.9973 26.125 20.5C26.125 20.0027 26.3226 19.5258 26.6742 19.1742C27.0258 18.8225 27.5027 18.625 28 18.625C28.4973 18.625 28.9742 18.8225 29.3258 19.1742C29.6775 19.5258 29.875 20.0027 29.875 20.5C29.875 20.9973 29.6775 21.4742 29.3258 21.8258C28.9742 22.1774 28.4973 22.375 28 22.375ZM28 24.25C27.337 24.25 26.7011 24.5134 26.2322 24.9822C25.7634 25.4511 25.5 26.0869 25.5 26.75V36.125C25.5 36.788 25.7634 37.4239 26.2322 37.8927C26.7011 38.3616 27.337 38.625 28 38.625C28.6631 38.625 29.2989 38.3616 29.7678 37.8927C30.2366 37.4239 30.5 36.788 30.5 36.125V26.75C30.5 26.0869 30.2366 25.4511 29.7678 24.9822C29.2989 24.5134 28.6631 24.25 28 24.25ZM29.25 36.125C29.25 36.4565 29.1183 36.7744 28.8839 37.0089C28.6495 37.2433 28.3315 37.375 28 37.375C27.6685 37.375 27.3505 37.2433 27.1161 37.0089C26.8817 36.7744 26.75 36.4565 26.75 36.125V26.75C26.75 26.4185 26.8817 26.1005 27.1161 25.8661C27.3505 25.6317 27.6685 25.5 28 25.5C28.3315 25.5 28.6495 25.6317 28.8839 25.8661C29.1183 26.1005 29.25 26.4185 29.25 26.75V36.125Z" fill="#34469D"/>
<path d="M28.875 37.625C22.0025 37.625 15.529 36.6978 10.6469 35.0143C5.47389 33.2305 2.625 30.7395 2.625 28C2.625 27.5168 3.01678 27.125 3.5 27.125C3.98322 27.125 4.375 27.5168 4.375 28C4.375 29.9068 6.86897 31.8605 11.2174 33.3599C15.9207 34.9817 22.1916 35.875 28.875 35.875C35.5584 35.875 41.8293 34.9817 46.5326 33.3599C50.881 31.8605 53.375 29.9068 53.375 28C53.375 27.5168 53.7668 27.125 54.25 27.125C54.7332 27.125 55.125 27.5168 55.125 28C55.125 30.7395 52.2761 33.2305 47.1031 35.0143C42.221 36.6978 35.7475 37.625 28.875 37.625Z" fill="#EB4724"/>
<path d="M39.85 51.2805C37.6726 51.2805 34.9413 49.9221 31.9143 47.2932C28.0153 43.907 23.9755 38.7643 20.5393 32.8125C17.1031 26.8608 14.6693 20.791 13.6862 15.7212C12.6445 10.3494 13.3774 6.63656 15.7499 5.26685C16.1683 5.02535 16.7035 5.16863 16.9451 5.5871C17.1867 6.00557 17.0433 6.54074 16.6249 6.78235C14.9734 7.73577 14.5285 10.8724 15.4041 15.3881C16.3513 20.2722 18.7132 26.1496 22.0549 31.9375C25.3966 37.7254 29.3056 42.7096 33.0619 45.9719C36.5346 48.9881 39.4735 50.171 41.1249 49.2176C41.5434 48.9761 42.0785 49.1193 42.3201 49.5378C42.5617 49.9563 42.4184 50.4914 41.9999 50.7331C41.3656 51.0993 40.6445 51.2805 39.85 51.2805Z" fill="#EB4724"/>
<path d="M17.9 51.2805C17.1053 51.2805 16.3845 51.0995 15.7501 50.7333C15.3316 50.4917 15.1883 49.9565 15.4299 49.5381C15.6715 49.1195 16.2068 48.9761 16.6251 49.2178C18.2765 50.1712 21.2154 48.9882 24.6881 45.9721C28.4444 42.7099 32.3533 37.7257 35.6951 31.9378C39.0367 26.1498 41.3987 20.2725 42.3458 15.3883C43.2215 10.8727 42.7766 7.73613 41.1251 6.7826C40.7066 6.54099 40.5633 6.00581 40.8049 5.58735C41.0465 5.16877 41.5818 5.02538 42.0001 5.2671C44.3726 6.6368 45.1055 10.3496 44.0638 15.7215C43.0807 20.7912 40.6469 26.8611 37.2107 32.8128C33.7745 38.7644 29.7347 43.9072 25.8357 47.2935C22.8091 49.9218 20.0773 51.2804 17.9 51.2805Z" fill="#EB4724"/>
<path d="M42 8.75C43.4497 8.75 44.625 7.57475 44.625 6.125C44.625 4.67525 43.4497 3.5 42 3.5C40.5503 3.5 39.375 4.67525 39.375 6.125C39.375 7.57475 40.5503 8.75 42 8.75Z" fill="#FFC937"/>
<path d="M42 52.5C43.4497 52.5 44.625 51.3247 44.625 49.875C44.625 48.4253 43.4497 47.25 42 47.25C40.5503 47.25 39.375 48.4253 39.375 49.875C39.375 51.3247 40.5503 52.5 42 52.5Z" fill="#FFC937"/>
<path d="M3.5 30.625C4.94975 30.625 6.125 29.4497 6.125 28C6.125 26.5503 4.94975 25.375 3.5 25.375C2.05025 25.375 0.875 26.5503 0.875 28C0.875 29.4497 2.05025 30.625 3.5 30.625Z" fill="#FFC937"/>
<path d="M3.5 28C3.98325 28 4.375 27.6082 4.375 27.125C4.375 26.6418 3.98325 26.25 3.5 26.25C3.01675 26.25 2.625 26.6418 2.625 27.125C2.625 27.6082 3.01675 28 3.5 28Z" fill="#EB4724"/>
<path d="M42 6.125C42.4832 6.125 42.875 5.73325 42.875 5.25C42.875 4.76675 42.4832 4.375 42 4.375C41.5168 4.375 41.125 4.76675 41.125 5.25C41.125 5.73325 41.5168 6.125 42 6.125Z" fill="#EB4724"/>
<path d="M42 49.875C42.4832 49.875 42.875 49.4832 42.875 49C42.875 48.5168 42.4832 48.125 42 48.125C41.5168 48.125 41.125 48.5168 41.125 49C41.125 49.4832 41.5168 49.875 42 49.875Z" fill="#EB4724"/>
</svg>
