<svg width="80" height="80" viewBox="0 0 80 80" fill="none" xmlns="http://www.w3.org/2000/svg">
<path d="M41.875 57.8125C41.7989 57.8129 41.7234 57.7989 41.6525 57.7713L31.7525 53.9988C29.6921 53.2126 27.5053 52.8102 25.3 52.8113H21.875C21.7092 52.8113 21.5503 52.7454 21.4331 52.6282C21.3158 52.511 21.25 52.352 21.25 52.1863C21.25 52.0205 21.3158 51.8615 21.4331 51.7443C21.5503 51.6271 21.7092 51.5613 21.875 51.5613H25.3C27.665 51.5613 29.9862 51.9875 32.1975 52.83L42.0988 56.6025C42.2361 56.6542 42.3508 56.7524 42.423 56.8802C42.4951 57.0079 42.52 57.1569 42.4934 57.3012C42.4667 57.4454 42.3901 57.5757 42.2771 57.6692C42.164 57.7627 42.0217 57.8134 41.875 57.8125ZM66.875 72.8125H48.7375C45.77 72.8125 42.85 72.3025 40.0575 71.2975L30.59 67.8888C29.3 67.4233 27.9389 67.1856 26.5675 67.1863H21.875C21.7092 67.1863 21.5503 67.1204 21.4331 67.0032C21.3158 66.886 21.25 66.727 21.25 66.5613C21.25 66.3955 21.3158 66.2365 21.4331 66.1193C21.5503 66.0021 21.7092 65.9363 21.875 65.9363H26.5687C28.0887 65.9363 29.5838 66.1975 31.015 66.7125L40.4825 70.1213C43.1304 71.0757 45.924 71.563 48.7388 71.5613H66.875C68.2537 71.5613 69.375 70.44 69.375 69.0613C69.375 67.6825 68.2537 66.5613 66.875 66.5613H52.5C52.3342 66.5613 52.1753 66.4954 52.0581 66.3782C51.9408 66.261 51.875 66.102 51.875 65.9363C51.875 65.7705 51.9408 65.6115 52.0581 65.4943C52.1753 65.3771 52.3342 65.3113 52.5 65.3113H66.875C68.9425 65.3113 70.625 66.9938 70.625 69.0613C70.625 71.1288 68.9425 72.8125 66.875 72.8125Z" fill="#263238"/>
<path d="M10 50.3125V68.4375C10 68.769 10.1317 69.087 10.3661 69.3214C10.6005 69.5558 10.9185 69.6875 11.25 69.6875H18.125C18.4565 69.6875 18.7745 69.5558 19.0089 69.3214C19.2433 69.087 19.375 68.769 19.375 68.4375V50.3125C19.375 49.981 19.2433 49.663 19.0089 49.4286C18.7745 49.1942 18.4565 49.0625 18.125 49.0625H11.25C10.9185 49.0625 10.6005 49.1942 10.3661 49.4286C10.1317 49.663 10 49.981 10 50.3125Z" fill="#40C4FF"/>
<path d="M18.125 70.3125H11.25C10.2162 70.3125 9.375 69.4713 9.375 68.4375V50.3125C9.375 49.2787 10.2162 48.4375 11.25 48.4375H18.125C19.1587 48.4375 20 49.2787 20 50.3125V68.4375C20 69.4713 19.1587 70.3125 18.125 70.3125ZM11.25 49.6875C11.0842 49.6875 10.9253 49.7533 10.8081 49.8706C10.6908 49.9878 10.625 50.1467 10.625 50.3125V68.4375C10.625 68.6033 10.6908 68.7622 10.8081 68.8794C10.9253 68.9967 11.0842 69.0625 11.25 69.0625H18.125C18.2908 69.0625 18.4497 68.9967 18.5669 68.8794C18.6842 68.7622 18.75 68.6033 18.75 68.4375V50.3125C18.75 50.1467 18.6842 49.9878 18.5669 49.8706C18.4497 49.7533 18.2908 49.6875 18.125 49.6875H11.25ZM50.625 64.0625H42.5C42.3342 64.0625 42.1753 63.9967 42.0581 63.8794C41.9408 63.7622 41.875 63.6033 41.875 63.4375C41.875 63.2717 41.9408 63.1128 42.0581 62.9956C42.1753 62.8783 42.3342 62.8125 42.5 62.8125H50.625C52.0037 62.8125 53.125 61.6912 53.125 60.3125C53.125 58.9338 52.0037 57.8125 50.625 57.8125H41.875C41.7092 57.8125 41.5503 57.7467 41.4331 57.6294C41.3158 57.5122 41.25 57.3533 41.25 57.1875C41.25 57.0217 41.3158 56.8628 41.4331 56.7456C41.5503 56.6283 41.7092 56.5625 41.875 56.5625H50.625C52.6925 56.5625 54.375 58.245 54.375 60.3125C54.375 62.38 52.6925 64.0625 50.625 64.0625Z" fill="#263238"/>
<path d="M63.75 57.8125H55.625C55.4592 57.8125 55.3003 57.7467 55.1831 57.6294C55.0658 57.5122 55 57.3533 55 57.1875C55 57.0217 55.0658 56.8628 55.1831 56.7456C55.3003 56.6283 55.4592 56.5625 55.625 56.5625H63.75C65.1287 56.5625 66.25 55.4412 66.25 54.0625V18.4375C66.25 17.0588 65.1287 15.9375 63.75 15.9375H25C23.6213 15.9375 22.5 17.0588 22.5 18.4375V46.5625C22.5 46.7283 22.4342 46.8872 22.3169 47.0044C22.1997 47.1217 22.0408 47.1875 21.875 47.1875C21.7092 47.1875 21.5503 47.1217 21.4331 47.0044C21.3158 46.8872 21.25 46.7283 21.25 46.5625V18.4375C21.25 16.37 22.9325 14.6875 25 14.6875H63.75C65.8175 14.6875 67.5 16.37 67.5 18.4375V54.0625C67.5 56.13 65.8175 57.8125 63.75 57.8125ZM15.3125 75.3125H14.0625C13.8967 75.3125 13.7378 75.2467 13.6206 75.1294C13.5033 75.0122 13.4375 74.8533 13.4375 74.6875C13.4375 74.5217 13.5033 74.3628 13.6206 74.2456C13.7378 74.1283 13.8967 74.0625 14.0625 74.0625H15.3125C15.4783 74.0625 15.6372 74.1283 15.7544 74.2456C15.8717 74.3628 15.9375 74.5217 15.9375 74.6875C15.9375 74.8533 15.8717 75.0122 15.7544 75.1294C15.6372 75.2467 15.4783 75.3125 15.3125 75.3125ZM31.5625 75.3125H17.8125C17.6467 75.3125 17.4878 75.2467 17.3706 75.1294C17.2533 75.0122 17.1875 74.8533 17.1875 74.6875C17.1875 74.5217 17.2533 74.3628 17.3706 74.2456C17.4878 74.1283 17.6467 74.0625 17.8125 74.0625H31.5625C31.7283 74.0625 31.8872 74.1283 32.0044 74.2456C32.1217 74.3628 32.1875 74.5217 32.1875 74.6875C32.1875 74.8533 32.1217 75.0122 32.0044 75.1294C31.8872 75.2467 31.7283 75.3125 31.5625 75.3125ZM62.86 10.3125H61.61C61.4442 10.3125 61.2853 10.2467 61.1681 10.1294C61.0508 10.0122 60.985 9.85326 60.985 9.6875C60.985 9.52174 61.0508 9.36277 61.1681 9.24556C61.2853 9.12835 61.4442 9.0625 61.61 9.0625H62.86C63.0258 9.0625 63.1847 9.12835 63.3019 9.24556C63.4192 9.36277 63.485 9.52174 63.485 9.6875C63.485 9.85326 63.4192 10.0122 63.3019 10.1294C63.1847 10.2467 63.0258 10.3125 62.86 10.3125ZM59.11 10.3125H39.11C38.9442 10.3125 38.7853 10.2467 38.6681 10.1294C38.5508 10.0122 38.485 9.85326 38.485 9.6875C38.485 9.52174 38.5508 9.36277 38.6681 9.24556C38.7853 9.12835 38.9442 9.0625 39.11 9.0625H59.11C59.2758 9.0625 59.4347 9.12835 59.5519 9.24556C59.6692 9.36277 59.735 9.52174 59.735 9.6875C59.735 9.85326 59.6692 10.0122 59.5519 10.1294C59.4347 10.2467 59.2758 10.3125 59.11 10.3125Z" fill="#263238"/>
<path d="M55.8538 39.225L55.4263 38.9787C55.5954 38.2245 55.6818 37.4541 55.6838 36.6812C55.6838 35.8912 55.5913 35.1237 55.4263 34.3837L55.8538 34.1375L57.23 32.9275C57.4137 32.7657 57.5357 32.5453 57.5753 32.3038C57.615 32.0623 57.5698 31.8145 57.4475 31.6025L55.6675 28.52C55.5451 28.3077 55.3529 28.1444 55.1236 28.058C54.8943 27.9716 54.6421 27.9675 54.41 28.0462L52.6738 28.6337L52.24 28.8837C51.1007 27.8321 49.7441 27.0439 48.2663 26.575V26.0887L47.9075 24.2925C47.8595 24.0523 47.7298 23.8363 47.5404 23.6811C47.351 23.5259 47.1137 23.4411 46.8688 23.4412H43.3088C43.0639 23.4411 42.8266 23.5259 42.6372 23.6811C42.4478 23.8363 42.318 24.0523 42.27 24.2925L41.9113 26.0887V26.575C40.4333 27.0435 39.0765 27.8317 37.9375 28.8837L37.5038 28.6337L35.7675 28.0462C35.5355 27.9677 35.2834 27.972 35.0541 28.0584C34.8249 28.1447 34.6326 28.3079 34.51 28.52L32.73 31.6025C32.6075 31.8144 32.5622 32.0623 32.6019 32.3039C32.6415 32.5454 32.7637 32.7658 32.9475 32.9275L34.3238 34.1375L34.7513 34.3837C34.5821 35.1379 34.4958 35.9083 34.4938 36.6812C34.4938 37.4712 34.5863 38.2387 34.7513 38.9787L34.3238 39.225L32.9475 40.4337C32.7639 40.5955 32.6419 40.8159 32.6022 41.0574C32.5626 41.2989 32.6077 41.5467 32.73 41.7587L34.51 44.8412C34.6326 45.0533 34.8249 45.2165 35.0541 45.3028C35.2834 45.3892 35.5355 45.3935 35.7675 45.315L37.5025 44.7275L37.9363 44.4775C39.0756 45.5291 40.4322 46.3172 41.91 46.7862V47.2737L42.2688 49.07C42.3168 49.3101 42.4465 49.5262 42.6359 49.6814C42.8253 49.8366 43.0627 49.9213 43.3075 49.9212H46.8675C47.1124 49.9213 47.3498 49.8366 47.5391 49.6814C47.7285 49.5262 47.8583 49.3101 47.9063 49.07L48.265 47.2737V46.7862C49.7431 46.3177 51.0998 45.5295 52.2388 44.4775L52.6725 44.7275L54.4075 45.315C54.6396 45.3935 54.8917 45.3892 55.1209 45.3028C55.3502 45.2165 55.5425 45.0533 55.665 44.8412L57.445 41.7587C57.5676 41.5468 57.6129 41.2989 57.5732 41.0573C57.5335 40.8158 57.4114 40.5954 57.2275 40.4337L55.8538 39.225ZM45.09 43.3012C44.2128 43.3132 43.3419 43.1507 42.528 42.8233C41.714 42.4958 40.9733 42.0099 40.3487 41.3938C39.7241 40.7776 39.2282 40.0435 38.8898 39.2341C38.5513 38.4247 38.3771 37.556 38.3772 36.6787C38.3773 35.8014 38.5517 34.9328 38.8903 34.1234C39.2289 33.3141 39.7249 32.5801 40.3496 31.964C40.9743 31.348 41.7151 30.8622 42.5291 30.5349C43.3431 30.2076 44.214 30.0453 45.0913 30.0575C46.8318 30.0815 48.4928 30.7899 49.715 32.0292C50.9372 33.2686 51.6223 34.9393 51.6222 36.68C51.622 38.4206 50.9366 40.0912 49.7141 41.3303C48.4917 42.5694 46.8305 43.2775 45.09 43.3012Z" fill="#FFD740"/>
<path d="M46.87 50.5475H43.31C42.9209 50.5468 42.544 50.4117 42.243 50.165C41.9421 49.9183 41.7357 49.5752 41.6587 49.1937L41.2962 47.24C40.0405 46.7872 38.8768 46.1114 37.8612 45.245L37.8162 45.2712L35.9688 45.9088C35.5997 46.0325 35.1993 46.025 34.8352 45.8877C34.471 45.7504 34.1654 45.4916 33.97 45.155L32.19 42.0725C31.996 41.7351 31.9246 41.3411 31.9877 40.9571C32.0507 40.573 32.2445 40.2226 32.5362 39.965L34.0525 38.6712C33.9323 38.0147 33.8713 37.3487 33.87 36.6812C33.87 36.03 33.9312 35.365 34.0512 34.7L34.0125 34.6775L32.5362 33.3962C32.2443 33.1388 32.0504 32.7883 31.9873 32.4042C31.9242 32.0202 31.9958 31.6261 32.19 31.2887L33.9687 28.2063C34.3687 27.5138 35.21 27.1962 35.9675 27.4525L37.8525 28.1225C38.8674 27.2558 40.0301 26.5792 41.285 26.125V26.0875L41.6562 24.1675C41.7332 23.7861 41.9396 23.443 42.2405 23.1963C42.5415 22.9495 42.9184 22.8144 43.3075 22.8137H46.8675C47.6675 22.8137 48.3625 23.3837 48.5187 24.1675L48.8812 26.1213C50.1312 26.57 51.2825 27.24 52.3162 28.115L52.3613 28.0888L54.21 27.4513C54.5787 27.3273 54.9789 27.3344 55.3428 27.4716C55.7068 27.6087 56.0123 27.8673 56.2075 28.2038L57.9875 31.2875C58.3875 31.98 58.2425 32.8662 57.6413 33.395L56.125 34.69C56.2463 35.3575 56.3075 36.025 56.3075 36.68C56.3075 37.3312 56.2463 37.995 56.1263 38.66L56.165 38.6825C56.201 38.7034 56.2349 38.7276 56.2663 38.755L57.6425 39.965C57.9344 40.2225 58.1283 40.5729 58.1915 40.957C58.2546 41.3411 58.1829 41.7352 57.9887 42.0725L56.21 45.155C56.0149 45.4919 55.7094 45.751 55.3451 45.8884C54.9808 46.0258 54.5802 46.033 54.2113 45.9088L52.3262 45.2388C51.3114 46.1054 50.1486 46.7821 48.8938 47.2363V47.275L48.5225 49.1937C48.4448 49.5751 48.2381 49.9179 47.937 50.1646C47.636 50.4112 47.2591 50.5464 46.87 50.5475ZM37.9387 43.8538C38.0912 43.8538 38.2425 43.91 38.3612 44.0175C39.4316 45.0092 40.7085 45.7511 42.1 46.19C42.2269 46.2299 42.3377 46.3092 42.4164 46.4165C42.4951 46.5237 42.5375 46.6532 42.5375 46.7863V47.2738L42.885 48.9475C42.9049 49.0459 42.9582 49.1344 43.0359 49.1979C43.1136 49.2615 43.2109 49.2962 43.3112 49.2962H46.8713C46.9716 49.2962 47.0689 49.2615 47.1466 49.1979C47.2243 49.1344 47.2776 49.0459 47.2975 48.9475L47.6575 47.1513L47.645 46.7863C47.645 46.6532 47.6874 46.5237 47.7661 46.4165C47.8448 46.3092 47.9556 46.2299 48.0825 46.19C49.4738 45.7506 50.7506 45.0087 51.8213 44.0175C51.9194 43.9279 52.0435 43.8718 52.1757 43.8575C52.3078 43.8431 52.4411 43.8711 52.5562 43.9375L52.99 44.1875L54.6125 44.7237C54.7076 44.7566 54.8112 44.7551 54.9053 44.7195C54.9994 44.6839 55.078 44.6164 55.1275 44.5288L56.9075 41.4463C56.9577 41.3593 56.9764 41.2576 56.9602 41.1585C56.944 41.0594 56.894 40.969 56.8188 40.9025L55.49 39.7337L55.1162 39.5187C55.0009 39.4522 54.9097 39.3507 54.856 39.2289C54.8023 39.107 54.7888 38.9713 54.8175 38.8412C54.9766 38.1314 55.0579 37.4063 55.06 36.6788C55.0581 35.9512 54.9768 35.2261 54.8175 34.5163C54.7889 34.3864 54.8023 34.2508 54.8558 34.129C54.9092 34.0072 55 33.9056 55.115 33.8387L55.5425 33.5925L56.8188 32.455C56.8939 32.3888 56.944 32.2986 56.9604 32.1998C56.9767 32.1009 56.9585 31.9995 56.9088 31.9125L55.1287 28.8288C55.0782 28.7422 54.9994 28.6757 54.9056 28.6404C54.8119 28.6052 54.7088 28.6032 54.6138 28.635L52.8775 29.2225L52.5562 29.4225C52.441 29.4885 52.3078 29.5163 52.1758 29.5019C52.0437 29.4876 51.9196 29.4318 51.8213 29.3425C50.7509 28.3509 49.474 27.6089 48.0825 27.17C47.9556 27.1301 47.8448 27.0508 47.7661 26.9435C47.6874 26.8363 47.645 26.7068 47.645 26.5738V26.0875L47.2975 24.4137C47.2776 24.3154 47.2243 24.2269 47.1466 24.1633C47.0689 24.0998 46.9716 24.065 46.8713 24.065H43.3112C43.2109 24.065 43.1136 24.0998 43.0359 24.1633C42.9582 24.2269 42.9049 24.3154 42.885 24.4137L42.525 26.2113L42.5375 26.575C42.5375 26.708 42.4951 26.8375 42.4164 26.9448C42.3377 27.052 42.2269 27.1313 42.1 27.1712C40.7087 27.6106 39.4319 28.3525 38.3612 29.3438C38.2631 29.4334 38.139 29.4894 38.0068 29.5038C37.8747 29.5182 37.7414 29.4901 37.6262 29.4237L37.1925 29.1738L35.5688 28.6375C35.4734 28.6058 35.37 28.6078 35.276 28.6433C35.182 28.6789 35.1031 28.7456 35.0525 28.8325L33.2737 31.915C33.2235 32.0019 33.2049 32.1036 33.2211 32.2027C33.2372 32.3018 33.2872 32.3923 33.3625 32.4587L34.7388 33.6687L35.0662 33.8438C35.1815 33.9103 35.2725 34.0119 35.326 34.1337C35.3795 34.2556 35.3928 34.3914 35.3638 34.5213C35.2045 35.2311 35.1232 35.9562 35.1213 36.6838C35.1213 37.3913 35.2025 38.1187 35.3638 38.8462C35.3926 38.9763 35.3792 39.1121 35.3255 39.234C35.2718 39.3559 35.1805 39.4574 35.065 39.5238L34.6375 39.77L33.3625 40.9075C33.2873 40.9737 33.2373 41.0639 33.2209 41.1627C33.2045 41.2616 33.2227 41.363 33.2725 41.45L35.0525 44.5337C35.1028 44.6205 35.1815 44.6873 35.2753 44.7228C35.3691 44.7583 35.4723 44.7604 35.5675 44.7288L37.3025 44.1413L37.6238 43.9412C37.7188 43.8838 37.8277 43.8535 37.9387 43.8538ZM45.09 43.9262C41.095 43.9262 37.8438 40.675 37.8438 36.68C37.8438 32.685 41.095 29.4338 45.09 29.4338C49.085 29.4338 52.3363 32.685 52.3363 36.68C52.3363 40.675 49.0862 43.9262 45.09 43.9262ZM45.09 30.6838C41.7837 30.6838 39.0938 33.3738 39.0938 36.68C39.0938 39.9862 41.7837 42.6762 45.09 42.6762C48.3962 42.6762 51.0863 39.9862 51.0863 36.68C51.0863 33.3738 48.3962 30.6838 45.09 30.6838ZM24.375 8.4375H19.375C19.2092 8.4375 19.0503 8.37165 18.9331 8.25444C18.8158 8.13723 18.75 7.97826 18.75 7.8125C18.75 7.64674 18.8158 7.48777 18.9331 7.37056C19.0503 7.25335 19.2092 7.1875 19.375 7.1875H24.375C24.5408 7.1875 24.6997 7.25335 24.8169 7.37056C24.9342 7.48777 25 7.64674 25 7.8125C25 7.97826 24.9342 8.13723 24.8169 8.25444C24.6997 8.37165 24.5408 8.4375 24.375 8.4375Z" fill="#263238"/>
<path d="M21.875 10.9375C21.7092 10.9375 21.5503 10.8717 21.4331 10.7544C21.3158 10.6372 21.25 10.4783 21.25 10.3125V5.3125C21.25 5.14674 21.3158 4.98777 21.4331 4.87056C21.5503 4.75335 21.7092 4.6875 21.875 4.6875C22.0408 4.6875 22.1997 4.75335 22.3169 4.87056C22.4342 4.98777 22.5 5.14674 22.5 5.3125V10.3125C22.5 10.4783 22.4342 10.6372 22.3169 10.7544C22.1997 10.8717 22.0408 10.9375 21.875 10.9375Z" fill="#263238"/>
<path d="M16.875 15.9375H11.875C11.7092 15.9375 11.5503 15.8717 11.4331 15.7544C11.3158 15.6372 11.25 15.4783 11.25 15.3125C11.25 15.1467 11.3158 14.9878 11.4331 14.8706C11.5503 14.7533 11.7092 14.6875 11.875 14.6875H16.875C17.0408 14.6875 17.1997 14.7533 17.3169 14.8706C17.4342 14.9878 17.5 15.1467 17.5 15.3125C17.5 15.4783 17.4342 15.6372 17.3169 15.7544C17.1997 15.8717 17.0408 15.9375 16.875 15.9375Z" fill="#263238"/>
<path d="M14.375 18.4375C14.2092 18.4375 14.0503 18.3717 13.9331 18.2544C13.8158 18.1372 13.75 17.9783 13.75 17.8125V12.8125C13.75 12.6467 13.8158 12.4878 13.9331 12.3706C14.0503 12.2533 14.2092 12.1875 14.375 12.1875C14.5408 12.1875 14.6997 12.2533 14.8169 12.3706C14.9342 12.4878 15 12.6467 15 12.8125V17.8125C15 17.9783 14.9342 18.1372 14.8169 18.2544C14.6997 18.3717 14.5408 18.4375 14.375 18.4375Z" fill="#263238"/>
</svg>
