<svg width="80" height="80" viewBox="0 0 80 80" fill="none" xmlns="http://www.w3.org/2000/svg">
<path d="M78.3334 7.50002V15H66.6667V7.50002C66.6667 5.95292 67.2813 4.46919 68.3753 3.37523C69.4693 2.28127 70.953 1.66669 72.5001 1.66669C74.0472 1.66669 75.5309 2.28127 76.6249 3.37523C77.7188 4.46919 78.3334 5.95292 78.3334 7.50002Z" fill="#DAD7E5"/>
<path d="M72.5002 1.66669C70.9531 1.66669 69.4693 2.28127 68.3754 3.37523C67.2814 4.46919 66.6668 5.95292 66.6668 7.50002V72.5C66.6838 73.666 66.3509 74.8103 65.7111 75.7852C65.0714 76.7601 64.1541 77.521 63.0777 77.9695C62.0013 78.4179 60.8152 78.5335 59.6725 78.3013C58.5297 78.0691 57.4828 77.4997 56.6668 76.6667C54.4335 74.4667 55.0002 72.4834 55.0002 65H13.3335V7.50002C13.3335 5.95292 13.9481 4.46919 15.042 3.37523C16.136 2.28127 17.6197 1.66669 19.1668 1.66669H72.5002Z" fill="#DAD7E5"/>
<path d="M72.5001 1.66669C70.953 1.66669 69.4693 2.28127 68.3753 3.37523C67.2813 4.46919 66.6668 5.95292 66.6668 7.50002C66.6668 77.85 66.8501 73.1833 66.2667 74.6C65.3837 74.9408 64.431 75.0615 63.4909 74.9519C62.5508 74.8422 61.6515 74.5054 60.8706 73.9706C60.0897 73.4358 59.4506 72.719 59.0086 71.882C58.5666 71.0451 58.3349 70.1132 58.3334 69.1667V61.6667H18.3334C18.3334 -0.816649 18.0834 3.33335 18.9001 1.66669H72.5001Z" fill="#EDEBF2"/>
<path d="M72.5001 1.66669C70.953 1.66669 69.4693 2.28127 68.3753 3.37523C67.2813 4.46919 66.6668 5.95292 66.6668 7.50002C66.6668 77.85 66.8501 73.1833 66.2667 74.6C65.3837 74.9408 64.431 75.0615 63.4909 74.9519C62.5508 74.8422 61.6515 74.5054 60.8706 73.9706C60.0897 73.4358 59.4506 72.719 59.0086 71.882C58.5666 71.0451 58.3349 70.1132 58.3334 69.1667V61.6667H18.3334C18.3334 -0.816649 18.0834 3.33335 18.9001 1.66669H72.5001Z" fill="#EDEBF2"/>
<path d="M60.8334 78.3333H7.50009C6.72944 78.3481 5.96364 78.2082 5.24798 77.9219C4.53231 77.6357 3.8813 77.2088 3.33342 76.6667C1.10009 74.4667 1.66675 72.4833 1.66675 65H55.0001C55.0001 72.3333 54.4834 74.3833 56.6668 76.6667C57.2146 77.2088 57.8656 77.6357 58.5813 77.9219C59.297 78.2082 60.0628 78.3481 60.8334 78.3333Z" fill="#DAD7E5"/>
<path d="M55.5835 75H12.5002C11.7295 75.0148 10.9637 74.8749 10.2481 74.5886C9.53242 74.3023 8.8814 73.8755 8.33352 73.3333C6.18352 71.2167 6.66686 68.9 6.66686 65H55.0002C55.0002 72.6833 54.8002 73.4833 55.5835 75Z" fill="#EDEBF2"/>
<path d="M74.8834 38.3333C73.0168 41.55 73.3334 40.2167 73.3334 44.1C70.1168 45.9667 70.9834 45.0667 69.1001 48.3333C65.2168 48.3333 66.5501 48.0167 63.3334 49.8833C60.1168 48.0167 61.4501 48.3333 57.5668 48.3333C55.7001 45.1167 56.6668 46.05 53.3334 44.1C53.3334 40.2167 53.6501 41.55 51.7834 38.3333C53.6501 35.1167 53.3334 36.45 53.3334 32.5667C56.6668 30.6833 55.7001 31.55 57.5668 28.3333C61.4501 28.3333 60.1168 28.65 63.3334 26.7833C66.5501 28.65 65.2168 28.3333 69.1001 28.3333C70.9668 31.55 69.9501 30.6167 73.3334 32.5667C73.3334 36.45 73.0168 35.1167 74.8834 38.3333Z" fill="#FFCC66"/>
<path d="M68.3335 48.3334V58.3334L63.3335 56.6667L58.3335 58.3334V48.3334C61.2002 48.3334 60.0002 47.9834 63.3335 49.8834C66.5502 48.0167 65.4168 48.3334 68.3335 48.3334Z" fill="#DB5669"/>
<path d="M68.3334 48.3334V55C67.4885 55.0738 66.6374 54.9715 65.834 54.6997C65.0306 54.4278 64.2924 53.9922 63.6658 53.4205C63.0393 52.8488 62.5382 52.1534 62.1941 51.3782C61.85 50.603 61.6704 49.7648 61.6667 48.9167L63.3334 49.8834C66.5501 48.0167 65.4167 48.3334 68.3334 48.3334Z" fill="#F26674"/>
<path d="M35 13.3333H21.6667C21.2246 13.3333 20.8007 13.1577 20.4882 12.8452C20.1756 12.5326 20 12.1087 20 11.6667C20 11.2246 20.1756 10.8007 20.4882 10.4882C20.8007 10.1756 21.2246 10 21.6667 10H35C35.442 10 35.866 10.1756 36.1785 10.4882C36.4911 10.8007 36.6667 11.2246 36.6667 11.6667C36.6667 12.1087 36.4911 12.5326 36.1785 12.8452C35.866 13.1577 35.442 13.3333 35 13.3333ZM58.3333 20H21.6667C21.2246 20 20.8007 19.8244 20.4882 19.5118C20.1756 19.1993 20 18.7754 20 18.3333C20 17.8913 20.1756 17.4674 20.4882 17.1548C20.8007 16.8423 21.2246 16.6667 21.6667 16.6667H58.3333C58.7754 16.6667 59.1993 16.8423 59.5118 17.1548C59.8244 17.4674 60 17.8913 60 18.3333C60 18.7754 59.8244 19.1993 59.5118 19.5118C59.1993 19.8244 58.7754 20 58.3333 20ZM31.6667 50H21.6667C21.2246 50 20.8007 49.8244 20.4882 49.5118C20.1756 49.1993 20 48.7754 20 48.3333C20 47.8913 20.1756 47.4674 20.4882 47.1548C20.8007 46.8423 21.2246 46.6667 21.6667 46.6667H31.6667C32.1087 46.6667 32.5326 46.8423 32.8452 47.1548C33.1577 47.4674 33.3333 47.8913 33.3333 48.3333C33.3333 48.7754 33.1577 49.1993 32.8452 49.5118C32.5326 49.8244 32.1087 50 31.6667 50ZM45 50H40C39.558 50 39.134 49.8244 38.8215 49.5118C38.5089 49.1993 38.3333 48.7754 38.3333 48.3333C38.3333 47.8913 38.5089 47.4674 38.8215 47.1548C39.134 46.8423 39.558 46.6667 40 46.6667H45C45.442 46.6667 45.866 46.8423 46.1785 47.1548C46.4911 47.4674 46.6667 47.8913 46.6667 48.3333C46.6667 48.7754 46.4911 49.1993 46.1785 49.5118C45.866 49.8244 45.442 50 45 50ZM50 56.6667H21.6667C21.2246 56.6667 20.8007 56.4911 20.4882 56.1785C20.1756 55.866 20 55.442 20 55C20 54.558 20.1756 54.134 20.4882 53.8215C20.8007 53.5089 21.2246 53.3333 21.6667 53.3333H50C50.442 53.3333 50.866 53.5089 51.1785 53.8215C51.4911 54.134 51.6667 54.558 51.6667 55C51.6667 55.442 51.4911 55.866 51.1785 56.1785C50.866 56.4911 50.442 56.6667 50 56.6667ZM45 33.3333H21.6667C21.2246 33.3333 20.8007 33.1577 20.4882 32.8452C20.1756 32.5326 20 32.1087 20 31.6667C20 31.2246 20.1756 30.8007 20.4882 30.4882C20.8007 30.1756 21.2246 30 21.6667 30H45C45.442 30 45.866 30.1756 46.1785 30.4882C46.4911 30.8007 46.6667 31.2246 46.6667 31.6667C46.6667 32.1087 46.4911 32.5326 46.1785 32.8452C45.866 33.1577 45.442 33.3333 45 33.3333ZM28.3333 26.6667H21.6667C21.2246 26.6667 20.8007 26.4911 20.4882 26.1785C20.1756 25.866 20 25.442 20 25C20 24.558 20.1756 24.1341 20.4882 23.8215C20.8007 23.5089 21.2246 23.3333 21.6667 23.3333H28.3333C28.7754 23.3333 29.1993 23.5089 29.5118 23.8215C29.8244 24.1341 30 24.558 30 25C30 25.442 29.8244 25.866 29.5118 26.1785C29.1993 26.4911 28.7754 26.6667 28.3333 26.6667ZM50 26.6667H36.6667C36.2246 26.6667 35.8007 26.4911 35.4882 26.1785C35.1756 25.866 35 25.442 35 25C35 24.558 35.1756 24.1341 35.4882 23.8215C35.8007 23.5089 36.2246 23.3333 36.6667 23.3333H50C50.442 23.3333 50.866 23.5089 51.1785 23.8215C51.4911 24.1341 51.6667 24.558 51.6667 25C51.6667 25.442 51.4911 25.866 51.1785 26.1785C50.866 26.4911 50.442 26.6667 50 26.6667Z" fill="#919191"/>
<path d="M74.8834 38.3333C73.0167 41.55 73.3334 40.2167 73.3334 44.1C70.2167 45.9 70.7334 45.5167 70.4167 46.05C68.3543 46.7508 66.137 46.8603 64.0156 46.366C61.8943 45.8717 59.9536 44.7935 58.4134 43.2533C56.8732 41.7131 55.795 39.7724 55.3007 37.6511C54.8064 35.5297 54.9159 33.3123 55.6167 31.25C56.15 30.9333 55.7667 31.45 57.5667 28.3333C61.45 28.3333 60.1167 28.65 63.3334 26.7833C66.55 28.65 65.2167 28.3333 69.1 28.3333C70.9667 31.55 69.95 30.6167 73.3334 32.5667C73.3334 36.45 73.0167 35.1167 74.8834 38.3333Z" fill="#FFDE76"/>
<path d="M68.3335 38.3333C68.3338 39.2598 68.0768 40.1681 67.591 40.9569C67.1052 41.7458 66.4098 42.3841 65.5824 42.8008C64.755 43.2175 63.8281 43.3961 62.9051 43.3168C61.9821 43.2374 61.0993 42.9031 60.3551 42.3513C59.611 41.7994 59.0348 41.0517 58.6909 40.1915C58.3469 39.3313 58.2487 38.3924 58.4072 37.4797C58.5657 36.5669 58.9747 35.7161 59.5885 35.0223C60.2024 34.3284 60.9969 33.8187 61.8835 33.55C62.6304 33.3237 63.42 33.2753 64.189 33.4089C64.9579 33.5424 65.685 33.8541 66.3119 34.319C66.9388 34.7839 67.4481 35.3891 67.7992 36.0862C68.1502 36.7833 68.3332 37.5529 68.3335 38.3333Z" fill="#F16F39"/>
<path d="M68.1169 39.7834C67.2509 40.0453 66.33 40.0673 65.4525 39.8471C64.575 39.6269 63.7736 39.1727 63.1339 38.533C62.4942 37.8932 62.04 37.0919 61.8198 36.2144C61.5996 35.3368 61.6216 34.416 61.8835 33.55C62.7495 33.2881 63.6703 33.2661 64.5479 33.4863C65.4254 33.7065 66.2267 34.1607 66.8665 34.8004C67.5062 35.4401 67.9604 36.2415 68.1806 37.119C68.4008 37.9965 68.3788 38.9174 68.1169 39.7834Z" fill="#F8834B"/>
</svg>
