<svg width="80" height="80" viewBox="0 0 80 80" fill="none" xmlns="http://www.w3.org/2000/svg">
<path d="M70.7343 8.22937C70.7343 8.22937 71.7993 12.1853 74.8662 12.3687C74.8662 12.3687 70.7724 13.7828 70.7034 16.8069C70.7034 16.8069 69.8974 12.5656 66.6643 12.4134C66.6643 12.4134 70.4299 11.8431 70.7343 8.22937Z" fill="#D7E057"/>
<path d="M70.7027 17.2756C70.5938 17.2755 70.4883 17.2375 70.4043 17.1681C70.3203 17.0987 70.2631 17.0023 70.2424 16.8953C70.2352 16.8566 69.463 13.015 66.6421 12.8822C66.5267 12.8756 66.4178 12.8265 66.3363 12.7446C66.2547 12.6626 66.2063 12.5534 66.2003 12.438C66.1943 12.3225 66.2312 12.2089 66.3037 12.1189C66.3763 12.0289 66.4796 11.9689 66.5937 11.9503C66.7315 11.9288 69.9984 11.3822 70.2668 8.19001C70.276 8.08012 70.3237 7.977 70.4014 7.89879C70.4792 7.82058 70.582 7.77228 70.6919 7.76239C70.8017 7.7525 70.9115 7.78165 71.002 7.84472C71.0924 7.90778 71.1578 8.00073 71.1865 8.1072C71.1962 8.14345 72.2049 11.7403 74.8937 11.9013C75.0017 11.9081 75.1041 11.952 75.1834 12.0257C75.2628 12.0994 75.3142 12.1982 75.3289 12.3055C75.3437 12.4127 75.3209 12.5218 75.2644 12.6141C75.2079 12.7065 75.1212 12.7765 75.019 12.8122C74.9812 12.8253 71.2321 14.1591 71.1715 16.8181C71.1685 16.9405 71.1179 17.0569 71.0303 17.1423C70.9427 17.2278 70.8251 17.2757 70.7027 17.2756ZM68.2837 12.36C69.4955 12.9753 70.2305 14.1556 70.6546 15.1338C71.2877 13.8772 72.5115 13.0128 73.4512 12.5003C72.1593 11.9247 71.3315 10.7344 70.8468 9.77439C70.2865 11.1372 69.1996 11.9209 68.2837 12.36Z" fill="#3A312A"/>
<path d="M63.9535 13.5356C63.9535 13.5356 64.7069 16.3338 66.876 16.4635C66.876 16.4635 63.9803 17.4638 63.9316 19.6028C63.9316 19.6028 63.3616 16.6028 61.0747 16.4953C61.0744 16.4953 63.7381 16.0919 63.9535 13.5356Z" fill="#D7E057"/>
<path d="M63.9309 20.0716C63.8218 20.0715 63.7162 20.0334 63.6321 19.9638C63.5481 19.8942 63.491 19.7975 63.4706 19.6903C63.4656 19.6647 62.9384 17.0522 61.0525 16.9635C60.9371 16.9568 60.8282 16.9078 60.7467 16.8258C60.6651 16.7438 60.6167 16.6347 60.6107 16.5192C60.6047 16.4038 60.6416 16.2902 60.7141 16.2002C60.7867 16.1102 60.89 16.0502 61.0041 16.0316C61.0966 16.0169 63.305 15.6431 63.4856 13.496C63.495 13.3862 63.5427 13.2833 63.6204 13.2052C63.6981 13.1271 63.8008 13.0789 63.9105 13.069C64.0202 13.0591 64.1298 13.0881 64.2203 13.151C64.3107 13.2138 64.3761 13.3065 64.405 13.4128C64.4119 13.4375 65.1016 15.8875 66.9034 15.9953C67.0117 16.0018 67.1143 16.0457 67.1939 16.1194C67.2734 16.1931 67.325 16.2921 67.3397 16.3995C67.3545 16.5069 67.3315 16.6162 67.2747 16.7086C67.218 16.801 67.1309 16.8708 67.0284 16.9063C67.0031 16.915 64.4403 17.8291 64.3994 19.6135C64.3966 19.7359 64.346 19.8523 64.2585 19.938C64.171 20.0236 64.0534 20.0715 63.9309 20.0716ZM62.5191 16.4694C63.1775 16.886 63.62 17.5303 63.9088 18.1194C64.3388 17.4216 65.0072 16.9094 65.5853 16.5653C64.8706 16.1688 64.3713 15.5185 64.0409 14.9328C63.6744 15.6475 63.0988 16.1441 62.5191 16.4694Z" fill="#3A312A"/>
<path d="M63.9535 5.20532C63.9535 5.20532 64.7069 8.00345 66.876 8.13313C66.876 8.13313 63.9803 9.13345 63.9316 11.2722C63.9316 11.2722 63.3616 8.2722 61.0747 8.1647C61.0744 8.16501 63.7381 7.76126 63.9535 5.20532Z" fill="#D7E057"/>
<path d="M63.9309 11.7412C63.8218 11.7412 63.7162 11.7031 63.6321 11.6335C63.5481 11.5639 63.491 11.4672 63.4706 11.36C63.4656 11.3344 62.9384 8.72217 61.0525 8.6331C60.9371 8.62646 60.8282 8.57745 60.7467 8.49548C60.6651 8.4135 60.6167 8.30432 60.6107 8.18887C60.6047 8.07342 60.6416 7.95981 60.7141 7.86982C60.7867 7.77984 60.89 7.7198 61.0041 7.70123C61.0966 7.68654 63.305 7.31279 63.4856 5.16592C63.4949 5.05601 63.5426 4.95289 63.6204 4.8747C63.6982 4.7965 63.8011 4.74825 63.9109 4.73842C64.0206 4.72902 64.13 4.75832 64.2203 4.82123C64.3105 4.88414 64.3759 4.97669 64.405 5.08279C64.4119 5.10748 65.1016 7.55748 66.9034 7.66529C67.0118 7.67163 67.1147 7.7154 67.1944 7.78913C67.2741 7.86285 67.3257 7.96197 67.3405 8.06954C67.3552 8.17711 67.3322 8.28647 67.2753 8.37894C67.2184 8.47141 67.1311 8.54125 67.0284 8.57654C67.0031 8.58529 64.4403 9.49904 64.3994 11.2834C64.3965 11.4058 64.3459 11.5222 64.2584 11.6077C64.1709 11.6933 64.0533 11.7412 63.9309 11.7412ZM62.5191 8.13873C63.1775 8.55529 63.62 9.19935 63.9088 9.78873C64.3388 9.09123 65.0072 8.57873 65.585 8.23467C64.8706 7.8381 64.3713 7.18779 64.0409 6.60217C63.6744 7.31717 63.0988 7.81342 62.5191 8.13873Z" fill="#3A312A"/>
<path d="M5.13379 38.6534V69.4981C5.13379 72.4503 7.52691 74.8434 10.4791 74.8434H51.1944C54.1466 74.8434 56.5397 72.4503 56.5397 69.4981V10.5016C56.5397 7.54938 54.1466 5.15625 51.1944 5.15625H10.4794C7.52723 5.15625 5.1341 7.54938 5.1341 10.5016V38.6534H5.13379Z" fill="#87796F"/>
<path d="M51.1947 75.3125H10.4793C7.27341 75.3125 4.66528 72.7044 4.66528 69.4984V38.6538C4.66528 38.5294 4.71467 38.4102 4.80258 38.3223C4.89048 38.2344 5.00971 38.185 5.13403 38.185C5.25835 38.185 5.37758 38.2344 5.46549 38.3223C5.5534 38.4102 5.60278 38.5294 5.60278 38.6538V69.4984C5.60278 72.1875 7.7906 74.375 10.4793 74.375H51.1947C53.8837 74.375 56.0712 72.1875 56.0712 69.4984V10.5016C56.0715 7.8125 53.8837 5.625 51.1947 5.625H10.4793C7.7906 5.625 5.60278 7.8125 5.60278 10.5016V34.2631C5.60278 34.3874 5.5534 34.5067 5.46549 34.5946C5.37758 34.6825 5.25835 34.7319 5.13403 34.7319C5.00971 34.7319 4.89048 34.6825 4.80258 34.5946C4.71467 34.5067 4.66528 34.3874 4.66528 34.2631V10.5016C4.66528 7.29562 7.27341 4.6875 10.4793 4.6875H51.1947C54.4006 4.6875 57.0087 7.29562 57.0087 10.5016V69.4981C57.009 72.7044 54.4006 75.3125 51.1947 75.3125Z" fill="#3A312A"/>
<path d="M27.638 10.1562H12.012C11.3826 10.1563 10.779 10.4063 10.334 10.8513C9.88894 11.2964 9.63892 11.9 9.63892 12.5294V62.1578C9.63892 63.4684 10.7014 64.5309 12.012 64.5309H49.6614C50.972 64.5309 52.0345 63.4684 52.0345 62.1578V12.5294C52.0345 11.2188 50.972 10.1562 49.6614 10.1562H27.638Z" fill="#8AC6DD"/>
<path d="M49.6615 65H12.0121C10.4449 65 9.16992 63.725 9.16992 62.1581V12.5294C9.16992 10.9622 10.4449 9.6875 12.0121 9.6875H27.6377C27.7621 9.6875 27.8813 9.73689 27.9692 9.82479C28.0571 9.9127 28.1065 10.0319 28.1065 10.1562C28.1065 10.2806 28.0571 10.3998 27.9692 10.4877C27.8813 10.5756 27.7621 10.625 27.6377 10.625H12.0121C11.5072 10.6256 11.0231 10.8264 10.666 11.1834C10.309 11.5404 10.1081 12.0245 10.1074 12.5294V62.1581C10.108 62.6631 10.3089 63.1472 10.666 63.5042C11.023 63.8612 11.5072 64.062 12.0121 64.0625H49.6615C50.1664 64.0619 50.6505 63.8611 51.0076 63.5041C51.3646 63.1471 51.5655 62.663 51.5662 62.1581V12.5294C51.5656 12.0244 51.3647 11.5403 51.0076 11.1833C50.6506 10.8263 50.1664 10.6255 49.6615 10.625H31.8487C31.7244 10.625 31.6051 10.5756 31.5172 10.4877C31.4293 10.3998 31.3799 10.2806 31.3799 10.1562C31.3799 10.0319 31.4293 9.9127 31.5172 9.82479C31.6051 9.73689 31.7244 9.6875 31.8487 9.6875H49.6615C51.2287 9.6875 52.5037 10.9625 52.5037 12.5294V62.1581C52.5037 63.725 51.2287 65 49.6615 65Z" fill="#3A312A"/>
<path d="M30.6807 72.3438C32.0614 72.3438 33.1807 71.2245 33.1807 69.8438C33.1807 68.463 32.0614 67.3438 30.6807 67.3438C29.3 67.3438 28.1807 68.463 28.1807 69.8438C28.1807 71.2245 29.3 72.3438 30.6807 72.3438Z" fill="#F16C7A"/>
<path d="M30.6809 72.8125C29.044 72.8125 27.7122 71.4806 27.7122 69.8438C27.7122 68.2069 29.044 66.875 30.6809 66.875C32.3178 66.875 33.6497 68.2069 33.6497 69.8438C33.6497 71.4806 32.3178 72.8125 30.6809 72.8125ZM30.6809 67.8125C29.5609 67.8125 28.6497 68.7237 28.6497 69.8438C28.6497 70.9637 29.5609 71.875 30.6809 71.875C31.8009 71.875 32.7122 70.9637 32.7122 69.8438C32.7122 68.7237 31.8009 67.8125 30.6809 67.8125Z" fill="#3A312A"/>
<path d="M37.5709 62.3697C43.9736 62.3697 49.164 57.1792 49.164 50.7765C49.164 44.3738 43.9736 39.1834 37.5709 39.1834C31.1682 39.1834 25.9778 44.3738 25.9778 50.7765C25.9778 57.1792 31.1682 62.3697 37.5709 62.3697Z" fill="#FCE8CB"/>
<path d="M37.5712 62.8387C30.9203 62.8387 25.509 57.4278 25.509 50.7768C25.509 44.1259 30.92 38.7147 37.5712 38.7147C44.2225 38.7147 49.6334 44.1256 49.6334 50.7768C49.6331 57.4278 44.2222 62.8387 37.5712 62.8387ZM37.5712 39.6522C31.4372 39.6522 26.4465 44.6428 26.4465 50.7768C26.4465 56.9109 31.4372 61.9012 37.5712 61.9012C43.7053 61.9012 48.6959 56.9109 48.6959 50.7768C48.6956 44.6425 43.705 39.6522 37.5712 39.6522Z" fill="#3A312A"/>
<path d="M43.5716 49.9606V54.3338C43.5717 54.4798 43.5429 54.6245 43.4871 54.7594C43.4312 54.8944 43.3493 55.017 43.246 55.1203C43.1427 55.2236 43.0201 55.3055 42.8851 55.3614C42.7502 55.4172 42.6055 55.446 42.4594 55.4459H32.6823C32.5362 55.446 32.3915 55.4172 32.2566 55.3614C32.1216 55.3055 31.999 55.2236 31.8957 55.1203C31.7924 55.017 31.7105 54.8944 31.6546 54.7594C31.5988 54.6245 31.57 54.4798 31.5701 54.3338V49.9606L37.5707 53.0128L43.5716 49.9606Z" fill="#87796F"/>
<path d="M42.4597 55.9147H32.6825C32.2634 55.9142 31.8615 55.7475 31.5652 55.4511C31.2688 55.1547 31.1021 54.7529 31.1016 54.3338V49.9603C31.1017 49.8802 31.1223 49.8014 31.1615 49.7315C31.2006 49.6616 31.2571 49.6029 31.3254 49.561C31.3937 49.5191 31.4716 49.4954 31.5517 49.4922C31.6318 49.4889 31.7113 49.5063 31.7828 49.5425L37.5709 52.4863L43.3591 49.5425C43.4305 49.5062 43.5101 49.4888 43.5902 49.4919C43.6703 49.4951 43.7483 49.5188 43.8166 49.5607C43.885 49.6027 43.9414 49.6614 43.9806 49.7314C44.0197 49.8013 44.0403 49.8801 44.0403 49.9603V54.3338C44.04 54.7529 43.8734 55.1548 43.577 55.4512C43.2807 55.7476 42.8788 55.9143 42.4597 55.9147ZM32.0391 50.7247V54.3338C32.0391 54.6884 32.3278 54.9772 32.6825 54.9772H42.4597C42.6303 54.977 42.7939 54.9092 42.9145 54.7886C43.0351 54.6679 43.103 54.5044 43.1031 54.3338V50.7247L37.7837 53.4303C37.718 53.4639 37.6452 53.4814 37.5714 53.4814C37.4976 53.4814 37.4248 53.4639 37.3591 53.4303L32.0391 50.7247Z" fill="#3A312A"/>
<path d="M45.3487 49.0578V54.6509C45.1175 54.3537 44.8047 54.1709 44.459 54.1709C44.1156 54.1709 43.8028 54.3537 43.5715 54.6509V49.9606L45.3487 49.0578Z" fill="#EF6D7A"/>
<path d="M45.3487 55.1197C45.2068 55.1197 45.0697 55.055 44.9787 54.9387C44.8918 54.8269 44.7087 54.6394 44.4587 54.6394C44.2109 54.6394 44.0284 54.8266 43.9418 54.9381C43.8819 55.0153 43.7994 55.0719 43.7057 55.0999C43.6121 55.1278 43.512 55.1258 43.4196 55.0942C43.3271 55.0625 43.2469 55.0027 43.1901 54.9232C43.1333 54.8436 43.1028 54.7484 43.1028 54.6506V49.9603C43.1028 49.7837 43.2018 49.6222 43.359 49.5425L45.1359 48.6397C45.2074 48.6033 45.287 48.5859 45.3671 48.5891C45.4472 48.5923 45.5251 48.616 45.5935 48.6579C45.6618 48.6998 45.7183 48.7586 45.7574 48.8285C45.7966 48.8985 45.8172 48.9773 45.8172 49.0575V54.6506C45.8172 54.7122 45.8051 54.7731 45.7816 54.83C45.7581 54.8869 45.7236 54.9386 45.6801 54.9822C45.6366 55.0257 45.5849 55.0603 45.5281 55.0839C45.4712 55.1075 45.4103 55.1196 45.3487 55.1197ZM44.459 53.7022C44.6031 53.7022 44.7443 53.7231 44.8803 53.7644V49.8219L44.0409 50.2484V53.7641C44.1756 53.7231 44.3159 53.7022 44.459 53.7022Z" fill="#3A312A"/>
<path d="M37.5708 43.8284L28.5427 48.4203L37.5708 53.0125L46.5993 48.4203L37.5708 43.8284Z" fill="#87796F"/>
<path d="M37.5712 53.4813C37.4984 53.4813 37.4252 53.4644 37.3587 53.4303L28.3302 48.8385C28.2529 48.7994 28.188 48.7397 28.1426 48.6659C28.0973 48.5921 28.0732 48.5072 28.0732 48.4206C28.0732 48.334 28.0973 48.2491 28.1426 48.1754C28.188 48.1016 28.2529 48.0419 28.3302 48.0028L37.3587 43.4106C37.4244 43.3771 37.4972 43.3596 37.571 43.3596C37.6448 43.3596 37.7176 43.3771 37.7834 43.4106L46.8118 48.0028C46.8891 48.0419 46.954 48.1016 46.9994 48.1754C47.0448 48.2491 47.0688 48.334 47.0688 48.4206C47.0688 48.5072 47.0448 48.5921 46.9994 48.6659C46.954 48.7397 46.8891 48.7994 46.8118 48.8385L37.7834 53.4303C37.7176 53.4637 37.6449 53.4812 37.5712 53.4813ZM29.5768 48.4203L37.5712 52.4863L45.5656 48.4203L37.5712 44.3541L29.5768 48.4203Z" fill="#3A312A"/>
<path d="M44.4596 57.725C45.1781 57.725 45.7606 56.9295 45.7606 55.9481C45.7606 54.9668 45.1781 54.1713 44.4596 54.1713C43.7411 54.1713 43.1587 54.9668 43.1587 55.9481C43.1587 56.9295 43.7411 57.725 44.4596 57.725Z" fill="#EF6D7A"/>
<path d="M44.4596 58.1938C43.4671 58.1938 42.6899 57.2075 42.6899 55.9481C42.6899 54.6888 43.4671 53.7025 44.4596 53.7025C45.4521 53.7025 46.2293 54.6888 46.2293 55.9481C46.2293 57.2075 45.4521 58.1938 44.4596 58.1938ZM44.4596 54.64C44.0087 54.64 43.6274 55.2391 43.6274 55.9481C43.6274 56.6572 44.0087 57.2563 44.4596 57.2563C44.9106 57.2563 45.2918 56.6572 45.2918 55.9481C45.2921 55.2391 44.9109 54.64 44.4596 54.64Z" fill="#3A312A"/>
<path d="M36.7143 30.5607C39.1645 24.6453 36.3554 17.8637 30.4399 15.4134C24.5244 12.9631 17.7427 15.7721 15.2925 21.6874C12.8422 27.6027 15.6514 34.3844 21.5669 36.8347C27.4824 39.285 34.2641 36.476 36.7143 30.5607Z" fill="#FCE8CB"/>
<path d="M26.0031 38.1866C19.3522 38.1866 13.9409 32.7756 13.9409 26.1247C13.9409 19.4734 19.3522 14.0625 26.0031 14.0625C32.654 14.0625 38.0653 19.4734 38.0653 26.1247C38.0653 32.7756 32.654 38.1866 26.0031 38.1866ZM26.0031 15C19.869 15 14.8784 19.9906 14.8784 26.1247C14.8784 32.2587 19.869 37.2491 26.0031 37.2491C32.1372 37.2491 37.1278 32.2587 37.1278 26.1247C37.1278 19.9906 32.1372 15 26.0031 15Z" fill="#3A312A"/>
<path d="M26.0031 19.5916C25.8788 19.5916 25.7595 19.5422 25.6716 19.4543C25.5837 19.3664 25.5343 19.2471 25.5343 19.1228V18.1219C25.5343 17.9976 25.5837 17.8783 25.6716 17.7904C25.7595 17.7025 25.8788 17.6531 26.0031 17.6531C26.1274 17.6531 26.2466 17.7025 26.3345 17.7904C26.4225 17.8783 26.4718 17.9976 26.4718 18.1219V19.1228C26.4718 19.2471 26.4225 19.3664 26.3345 19.4543C26.2466 19.5422 26.1274 19.5916 26.0031 19.5916ZM30.1937 20.9831C30.1068 20.9831 30.0215 20.9589 29.9476 20.9133C29.8736 20.8676 29.8137 20.8022 29.7748 20.7245C29.7358 20.6468 29.7192 20.5598 29.7269 20.4731C29.7345 20.3865 29.7661 20.3038 29.8181 20.2341L30.4165 19.4319C30.4909 19.3322 30.6018 19.2662 30.7248 19.2483C30.8478 19.2304 30.973 19.2621 31.0726 19.3364C31.1723 19.4108 31.2383 19.5217 31.2562 19.6447C31.2741 19.7677 31.2424 19.8928 31.1681 19.9925L30.5697 20.7947C30.526 20.8532 30.4693 20.9008 30.404 20.9335C30.3387 20.9662 30.2667 20.9832 30.1937 20.9831ZM32.7209 24.6041C32.608 24.6045 32.4987 24.5642 32.4132 24.4905C32.3276 24.4168 32.2716 24.3146 32.2554 24.2029C32.2392 24.0911 32.2639 23.9773 32.325 23.8823C32.386 23.7873 32.4794 23.7176 32.5878 23.6859L33.5472 23.401C33.6064 23.3827 33.6686 23.3764 33.7303 23.3823C33.792 23.3883 33.8519 23.4064 33.9065 23.4357C33.9612 23.465 34.0095 23.5048 34.0486 23.5528C34.0878 23.6009 34.117 23.6562 34.1346 23.7156C34.1522 23.775 34.1579 23.8374 34.1513 23.899C34.1447 23.9606 34.1259 24.0203 34.096 24.0746C34.0662 24.1289 34.0259 24.1768 33.9774 24.2154C33.929 24.2541 33.8733 24.2827 33.8137 24.2997L32.8543 24.5847C32.811 24.5976 32.7661 24.6041 32.7209 24.6041ZM33.5206 29.3631C33.4668 29.3631 33.4122 29.3538 33.3587 29.3341L32.4193 28.9888C32.3027 28.9458 32.2079 28.8584 32.1557 28.7456C32.1035 28.6328 32.0981 28.5039 32.1409 28.3872C32.1621 28.3294 32.1945 28.2763 32.2362 28.231C32.2779 28.1857 32.3282 28.1491 32.3841 28.1232C32.44 28.0974 32.5005 28.0828 32.562 28.0804C32.6236 28.078 32.685 28.0877 32.7428 28.1091L33.6822 28.4544C33.7851 28.4926 33.8714 28.5658 33.9259 28.6612C33.9805 28.7566 33.9998 28.868 33.9806 28.9762C33.9614 29.0843 33.9048 29.1823 33.8207 29.253C33.7367 29.3237 33.6304 29.3627 33.5206 29.3631ZM21.8125 20.9831C21.6697 20.9831 21.5284 20.9178 21.4365 20.7947L20.8381 19.9925C20.7637 19.8928 20.732 19.7677 20.7499 19.6447C20.7678 19.5217 20.8339 19.4108 20.9336 19.3364C21.0332 19.2621 21.1583 19.2304 21.2814 19.2483C21.4044 19.2662 21.5153 19.3322 21.5897 19.4319L22.1881 20.2341C22.2401 20.3038 22.2717 20.3865 22.2793 20.4731C22.287 20.5598 22.2704 20.6468 22.2314 20.7245C22.1924 20.8022 22.1326 20.8676 22.0586 20.9133C21.9846 20.9589 21.8994 20.9831 21.8125 20.9831ZM19.2853 24.6041C19.2399 24.6041 19.1947 24.5975 19.1512 24.5847L18.1922 24.2997C18.073 24.2643 17.9727 24.1829 17.9135 24.0736C17.8543 23.9643 17.8409 23.8359 17.8764 23.7167C17.9118 23.5975 17.9931 23.4973 18.1025 23.4381C18.2118 23.3789 18.3402 23.3655 18.4593 23.401L19.4184 23.6859C19.5264 23.718 19.6192 23.7878 19.6799 23.8827C19.7406 23.9776 19.7651 24.0911 19.7489 24.2026C19.7328 24.314 19.677 24.416 19.5919 24.4897C19.5067 24.5634 19.3979 24.604 19.2853 24.6041ZM18.4856 29.3631C18.3757 29.3627 18.2695 29.3237 18.1855 29.253C18.1014 29.1823 18.0448 29.0843 18.0256 28.9762C18.0064 28.868 18.0257 28.7566 18.0802 28.6612C18.1348 28.5658 18.2211 28.4926 18.324 28.4544L19.2634 28.1091C19.3215 28.0862 19.3836 28.0752 19.446 28.0767C19.5085 28.0781 19.57 28.0921 19.6269 28.1176C19.6839 28.1432 19.7352 28.1799 19.7778 28.2255C19.8204 28.2712 19.8534 28.3249 19.875 28.3835C19.8965 28.4421 19.9061 28.5045 19.9033 28.5668C19.9004 28.6292 19.8851 28.6904 19.8583 28.7468C19.8314 28.8031 19.7936 28.8536 19.747 28.8952C19.7004 28.9367 19.6459 28.9685 19.5868 28.9888L18.6475 29.3341C18.5956 29.3533 18.5408 29.3631 18.4856 29.3631Z" fill="#3A312A"/>
<path d="M30.6894 25.9716C30.6894 27.1613 30.2476 28.2435 29.5166 29.0706C28.8282 29.8497 28.3891 30.81 28.2079 31.8297H23.7972C23.616 30.81 23.1797 29.8497 22.4885 29.0678C21.7322 28.2138 21.3149 27.1123 21.3157 25.9716C21.3157 23.5072 23.2901 21.4222 25.7488 21.2919C28.4516 21.1503 30.6894 23.3003 30.6894 25.9716Z" fill="#D7E057"/>
<path d="M28.2079 32.2985H23.7972C23.5697 32.2985 23.3754 32.1356 23.3357 31.9119C23.1641 30.9475 22.7497 30.0713 22.1369 29.3785C21.3058 28.4383 20.847 27.2267 20.8469 25.9719C20.8469 23.276 23.0347 20.9666 25.7238 20.8241C27.1532 20.7494 28.5138 21.2494 29.5504 22.2328C30.5866 23.2166 31.1579 24.5444 31.1579 25.9719C31.1579 27.2288 30.6994 28.4397 29.8675 29.3813C29.2544 30.075 28.8397 30.9503 28.6688 31.9122C28.6496 32.0205 28.5929 32.1186 28.5086 32.1892C28.4243 32.2598 28.3178 32.2985 28.2079 32.2985ZM24.1779 31.361H27.8272C28.0635 30.381 28.5219 29.4885 29.1654 28.7603C29.8457 27.9907 30.221 26.9988 30.2207 25.9716C30.2228 25.3988 30.1072 24.8316 29.8809 24.3054C29.6547 23.7791 29.3226 23.305 28.9054 22.9125C28.0572 22.1078 26.9457 21.6985 25.7735 21.76C23.5744 21.8766 21.7847 23.766 21.7847 25.9716C21.7847 26.9975 22.1594 27.9869 22.8397 28.7575C23.4832 29.485 23.9413 30.3788 24.1779 31.361Z" fill="#3A312A"/>
<path d="M23.9072 31.8306H28.0987C28.3509 31.8306 28.5926 31.9308 28.7709 32.1091C28.9492 32.2873 29.0494 32.5291 29.0494 32.7813V33.1763C29.0494 33.4284 28.9492 33.6702 28.7709 33.8484C28.5926 34.0267 28.3509 34.1269 28.0987 34.1269H23.9072C23.655 34.1269 23.4133 34.0267 23.235 33.8484C23.0567 33.6702 22.9565 33.4284 22.9565 33.1763V32.7813C22.9566 32.5292 23.0568 32.2874 23.2351 32.1092C23.4133 31.9309 23.6551 31.8307 23.9072 31.8306Z" fill="#87796F"/>
<path d="M28.099 34.5959H23.9071C23.5308 34.5954 23.1701 34.4457 22.9041 34.1796C22.6381 33.9136 22.4885 33.5528 22.488 33.1766V32.7813C22.4885 32.405 22.6381 32.0443 22.9041 31.7782C23.1701 31.5121 23.5308 31.3624 23.9071 31.3619H28.099C28.4752 31.3624 28.8359 31.5121 29.102 31.7782C29.368 32.0443 29.5176 32.405 29.518 32.7813V33.1763C29.5177 33.5526 29.3681 33.9134 29.1021 34.1795C28.836 34.4457 28.4753 34.5954 28.099 34.5959ZM23.9071 32.2994C23.6415 32.2994 23.4255 32.5156 23.4255 32.7813V33.1763C23.4255 33.4419 23.6415 33.6581 23.9071 33.6581H28.099C28.3646 33.6581 28.5805 33.4419 28.5805 33.1763V32.7813C28.5805 32.5156 28.3646 32.2994 28.099 32.2994H23.9071Z" fill="#3A312A"/>
<path d="M59.424 46.2225C65.8269 46.2225 71.0174 41.032 71.0174 34.6291C71.0174 28.2262 65.8269 23.0356 59.424 23.0356C53.0211 23.0356 47.8306 28.2262 47.8306 34.6291C47.8306 41.032 53.0211 46.2225 59.424 46.2225Z" fill="#FCE8CB"/>
<path d="M59.424 46.691C52.7731 46.691 47.3618 41.28 47.3618 34.6288C47.3618 27.9775 52.7728 22.5669 59.424 22.5669C66.0753 22.5669 71.4859 27.9778 71.4859 34.6288C71.4859 41.2797 66.0749 46.691 59.424 46.691ZM59.424 23.5044C53.2899 23.5044 48.2993 28.4947 48.2993 34.6288C48.2993 40.7628 53.2899 45.7535 59.424 45.7535C65.5581 45.7535 70.5484 40.7628 70.5484 34.6288C70.5484 28.4947 65.5581 23.5044 59.424 23.5044Z" fill="#3A312A"/>
<path d="M67.8499 39.8207L59.424 41.2044L50.998 39.8207V29.3035L59.424 30.6872L67.8499 29.3035V39.8207Z" fill="#F16C7A"/>
<path d="M59.4241 41.6735C59.3987 41.6735 59.3734 41.6713 59.3481 41.6672L50.9219 40.2835C50.8122 40.2655 50.7125 40.2091 50.6405 40.1244C50.5686 40.0396 50.5291 39.9321 50.5291 39.821V29.3035C50.5292 29.2355 50.544 29.1684 50.5726 29.1068C50.6012 29.0451 50.6428 28.9904 50.6946 28.9465C50.7464 28.9025 50.8071 28.8703 50.8726 28.8521C50.9381 28.8339 51.0067 28.8301 51.0737 28.841L59.4241 30.2122L67.7741 28.841C67.8411 28.8299 67.9098 28.8336 67.9754 28.8517C68.0409 28.8699 68.1017 28.9021 68.1535 28.9461C68.2053 28.9901 68.247 29.0449 68.2755 29.1066C68.304 29.1683 68.3188 29.2355 68.3187 29.3035V39.8207C68.3187 39.9318 68.2792 40.0393 68.2073 40.124C68.1353 40.2088 68.0356 40.2651 67.9259 40.2832L59.5 41.6669C59.475 41.6713 59.4494 41.6735 59.4241 41.6735ZM51.4666 39.4225L59.4241 40.7294L67.3812 39.4225V29.8557L59.5 31.15C59.45 31.1582 59.3987 31.1582 59.3481 31.15L51.4666 29.8557V39.4225Z" fill="#3A312A"/>
<path d="M59.4241 41.6734C59.2998 41.6734 59.1805 41.6241 59.0926 41.5362C59.0047 41.4482 58.9553 41.329 58.9553 41.2047V30.6872C58.9553 30.5629 59.0047 30.4436 59.0926 30.3557C59.1805 30.2678 59.2998 30.2184 59.4241 30.2184C59.5484 30.2184 59.6676 30.2678 59.7555 30.3557C59.8434 30.4436 59.8928 30.5629 59.8928 30.6872V41.2044C59.8929 41.266 59.8808 41.327 59.8572 41.3839C59.8337 41.4408 59.7992 41.4925 59.7556 41.536C59.7121 41.5796 59.6604 41.6142 59.6035 41.6377C59.5466 41.6613 59.4857 41.6734 59.4241 41.6734Z" fill="#3A312A"/>
<path d="M51.5669 25.4906V12.5281C51.5669 11.4781 50.7106 10.625 49.6606 10.625H44.9731C46.0231 10.625 46.8794 11.4781 46.8794 12.5281V25.4906C44.3075 27.7031 42.6763 30.9781 42.6763 34.6281C42.6763 36.9031 43.3106 39.0313 44.4075 40.8469C47.5638 43.0219 49.6325 46.6625 49.6325 50.7781C49.6325 53.6844 48.5981 56.3563 46.8794 58.4375V62.1594C46.8794 63.2094 46.0231 64.0625 44.9731 64.0625H49.6606C50.7106 64.0625 51.5669 63.2094 51.5669 62.1594V43.7687C48.995 41.5562 47.3638 38.2812 47.3638 34.6281C47.3635 30.9781 48.9947 27.7031 51.5669 25.4906Z" fill="#6CA8BF"/>
</svg>
