<svg width="80" height="80" viewBox="0 0 80 80" fill="none" xmlns="http://www.w3.org/2000/svg">
<g clip-path="url(#clip0_1106_9841)">
<path d="M10 58.3333H20V78.3333H10V58.3333Z" fill="#6FABE6"/>
<path d="M19.9999 58.3333C19.9999 76.0166 19.8333 75 19.9999 75C18.2318 75 16.5361 74.2976 15.2859 73.0474C14.0356 71.7971 13.3333 70.1014 13.3333 68.3333V58.3333H19.9999Z" fill="#82BCF4"/>
<path d="M28.3333 38.3333H38.3333V78.3333H28.3333V38.3333ZM46.6666 48.3333H56.6666V78.3333H46.6666V48.3333ZM64.9999 25H74.9999V78.3333H64.9999V25Z" fill="#6FABE6"/>
<path d="M78.3333 80H1.66667C1.22464 80 0.800716 79.8244 0.488155 79.5118C0.175595 79.1993 0 78.7754 0 78.3333V1.66667C0 1.22464 0.175595 0.800716 0.488155 0.488155C0.800716 0.175595 1.22464 0 1.66667 0C2.10869 0 2.53262 0.175595 2.84518 0.488155C3.15774 0.800716 3.33333 1.22464 3.33333 1.66667V76.6667H78.3333C78.7754 76.6667 79.1993 76.8423 79.5118 77.1548C79.8244 77.4674 80 77.8913 80 78.3333C80 78.7754 79.8244 79.1993 79.5118 79.5118C79.1993 79.8244 78.7754 80 78.3333 80Z" fill="#425B72"/>
<path d="M25 8.33332V21.6667H18.3333C17.014 21.6677 15.724 21.2773 14.6267 20.5448C13.5295 19.8123 12.6742 18.7707 12.1691 17.5519C11.6641 16.3331 11.5321 14.9918 11.7898 13.6979C12.0474 12.404 12.6832 11.2157 13.6166 10.2833C16.2 7.69999 19.1666 8.33332 25 8.33332Z" fill="#DB5669"/>
<path d="M25 8.33332V18.3333H21.6667C20.5547 18.331 19.461 18.0506 18.4851 17.5176C17.5092 16.9846 16.6822 16.216 16.0792 15.2818C15.4762 14.3475 15.1165 13.2772 15.0328 12.1684C14.9491 11.0596 15.1441 9.94751 15.6 8.93332C17.35 8.13332 18.2 8.33332 25 8.33332Z" fill="#F26674"/>
<path d="M23.3334 21.6667V28.3334C23.3334 29.2174 22.9822 30.0653 22.3571 30.6904C21.732 31.3155 20.8841 31.6667 20.0001 31.6667C19.116 31.6667 18.2682 31.3155 17.6431 30.6904C17.0179 30.0653 16.6667 29.2174 16.6667 28.3334V21.6667H23.3334Z" fill="#374F68"/>
<path d="M23.3333 21.6667V28.3334C22.4493 28.3334 21.6014 27.9822 20.9763 27.357C20.3512 26.7319 20 25.8841 20 25V21.6667H23.3333Z" fill="#425B72"/>
<path d="M38.3333 1.66669V28.3334L25 21.6667V8.33335L38.3333 1.66669Z" fill="#DAD7E5"/>
<path d="M38.3333 1.66669V22.5L31.85 19.25C31.2946 18.9741 30.8273 18.5486 30.5005 18.0216C30.1736 17.4946 30.0003 16.8868 30 16.2667V5.83335L38.3333 1.66669Z" fill="#EDEBF2"/>
<path d="M43.5333 18.5333C42.8308 19.1502 41.9992 19.6021 41.0994 19.8558C40.1997 20.1096 39.2545 20.1589 38.3333 20V10H39.9999C40.9882 10.0009 41.954 10.2946 42.7755 10.8441C43.5969 11.3935 44.2371 12.1741 44.6152 13.0872C44.9932 14.0003 45.0922 15.0049 44.8997 15.9742C44.7071 16.9436 44.2316 17.8341 43.5333 18.5333Z" fill="#374F68"/>
<path d="M44.1333 17.8167C42.9133 17.3154 41.8693 16.4636 41.1335 15.3688C40.3978 14.2741 40.0033 12.9857 40 11.6667V10C40.9096 9.9996 41.8021 10.2473 42.5813 10.7165C43.3606 11.1857 43.9971 11.8586 44.4223 12.6627C44.8475 13.4668 45.0453 14.3717 44.9943 15.2799C44.9434 16.188 44.6457 17.0651 44.1333 17.8167Z" fill="#425B72"/>
<path d="M55.0001 16.6667H51.6667C51.2247 16.6667 50.8008 16.4911 50.4882 16.1785C50.1757 15.866 50.0001 15.442 50.0001 15C50.0001 14.558 50.1757 14.1341 50.4882 13.8215C50.8008 13.5089 51.2247 13.3334 51.6667 13.3334H55.0001C55.4421 13.3334 55.866 13.5089 56.1786 13.8215C56.4912 14.1341 56.6667 14.558 56.6667 15C56.6667 15.442 56.4912 15.866 56.1786 16.1785C55.866 16.4911 55.4421 16.6667 55.0001 16.6667ZM48.7334 9.60002C48.4038 9.59863 48.082 9.49954 47.8087 9.31527C47.5354 9.131 47.3228 8.86982 47.198 8.56477C47.0731 8.25972 47.0415 7.92448 47.1071 7.60146C47.1728 7.27844 47.3327 6.98214 47.5667 6.75002L50.0001 4.40002C50.1495 4.22555 50.3334 4.08385 50.5401 3.98381C50.7469 3.88377 50.9721 3.82755 51.2017 3.81869C51.4312 3.80982 51.6601 3.8485 51.8739 3.93229C52.0878 4.01608 52.2821 4.14317 52.4445 4.3056C52.6069 4.46802 52.734 4.66227 52.8178 4.87614C52.9016 5.09002 52.9403 5.31891 52.9314 5.54844C52.9225 5.77797 52.8663 6.00319 52.7663 6.20997C52.6662 6.41674 52.5245 6.60061 52.3501 6.75002C49.7167 9.31668 49.6167 9.60002 48.7334 9.60002ZM51.1001 26.1C50.1001 26.1 49.7167 25.4 47.5667 23.25C47.4124 23.0902 47.2911 22.9016 47.2097 22.695C47.1283 22.4883 47.0884 22.2676 47.0922 22.0456C47.0961 21.8235 47.1437 21.6043 47.2323 21.4006C47.3208 21.1969 47.4486 21.0127 47.6084 20.8583C47.7682 20.704 47.9568 20.5827 48.1635 20.5013C48.3701 20.4199 48.5908 20.38 48.8129 20.3839C49.035 20.3877 49.2541 20.4353 49.4578 20.5239C49.6615 20.6124 49.8458 20.7402 50.0001 20.9L52.2667 23.3333C52.4741 23.5686 52.6109 23.8576 52.6614 24.1671C52.7119 24.4766 52.674 24.7941 52.5522 25.083C52.4303 25.372 52.2294 25.6207 51.9726 25.8006C51.7157 25.9805 51.4133 26.0843 51.1001 26.1Z" fill="#F26674"/>
<path d="M38.3334 38.3333C38.3334 77.1333 38.1667 75 38.3334 75C36.5653 75 34.8696 74.2976 33.6194 73.0474C32.3691 71.7971 31.6667 70.1014 31.6667 68.3333V38.3333H38.3334ZM56.6667 48.3333C56.6667 76.3667 56.5001 75 56.6667 75C54.8986 75 53.2029 74.2976 51.9527 73.0474C50.7025 71.7971 50.0001 70.1014 50.0001 68.3333V48.3333H56.6667ZM75.0001 25C75.0001 76.9333 74.8334 75 75.0001 75C73.232 75 71.5363 74.2976 70.286 73.0474C69.0358 71.7971 68.3334 70.1014 68.3334 68.3333V25H75.0001Z" fill="#82BCF4"/>
</g>
<defs>
<clipPath id="clip0_1106_9841">
<rect width="80" height="80" fill="white"/>
</clipPath>
</defs>
</svg>
