<svg width="80" height="80" viewBox="0 0 80 80" fill="none" xmlns="http://www.w3.org/2000/svg">
<path d="M19.3787 66.8738C15.5874 66.8738 12.5037 63.7888 12.5037 59.9988C12.5037 56.2088 15.5874 53.1238 19.3787 53.1238C23.1699 53.1238 26.2537 56.2088 26.2537 59.9988C26.2537 63.7888 23.1699 66.8738 19.3787 66.8738ZM19.3787 54.3738C16.2774 54.3738 13.7537 56.8975 13.7537 59.9988C13.7537 63.1 16.2774 65.6238 19.3787 65.6238C22.4799 65.6238 25.0037 63.1 25.0037 59.9988C25.0037 56.8975 22.4799 54.3738 19.3787 54.3738Z" fill="#263238"/>
<path d="M9.375 76.875C9.20924 76.875 9.05027 76.8092 8.93306 76.692C8.81585 76.5748 8.75 76.4158 8.75 76.25V72.0113C8.75 70.545 9.6125 69.205 10.9487 68.5975L15.6163 66.4788V65.4063C15.6163 65.2405 15.6821 65.0815 15.7993 64.9643C15.9165 64.8471 16.0755 64.7813 16.2413 64.7813C16.407 64.7813 16.566 64.8471 16.6832 64.9643C16.8004 65.0815 16.8663 65.2405 16.8663 65.4063L16.8675 66.8825C16.8675 67.0025 16.8329 67.1199 16.768 67.2207C16.703 67.3216 16.6104 67.4016 16.5013 67.4513L11.4675 69.7363C11.0306 69.9349 10.6599 70.255 10.3998 70.6583C10.1396 71.0617 10.0008 71.5313 10 72.0113V76.25C10 76.4158 9.93415 76.5748 9.81694 76.692C9.69973 76.8092 9.54076 76.875 9.375 76.875ZM29.375 76.875C29.2092 76.875 29.0503 76.8092 28.9331 76.692C28.8158 76.5748 28.75 76.4158 28.75 76.25V72.01C28.75 71.0325 28.175 70.1388 27.285 69.735L22.2325 67.4375C22.1233 67.3879 22.0307 67.3078 21.9658 67.207C21.9008 67.1061 21.8663 66.9887 21.8663 66.8688V65.42C21.8663 65.2543 21.9321 65.0953 22.0493 64.9781C22.1665 64.8609 22.3255 64.795 22.4913 64.795C22.657 64.795 22.816 64.8609 22.9332 64.9781C23.0504 65.0953 23.1163 65.2543 23.1163 65.42V66.465L27.8012 68.5975C28.4562 68.8958 29.0117 69.376 29.4015 69.981C29.7913 70.586 29.9991 71.2903 30 72.01V76.25C30 76.4158 29.9342 76.5748 29.8169 76.692C29.6997 76.8092 29.5408 76.875 29.375 76.875ZM39.3775 66.8738C35.5863 66.8738 32.5025 63.7888 32.5025 59.9988C32.5025 56.2088 35.5863 53.1238 39.3775 53.1238C43.1688 53.1238 46.2525 56.2088 46.2525 59.9988C46.2525 63.7888 43.1688 66.8738 39.3775 66.8738ZM39.3775 54.3738C36.2763 54.3738 33.7525 56.8975 33.7525 59.9988C33.7525 63.1 36.2763 65.6238 39.3775 65.6238C42.4788 65.6238 45.0025 63.1 45.0025 59.9988C45.0025 56.8975 42.48 54.3738 39.3775 54.3738Z" fill="#263238"/>
<path d="M29.375 76.875C29.2092 76.875 29.0503 76.8092 28.9331 76.692C28.8158 76.5748 28.75 76.4158 28.75 76.25V72.0113C28.75 70.545 29.6125 69.205 30.9488 68.5975L35.6163 66.4788V65.4063C35.6163 65.2405 35.6821 65.0815 35.7993 64.9643C35.9165 64.8471 36.0755 64.7813 36.2413 64.7813C36.407 64.7813 36.566 64.8471 36.6832 64.9643C36.8004 65.0815 36.8663 65.2405 36.8663 65.4063L36.8675 66.8825C36.8675 67.0025 36.8329 67.1199 36.768 67.2207C36.703 67.3216 36.6104 67.4016 36.5013 67.4513L31.4663 69.7363C31.0295 69.935 30.659 70.2551 30.399 70.6585C30.1391 71.0618 30.0006 71.5314 30 72.0113V76.25C30 76.4158 29.9342 76.5748 29.8169 76.692C29.6997 76.8092 29.5408 76.875 29.375 76.875ZM49.375 76.875C49.2092 76.875 49.0503 76.8092 48.9331 76.692C48.8158 76.5748 48.75 76.4158 48.75 76.25V72.01C48.75 71.0325 48.175 70.1388 47.285 69.735L42.2325 67.4375C42.1233 67.3879 42.0307 67.3078 41.9658 67.207C41.9008 67.1061 41.8663 66.9887 41.8663 66.8688V65.42C41.8663 65.2543 41.9321 65.0953 42.0493 64.9781C42.1665 64.8609 42.3255 64.795 42.4913 64.795C42.657 64.795 42.816 64.8609 42.9332 64.9781C43.0504 65.0953 43.1163 65.2543 43.1163 65.42V66.465L47.8013 68.5975C48.4562 68.8958 49.0117 69.376 49.4015 69.981C49.7913 70.586 49.9991 71.2903 50 72.01V76.25C50 76.4158 49.9342 76.5748 49.8169 76.692C49.6997 76.8092 49.5408 76.875 49.375 76.875ZM59.3775 66.8738C55.5862 66.8738 52.5025 63.7888 52.5025 59.9988C52.5025 56.2088 55.5862 53.1238 59.3775 53.1238C63.1687 53.1238 66.2525 56.2088 66.2525 59.9988C66.2525 63.7888 63.1687 66.8738 59.3775 66.8738ZM59.3775 54.3738C56.2762 54.3738 53.7525 56.8975 53.7525 59.9988C53.7525 63.1 56.2762 65.6238 59.3775 65.6238C62.4787 65.6238 65.0025 63.1 65.0025 59.9988C65.0025 56.8975 62.48 54.3738 59.3775 54.3738Z" fill="#263238"/>
<path d="M49.3751 76.875C49.2093 76.875 49.0504 76.8092 48.9332 76.6919C48.8159 76.5747 48.7501 76.4158 48.7501 76.25V72.0113C48.7501 70.545 49.6126 69.205 50.9488 68.5975L55.6163 66.4787V65.4062C55.6163 65.2405 55.6822 65.0815 55.7994 64.9643C55.9166 64.8471 56.0756 64.7812 56.2413 64.7812C56.4071 64.7812 56.5661 64.8471 56.6833 64.9643C56.8005 65.0815 56.8663 65.2405 56.8663 65.4062V66.8825C56.8663 67.0025 56.8318 67.1199 56.7668 67.2207C56.7019 67.3216 56.6093 67.4016 56.5001 67.4512L51.4663 69.7363C51.0295 69.935 50.6591 70.2551 50.3991 70.6584C50.1392 71.0618 50.0006 71.5314 50.0001 72.0113V76.25C50.0001 76.4158 49.9342 76.5747 49.817 76.6919C49.6998 76.8092 49.5409 76.875 49.3751 76.875ZM69.3751 76.875C69.2093 76.875 69.0504 76.8092 68.9332 76.6919C68.8159 76.5747 68.7501 76.4158 68.7501 76.25V72.01C68.7501 71.0325 68.1751 70.1387 67.2851 69.735L62.2338 67.4375C62.1247 67.3878 62.0321 67.3078 61.9671 67.207C61.9022 67.1061 61.8676 66.9887 61.8676 66.8687V65.42C61.8676 65.2542 61.9334 65.0953 62.0507 64.9781C62.1679 64.8608 62.3268 64.795 62.4926 64.795C62.6584 64.795 62.8173 64.8608 62.9345 64.9781C63.0517 65.0953 63.1176 65.2542 63.1176 65.42V66.465L67.8026 68.5975C68.4573 68.8961 69.0124 69.3764 69.4019 69.9814C69.7915 70.5863 69.9991 71.2905 70.0001 72.01V76.25C70.0001 76.4158 69.9342 76.5747 69.817 76.6919C69.6998 76.8092 69.5409 76.875 69.3751 76.875ZM70.0001 31.0188H57.5001C57.3343 31.0188 57.1754 30.9529 57.0582 30.8357C56.9409 30.7185 56.8751 30.5595 56.8751 30.3938C56.8751 30.228 56.9409 30.069 57.0582 29.9518C57.1754 29.8346 57.3343 29.7688 57.5001 29.7688H70.0001C70.1659 29.7688 70.3248 29.8346 70.442 29.9518C70.5592 30.069 70.6251 30.228 70.6251 30.3938C70.6251 30.5595 70.5592 30.7185 70.442 30.8357C70.3248 30.9529 70.1659 31.0188 70.0001 31.0188ZM65.0001 34.1438H57.5001C57.3343 34.1438 57.1754 34.0779 57.0582 33.9607C56.9409 33.8435 56.8751 33.6845 56.8751 33.5188C56.8751 33.353 56.9409 33.194 57.0582 33.0768C57.1754 32.9596 57.3343 32.8938 57.5001 32.8938H65.0001C65.1659 32.8938 65.3248 32.9596 65.442 33.0768C65.5592 33.194 65.6251 33.353 65.6251 33.5188C65.6251 33.6845 65.5592 33.8435 65.442 33.9607C65.3248 34.0779 65.1659 34.1438 65.0001 34.1438ZM17.5063 29.375C13.0263 29.375 9.38135 25.73 9.38135 21.25C9.38135 16.77 13.0263 13.125 17.5063 13.125C21.9863 13.125 25.6313 16.77 25.6313 21.25C25.6313 25.73 21.9863 29.375 17.5063 29.375ZM17.5063 14.375C13.7151 14.375 10.6313 17.46 10.6313 21.25C10.6313 25.04 13.7151 28.125 17.5063 28.125C21.2976 28.125 24.3813 25.04 24.3813 21.25C24.3813 17.46 21.2976 14.375 17.5063 14.375Z" fill="#263238"/>
<path d="M22.7063 16.9125L23.2651 16.4475C22.278 15.2645 20.9506 14.4142 19.4632 14.0122C17.9758 13.6102 16.4008 13.676 14.9521 14.2007C13.5035 14.7254 12.2516 15.6836 11.3667 16.9448C10.4818 18.2061 10.0068 19.7093 10.0063 21.25H10.7138C15.0963 21.25 19.3388 19.715 22.7063 16.9125Z" fill="#FFD740"/>
<path d="M10.7138 21.875H10.0063C9.84053 21.875 9.68156 21.8092 9.56435 21.6919C9.44714 21.5747 9.38129 21.4158 9.38129 21.25C9.38129 16.77 13.0263 13.125 17.5063 13.125C19.9213 13.125 22.195 14.1913 23.745 16.0475C23.8511 16.1748 23.9022 16.339 23.8872 16.5041C23.8722 16.6691 23.7923 16.8214 23.665 16.9275L23.1063 17.3925V17.3938C19.6244 20.287 15.2408 21.8721 10.7138 21.875ZM10.6588 20.625H10.7138C14.9413 20.625 19.0575 19.1363 22.3063 16.4325L22.3613 16.3863C21.7238 15.7483 20.9667 15.2424 20.1334 14.8975C19.3001 14.5526 18.4069 14.3755 17.505 14.3763C15.7906 14.378 14.1386 15.0195 12.8723 16.1753C11.606 17.3311 10.8167 18.9179 10.6588 20.625ZM5.00004 50C4.83428 50 4.67531 49.9342 4.5581 49.8169C4.44089 49.6997 4.37504 49.5408 4.37504 49.375V38.2388C4.37074 36.9607 4.72473 35.707 5.39685 34.62C6.06896 33.533 7.03229 32.656 8.17754 32.0887L13.465 29.4475C13.5385 29.4108 13.6185 29.389 13.7004 29.3832C13.7823 29.3774 13.8645 29.3878 13.9424 29.4138C14.0203 29.4398 14.0923 29.4809 14.1543 29.5347C14.2163 29.5885 14.2671 29.654 14.3038 29.7275C14.3405 29.801 14.3623 29.8809 14.3681 29.9628C14.3739 30.0447 14.3635 30.127 14.3375 30.2049C14.3115 30.2828 14.2704 30.3548 14.2166 30.4168C14.1628 30.4788 14.0972 30.5296 14.0238 30.5662L8.73629 33.2075C7.7992 33.6714 7.01094 34.3888 6.46099 35.2781C5.91104 36.1674 5.62143 37.1931 5.62504 38.2388V49.375C5.62504 49.5408 5.55919 49.6997 5.44198 49.8169C5.32477 49.9342 5.1658 50 5.00004 50Z" fill="#263238"/>
<path d="M10.0063 50C9.84059 50 9.68162 49.9342 9.56441 49.8169C9.4472 49.6997 9.38135 49.5408 9.38135 49.375V41.25C9.38135 41.0842 9.4472 40.9253 9.56441 40.8081C9.68162 40.6909 9.84059 40.625 10.0063 40.625C10.1721 40.625 10.3311 40.6909 10.4483 40.8081C10.5655 40.9253 10.6313 41.0842 10.6313 41.25V49.375C10.6313 49.5408 10.5655 49.6997 10.4483 49.8169C10.3311 49.9342 10.1721 50 10.0063 50ZM17.5001 36.21C17.3976 36.21 17.2967 36.1848 17.2062 36.1367C17.1158 36.0885 17.0385 36.0188 16.9813 35.9338L13.2263 30.355C13.1567 30.2521 13.1197 30.1305 13.1201 30.0063L13.1188 27.7313C13.1192 27.6217 13.1483 27.5141 13.2033 27.4194C13.2582 27.3246 13.3371 27.2459 13.432 27.1911C13.5269 27.1363 13.6345 27.1074 13.744 27.1072C13.8536 27.107 13.9613 27.1356 14.0563 27.19C15.1025 27.789 16.2866 28.1052 17.492 28.1076C18.6975 28.1101 19.8828 27.7985 20.9313 27.2038C21.0266 27.1496 21.1343 27.1214 21.2438 27.1218C21.3533 27.1223 21.4608 27.1514 21.5556 27.2062C21.6504 27.2611 21.7292 27.3398 21.7842 27.4345C21.8391 27.5293 21.8683 27.6367 21.8688 27.7463L21.8701 29.995C21.8702 30.1187 21.8337 30.2396 21.7651 30.3425L18.0201 35.9338C17.9626 36.0188 17.8852 36.0885 17.7945 36.1367C17.7039 36.1848 17.6028 36.21 17.5001 36.21ZM14.3713 29.8163L17.5001 34.4638L20.6213 29.8038L20.6201 28.75C18.6177 29.5752 16.3695 29.5711 14.3701 28.7388L14.3713 29.8163Z" fill="#263238"/>
<path d="M17.5 41.21C17.3342 41.21 17.1753 41.1442 17.0581 41.0269C16.9408 40.9097 16.875 40.7508 16.875 40.585V35.585C16.875 35.4193 16.9408 35.2603 17.0581 35.1431C17.1753 35.0259 17.3342 34.96 17.5 34.96C17.6658 34.96 17.8247 35.0259 17.9419 35.1431C18.0592 35.2603 18.125 35.4193 18.125 35.585V40.585C18.125 40.7508 18.0592 40.9097 17.9419 41.0269C17.8247 41.1442 17.6658 41.21 17.5 41.21ZM25.0062 50C24.8405 50 24.6815 49.9342 24.5643 49.817C24.4471 49.6997 24.3812 49.5408 24.3812 49.375L24.3837 37.7113C24.3835 37.5875 24.4201 37.4664 24.4887 37.3634C24.5574 37.2605 24.6551 37.1802 24.7694 37.1328C24.8838 37.0854 25.0096 37.073 25.131 37.0972C25.2524 37.1214 25.3638 37.1811 25.4513 37.2688L32.7213 44.5375C33.4287 45.245 34.6637 45.245 35.3725 44.5375L42.0013 37.9088L39.35 35.2575L34.4888 40.1188C34.3715 40.2359 34.2126 40.3018 34.0469 40.3018C33.8811 40.3018 33.7222 40.2359 33.605 40.1188L28.75 35.265C27.9118 34.4269 26.9528 33.7191 25.905 33.165L20.9538 30.5463C20.8071 30.4687 20.6972 30.336 20.6483 30.1774C20.5994 30.0188 20.6155 29.8473 20.6931 29.7006C20.7707 29.5539 20.9034 29.4441 21.062 29.3952C21.2205 29.3463 21.3921 29.3624 21.5388 29.44L26.49 32.0588C27.6477 32.6715 28.7074 33.4539 29.6338 34.38L34.0475 38.7925L38.9088 33.9313C39.026 33.8141 39.1849 33.7483 39.3506 33.7483C39.5164 33.7483 39.6753 33.8141 39.7925 33.9313L43.3275 37.4663C43.3857 37.5243 43.4319 37.5933 43.4634 37.6692C43.4949 37.7451 43.5111 37.8266 43.5111 37.9088C43.5111 37.991 43.4949 38.0724 43.4634 38.1483C43.4319 38.2242 43.3857 38.2932 43.3275 38.3513L36.2562 45.4213C35.0762 46.6025 33.0175 46.6025 31.8375 45.4213L25.6337 39.2188L25.6312 49.375C25.6312 49.5408 25.5654 49.6997 25.4482 49.817C25.331 49.9342 25.172 50 25.0062 50Z" fill="#263238"/>
<path d="M75 40.3937H44.6525C44.4867 40.3937 44.3278 40.3279 44.2106 40.2107C44.0933 40.0935 44.0275 39.9345 44.0275 39.7687C44.0275 39.603 44.0933 39.444 44.2106 39.3268C44.3278 39.2096 44.4867 39.1437 44.6525 39.1437H74.375V10.3937H36.875V33.9387C36.875 34.1045 36.8092 34.2635 36.6919 34.3807C36.5747 34.4979 36.4158 34.5637 36.25 34.5637C36.0842 34.5637 35.9253 34.4979 35.8081 34.3807C35.6908 34.2635 35.625 34.1045 35.625 33.9387V9.76874C35.625 9.60298 35.6908 9.44401 35.8081 9.3268C35.9253 9.20959 36.0842 9.14374 36.25 9.14374H75C75.1658 9.14374 75.3247 9.20959 75.4419 9.3268C75.5592 9.44401 75.625 9.60298 75.625 9.76874V39.7687C75.625 39.9345 75.5592 40.0935 75.4419 40.2107C75.3247 40.3279 75.1658 40.3937 75 40.3937Z" fill="#263238"/>
<path d="M44.6525 36.7675C44.529 36.7675 44.4082 36.7308 44.3055 36.6623C44.2028 36.5937 44.1227 36.4962 44.0754 36.3821C44.028 36.268 44.0155 36.1424 44.0395 36.0213C44.0635 35.9001 44.1228 35.7887 44.21 35.7013C44.5607 35.3489 44.7575 34.8721 44.7575 34.375C44.7575 33.8779 44.5607 33.4011 44.21 33.0487C43.8577 32.6981 43.3808 32.5012 42.8838 32.5012C42.3867 32.5012 41.9098 32.6981 41.5575 33.0487C41.4396 33.1626 41.2817 33.2256 41.1179 33.2242C40.954 33.2227 40.7972 33.157 40.6814 33.0411C40.5655 32.9253 40.4998 32.7685 40.4983 32.6046C40.4969 32.4408 40.5599 32.2829 40.6738 32.165C41.2603 31.5797 42.0551 31.251 42.8838 31.251C43.7124 31.251 44.5072 31.5797 45.0938 32.165C45.6791 32.7516 46.0078 33.5464 46.0078 34.375C46.0078 35.2036 45.6791 35.9984 45.0938 36.585C45.0358 36.643 44.967 36.6889 44.8913 36.7202C44.8156 36.7516 44.7344 36.7676 44.6525 36.7675ZM13.75 6.875H8.75C8.58424 6.875 8.42527 6.80915 8.30806 6.69194C8.19085 6.57473 8.125 6.41576 8.125 6.25C8.125 6.08424 8.19085 5.92527 8.30806 5.80806C8.42527 5.69085 8.58424 5.625 8.75 5.625H13.75C13.9158 5.625 14.0747 5.69085 14.1919 5.80806C14.3092 5.92527 14.375 6.08424 14.375 6.25C14.375 6.41576 14.3092 6.57473 14.1919 6.69194C14.0747 6.80915 13.9158 6.875 13.75 6.875Z" fill="#263238"/>
<path d="M11.25 9.375C11.0842 9.375 10.9253 9.30915 10.8081 9.19194C10.6908 9.07473 10.625 8.91576 10.625 8.75V3.75C10.625 3.58424 10.6908 3.42527 10.8081 3.30806C10.9253 3.19085 11.0842 3.125 11.25 3.125C11.4158 3.125 11.5747 3.19085 11.6919 3.30806C11.8092 3.42527 11.875 3.58424 11.875 3.75V8.75C11.875 8.91576 11.8092 9.07473 11.6919 9.19194C11.5747 9.30915 11.4158 9.375 11.25 9.375ZM7.5 13.75H2.5C2.33424 13.75 2.17527 13.6842 2.05806 13.5669C1.94085 13.4497 1.875 13.2908 1.875 13.125C1.875 12.9592 1.94085 12.8003 2.05806 12.6831C2.17527 12.5658 2.33424 12.5 2.5 12.5H7.5C7.66576 12.5 7.82473 12.5658 7.94194 12.6831C8.05915 12.8003 8.125 12.9592 8.125 13.125C8.125 13.2908 8.05915 13.4497 7.94194 13.5669C7.82473 13.6842 7.66576 13.75 7.5 13.75Z" fill="#263238"/>
<path d="M5 16.25C4.83424 16.25 4.67527 16.1842 4.55806 16.0669C4.44085 15.9497 4.375 15.7908 4.375 15.625V10.625C4.375 10.4592 4.44085 10.3003 4.55806 10.1831C4.67527 10.0658 4.83424 10 5 10C5.16576 10 5.32473 10.0658 5.44194 10.1831C5.55915 10.3003 5.625 10.4592 5.625 10.625V15.625C5.625 15.7908 5.55915 15.9497 5.44194 16.0669C5.32473 16.1842 5.16576 16.25 5 16.25ZM66.25 45.3937H53.75C53.5842 45.3937 53.4253 45.3279 53.3081 45.2107C53.1908 45.0935 53.125 44.9345 53.125 44.7687C53.125 44.603 53.1908 44.444 53.3081 44.3268C53.4253 44.2096 53.5842 44.1437 53.75 44.1437H66.25C66.4158 44.1437 66.5747 44.2096 66.6919 44.3268C66.8092 44.444 66.875 44.603 66.875 44.7687C66.875 44.9345 66.8092 45.0935 66.6919 45.2107C66.5747 45.3279 66.4158 45.3937 66.25 45.3937ZM70 45.3937H68.75C68.5842 45.3937 68.4253 45.3279 68.3081 45.2107C68.1908 45.0935 68.125 44.9345 68.125 44.7687C68.125 44.603 68.1908 44.444 68.3081 44.3268C68.4253 44.2096 68.5842 44.1437 68.75 44.1437H70C70.1658 44.1437 70.3247 44.2096 70.4419 44.3268C70.5592 44.444 70.625 44.603 70.625 44.7687C70.625 44.9345 70.5592 45.0935 70.4419 45.2107C70.3247 45.3279 70.1658 45.3937 70 45.3937ZM45 26.0188H41.25C41.0842 26.0188 40.9253 25.9529 40.8081 25.8357C40.6908 25.7185 40.625 25.5595 40.625 25.3938V19.1437C40.625 18.978 40.6908 18.819 40.8081 18.7018C40.9253 18.5846 41.0842 18.5187 41.25 18.5187H45C45.1658 18.5187 45.3247 18.5846 45.4419 18.7018C45.5592 18.819 45.625 18.978 45.625 19.1437V25.3938C45.625 25.74 45.3462 26.0188 45 26.0188ZM41.875 24.7688H44.375V19.7687H41.875V24.7688ZM52.5 26.0188H48.75C48.5842 26.0188 48.4253 25.9529 48.3081 25.8357C48.1908 25.7185 48.125 25.5595 48.125 25.3938V17.2687C48.125 17.103 48.1908 16.944 48.3081 16.8268C48.4253 16.7096 48.5842 16.6437 48.75 16.6437H52.5C52.6658 16.6437 52.8247 16.7096 52.9419 16.8268C53.0592 16.944 53.125 17.103 53.125 17.2687V25.3938C53.125 25.74 52.8462 26.0188 52.5 26.0188ZM49.375 24.7688H51.875V17.8937H49.375V24.7688Z" fill="#263238"/>
<path d="M45 14.1437H48.75V25.3937H45V14.1437Z" fill="#FF5252"/>
<path d="M48.75 26.0187H45C44.8342 26.0187 44.6753 25.9529 44.5581 25.8357C44.4408 25.7185 44.375 25.5595 44.375 25.3937V14.1437C44.375 13.978 44.4408 13.819 44.5581 13.7018C44.6753 13.5846 44.8342 13.5187 45 13.5187H48.75C48.9158 13.5187 49.0747 13.5846 49.1919 13.7018C49.3092 13.819 49.375 13.978 49.375 14.1437V25.3937C49.375 25.74 49.0963 26.0187 48.75 26.0187ZM45.625 24.7687H48.125V14.7687H45.625V24.7687Z" fill="#263238"/>
<path d="M57.5 15.3937H70V25.3937H57.5V15.3937Z" fill="#4DB6AC"/>
<path d="M70 26.0187H57.5C57.3342 26.0187 57.1753 25.9529 57.0581 25.8357C56.9408 25.7185 56.875 25.5595 56.875 25.3937V15.3937C56.875 15.228 56.9408 15.069 57.0581 14.9518C57.1753 14.8346 57.3342 14.7687 57.5 14.7687H70C70.1658 14.7687 70.3247 14.8346 70.4419 14.9518C70.5592 15.069 70.625 15.228 70.625 15.3937V25.3937C70.625 25.5595 70.5592 25.7185 70.4419 25.8357C70.3247 25.9529 70.1658 26.0187 70 26.0187ZM58.125 24.7687H69.375V16.0187H58.125V24.7687Z" fill="#263238"/>
<path d="M33.75 6.01874H77.5V9.76874H33.75V6.01874Z" fill="#40C4FF"/>
<path d="M77.5 10.3937H33.75C33.5842 10.3937 33.4253 10.3279 33.3081 10.2107C33.1908 10.0935 33.125 9.9345 33.125 9.76874V6.01874C33.125 5.85298 33.1908 5.69401 33.3081 5.5768C33.4253 5.45959 33.5842 5.39374 33.75 5.39374H77.5C77.6658 5.39374 77.8247 5.45959 77.9419 5.5768C78.0592 5.69401 78.125 5.85298 78.125 6.01874V9.76874C78.125 9.9345 78.0592 10.0935 77.9419 10.2107C77.8247 10.3279 77.6658 10.3937 77.5 10.3937ZM34.375 9.14374H76.875V6.64374H34.375V9.14374Z" fill="#263238"/>
<path d="M59.6874 22.2687C59.558 22.2684 59.4319 22.2279 59.3264 22.1529C59.2209 22.078 59.1413 21.9721 59.0984 21.8501C59.0555 21.728 59.0515 21.5956 59.0869 21.4711C59.1223 21.3467 59.1954 21.2362 59.2961 21.155L62.4211 18.655C62.4863 18.6023 62.5615 18.5633 62.6422 18.5405C62.7228 18.5176 62.8073 18.5113 62.8904 18.5219C62.9736 18.5325 63.0537 18.5599 63.126 18.6023C63.1983 18.6447 63.2613 18.7013 63.3111 18.7687L64.7986 20.7525L67.4199 18.655C67.5502 18.5626 67.711 18.5236 67.8692 18.5458C68.0274 18.568 68.1711 18.6499 68.2709 18.7747C68.3708 18.8994 68.4191 19.0576 68.4062 19.2168C68.3932 19.3761 68.3198 19.5243 68.2011 19.6312L65.0761 22.1312C65.0112 22.1842 64.9361 22.2232 64.8555 22.2458C64.7748 22.2683 64.6903 22.274 64.6074 22.2625C64.5244 22.2516 64.4445 22.2243 64.3722 22.1823C64.2999 22.1402 64.2366 22.0842 64.1861 22.0175L62.6986 20.0337L60.0774 22.1312C59.967 22.2204 59.8293 22.2689 59.6874 22.2687Z" fill="#263238"/>
</svg>
