<svg width="80" height="80" viewBox="0 0 80 80" fill="none" xmlns="http://www.w3.org/2000/svg">
<path d="M46.6669 56.6667C45.9197 57.6653 44.9578 58.4834 43.8523 59.0607C42.7468 59.638 41.5258 59.9599 40.2794 60.0025C39.0329 60.0451 37.7928 59.8074 36.6505 59.3069C35.5081 58.8064 34.4927 58.0558 33.679 57.1106C32.8654 56.1654 32.2743 55.0496 31.9493 53.8455C31.6243 52.6414 31.5737 51.3797 31.8013 50.1535C32.0288 48.9273 32.5287 47.7677 33.2641 46.7604C33.9995 45.7531 34.9516 44.9237 36.0502 44.3334C43.7002 40 52.0335 49.5167 46.6669 56.6667Z" fill="#F6CCAF"/>
<path d="M47.3335 55.6167C40.2168 59.7167 31.9168 51.5 36.0502 44.3333C37.6275 43.4868 39.4356 43.1708 41.2066 43.432C42.9776 43.6932 44.6174 44.5177 45.8833 45.7836C47.1491 47.0494 47.9737 48.6892 48.2349 50.4602C48.4961 52.2312 48.18 54.0393 47.3335 55.6167Z" fill="#FFDEC7"/>
<path d="M35.7001 60.5167C33.129 61.1359 30.7224 62.3041 28.6453 63.941C26.5682 65.578 24.8698 67.6449 23.6667 70H1.66675C1.66675 51.5167 26.0834 44.6667 35.7001 60.5167Z" fill="#DB5669"/>
<path d="M28.3334 43.3333C28.3339 44.8052 27.9446 46.2509 27.2051 47.5235C26.4656 48.796 25.4022 49.85 24.1231 50.5782C22.844 51.3064 21.3949 51.6829 19.9231 51.6693C18.4514 51.6557 17.0094 51.2526 15.744 50.5008C14.4786 49.7491 13.4349 48.6757 12.719 47.3897C12.0031 46.1037 11.6405 44.651 11.6682 43.1794C11.6959 41.7079 12.1129 40.2699 12.8767 39.0117C13.6405 37.7536 14.7239 36.7202 16.0167 36.0167C17.2857 35.3261 18.7125 34.9773 20.157 35.0045C21.6014 35.0317 23.014 35.4339 24.2561 36.1718C25.4982 36.9097 26.5272 37.9578 27.242 39.2133C27.9568 40.4688 28.3329 41.8886 28.3334 43.3333Z" fill="#F6CCAF"/>
<path d="M27.3167 47.3167C25.7373 48.1743 23.923 48.4984 22.1444 48.2406C20.3658 47.9828 18.7182 47.1568 17.4474 45.886C16.1766 44.6152 15.3506 42.9676 15.0928 41.189C14.835 39.4104 15.1591 37.5961 16.0167 36.0167C17.5961 35.1591 19.4104 34.835 21.189 35.0928C22.9676 35.3506 24.6152 36.1766 25.886 37.4474C27.1568 38.7182 27.9828 40.3658 28.2406 42.1444C28.4984 43.923 28.1743 45.7373 27.3167 47.3167Z" fill="#FFDEC7"/>
<path d="M78.3334 70H56.3334C55.1303 67.6449 53.4319 65.578 51.3548 63.9411C49.2778 62.3041 46.8711 61.136 44.3 60.5167C53.9167 44.6834 78.3334 51.5 78.3334 70Z" fill="#DB5669"/>
<path d="M33.55 57.65C28.6706 59.1502 24.4902 62.3491 21.7667 66.6667H12.2333C11.2429 66.6844 10.2645 66.4467 9.39264 65.9764C8.52075 65.5061 7.78471 64.8192 7.25547 63.9818C6.72623 63.1444 6.42163 62.1847 6.37105 61.1954C6.32047 60.2061 6.5256 59.2204 6.96667 58.3334C7.49094 57.3123 8.11629 56.3463 8.83334 55.45C12.4792 52.6521 17.0428 51.3254 21.6204 51.7329C26.1981 52.1403 30.4557 54.2521 33.55 57.65ZM78.0333 66.6667H58.3333C55.7349 62.5939 51.8433 59.5123 47.2833 57.9167C47.7716 57.051 48.329 56.2261 48.95 55.45C51.4389 53.5653 54.3678 52.3474 57.4592 51.9117C60.5506 51.476 63.7021 51.8369 66.6149 52.9603C69.5277 54.0837 72.1054 55.9324 74.1037 58.331C76.1019 60.7297 77.4546 63.5989 78.0333 66.6667Z" fill="#F26674"/>
<path d="M68.3334 43.3333C68.3339 44.8052 67.9446 46.2509 67.2051 47.5235C66.4656 48.796 65.4022 49.85 64.1231 50.5782C62.844 51.3064 61.3949 51.6829 59.9231 51.6693C58.4514 51.6557 57.0094 51.2526 55.744 50.5008C54.4786 49.7491 53.4349 48.6757 52.719 47.3897C52.0031 46.1037 51.6405 44.651 51.6682 43.1794C51.6959 41.7079 52.1129 40.2699 52.8767 39.0117C53.6405 37.7536 54.7239 36.7202 56.0167 36.0167C57.2857 35.3261 58.7125 34.9773 60.157 35.0045C61.6014 35.0317 63.014 35.4339 64.2561 36.1718C65.4982 36.9097 66.5272 37.9578 67.242 39.2133C67.9568 40.4688 68.3329 41.8886 68.3334 43.3333Z" fill="#F6CCAF"/>
<path d="M67.3167 47.3167C65.7373 48.1743 63.923 48.4984 62.1444 48.2406C60.3658 47.9828 58.7182 47.1568 57.4474 45.886C56.1766 44.6152 55.3506 42.9676 55.0928 41.189C54.835 39.4104 55.1591 37.5961 56.0167 36.0167C57.5961 35.1591 59.4104 34.835 61.189 35.0928C62.9676 35.3506 64.6152 36.1766 65.886 37.4474C67.1568 38.7182 67.9828 40.3658 68.2406 42.1444C68.4984 43.923 68.1743 45.7373 67.3167 47.3167Z" fill="#FFDEC7"/>
<path d="M58.3335 78.3333H21.6668C21.6606 75.4359 22.3463 72.579 23.6668 70C32.4835 52.8333 58.3335 59.2167 58.3335 78.3333Z" fill="#6FABE6"/>
<path d="M58.0333 75H32.2333C31.2429 75.0177 30.2645 74.78 29.3926 74.3097C28.5208 73.8395 27.7847 73.1525 27.2555 72.3151C26.7262 71.4777 26.4216 70.5181 26.371 69.5287C26.3205 68.5394 26.5256 67.5537 26.9667 66.6667C27.4848 65.616 28.1104 64.6218 28.8333 63.7C31.3285 61.7865 34.2739 60.5469 37.3864 60.1004C40.499 59.6538 43.6741 60.0153 46.6066 61.1502C49.5391 62.285 52.1304 64.155 54.1315 66.5805C56.1326 69.0059 57.4763 71.9053 58.0333 75Z" fill="#82BCF4"/>
<path d="M71.6668 8.33335V18.3334C71.6668 20.1015 70.9644 21.7972 69.7142 23.0474C68.464 24.2976 66.7683 25 65.0002 25H48.4502C47.9026 25.001 47.3638 25.1369 46.8813 25.3956C46.3987 25.6543 45.9874 26.0279 45.6835 26.4834L42.7668 30.8334C42.4619 31.2871 42.0501 31.6589 41.5676 31.916C41.0851 32.173 40.5468 32.3075 40.0002 32.3075C39.4535 32.3075 38.9152 32.173 38.4327 31.916C37.9503 31.6589 37.5384 31.2871 37.2335 30.8334C34.5002 26.7667 33.9002 25 31.5502 25H15.0002C13.2321 25 11.5364 24.2976 10.2861 23.0474C9.03587 21.7972 8.3335 20.1015 8.3335 18.3334V8.33335C8.3335 6.56524 9.03587 4.86955 10.2861 3.61931C11.5364 2.36907 13.2321 1.66669 15.0002 1.66669H65.0002C66.7683 1.66669 68.464 2.36907 69.7142 3.61931C70.9644 4.86955 71.6668 6.56524 71.6668 8.33335Z" fill="#EDEBF2"/>
<path d="M42.2335 27.5C41.0314 25.7074 39.407 24.2378 37.5033 23.2206C35.5997 22.2034 33.4752 21.6697 31.3168 21.6667H20.0002C18.2321 21.6667 16.5364 20.9643 15.2861 19.714C14.0359 18.4638 13.3335 16.7681 13.3335 15C13.3335 4.31667 13.0502 3.81667 14.2168 1.75C12.602 1.94104 11.1127 2.71568 10.0292 3.92814C8.94561 5.1406 8.34256 6.70728 8.3335 8.33333V18.3333C8.3335 20.1014 9.03587 21.7971 10.2861 23.0474C11.5364 24.2976 13.2321 25 15.0002 25H31.5502C32.0977 25.001 32.6365 25.1369 33.119 25.3956C33.6016 25.6543 34.013 26.0279 34.3168 26.4833L37.2335 30.8333C37.5384 31.2871 37.9503 31.6589 38.4327 31.9159C38.9152 32.173 39.4535 32.3075 40.0002 32.3075C40.5468 32.3075 41.0851 32.173 41.5676 31.9159C42.0501 31.6589 42.4619 31.2871 42.7668 30.8333C45.0002 27.4167 43.8168 29.9 42.2335 27.5Z" fill="#DAD7E5"/>
<path d="M45.0002 10H42.3168L41.6668 7.8C41.5572 7.46655 41.3452 7.17622 41.0608 6.97039C40.7765 6.76456 40.4345 6.65375 40.0835 6.65375C39.7325 6.65375 39.3905 6.76456 39.1062 6.97039C38.8218 7.17622 38.6098 7.46655 38.5002 7.8L37.6835 10H35.0002C34.6558 10.002 34.3206 10.1106 34.0404 10.3108C33.7603 10.5111 33.5491 10.7932 33.4358 11.1184C33.3226 11.4436 33.3128 11.7959 33.4079 12.1268C33.503 12.4578 33.6982 12.7512 33.9668 12.9667L36.1168 14.6333L35.0835 17.7333C34.9898 17.9715 34.9522 18.2281 34.9736 18.4832C34.9951 18.7382 35.075 18.9849 35.2071 19.2041C35.3393 19.4233 35.5202 19.6091 35.7358 19.7472C35.9513 19.8852 36.1958 19.9717 36.4502 20C37.4335 20.1333 37.8168 19.6 40.0002 17.85C42.3168 19.7 42.8168 20.3667 43.9502 19.9167C45.8668 19.1333 44.5835 16.85 43.9502 14.75L46.1002 13.0833C46.4341 12.8867 46.6891 12.5798 46.8213 12.2155C46.9534 11.8511 46.9545 11.4521 46.8243 11.0871C46.694 10.7221 46.4407 10.4139 46.1078 10.2155C45.7748 10.017 45.3832 9.94086 45.0002 10ZM26.6668 10H23.9835L23.3335 7.8C23.2239 7.46655 23.0118 7.17622 22.7275 6.97039C22.4432 6.76456 22.1012 6.65375 21.7502 6.65375C21.3992 6.65375 21.0571 6.76456 20.7728 6.97039C20.4885 7.17622 20.2764 7.46655 20.1668 7.8L19.3502 10H16.6668C16.3225 10.002 15.9872 10.1106 15.7071 10.3108C15.427 10.5111 15.2158 10.7932 15.1025 11.1184C14.9892 11.4436 14.9795 11.7959 15.0746 12.1268C15.1696 12.4578 15.3649 12.7512 15.6335 12.9667L17.7835 14.6333L16.7502 17.7333C16.6565 17.9715 16.6189 18.2281 16.6403 18.4832C16.6617 18.7382 16.7416 18.9849 16.8738 19.2041C17.006 19.4233 17.1869 19.6091 17.4024 19.7472C17.618 19.8852 17.8624 19.9717 18.1168 20C19.0835 20.1333 19.4335 19.65 21.6668 17.85C23.9835 19.7 24.4835 20.3667 25.6168 19.9167C27.5335 19.1333 26.2502 16.85 25.6168 14.75L27.7668 13.0833C28.1008 12.8867 28.3558 12.5798 28.4879 12.2155C28.6201 11.8511 28.6212 11.4521 28.4909 11.0871C28.3607 10.7221 28.1073 10.4139 27.7744 10.2155C27.4415 10.017 27.0499 9.94086 26.6668 10ZM64.9002 11.1167C64.4168 9.75 63.3335 10 60.6502 10C60.1002 8.33333 59.9002 6.66666 58.3335 6.66666C56.7668 6.66666 56.8168 7.61666 56.0168 10C53.7335 10 52.2668 9.66666 51.7668 11.1167C51.2668 12.5667 52.3835 13.0333 54.4502 14.7C53.1335 18.6333 53.4668 17.6833 53.4002 18.0333C53.3572 18.2537 53.3591 18.4806 53.406 18.7002C53.4528 18.9198 53.5436 19.1278 53.6728 19.3114C53.802 19.4951 53.967 19.6508 54.1578 19.7691C54.3487 19.8874 54.5615 19.966 54.7835 20C55.7835 20.1333 56.0668 19.6667 58.3335 17.85C60.3668 19.5167 60.8835 20.0333 61.6668 20.05C62.0045 20.0477 62.3336 19.9429 62.6104 19.7494C62.8871 19.556 63.0986 19.283 63.2168 18.9667C63.5168 18.2 63.2168 17.8667 62.2335 14.75L64.3835 13.0833C64.6746 12.8585 64.883 12.5436 64.9765 12.1879C65.07 11.8322 65.0431 11.4555 64.9002 11.1167Z" fill="#FFCC66"/>
<path d="M51.6668 75V78.3334H48.3335V75C48.3335 74.558 48.5091 74.1341 48.8217 73.8215C49.1342 73.509 49.5581 73.3334 50.0002 73.3334C50.4422 73.3334 50.8661 73.509 51.1787 73.8215C51.4912 74.1341 51.6668 74.558 51.6668 75ZM31.6668 75V78.3334H28.3335V75C28.3335 74.558 28.5091 74.1341 28.8217 73.8215C29.1342 73.509 29.5581 73.3334 30.0002 73.3334C30.4422 73.3334 30.8661 73.509 31.1787 73.8215C31.4912 74.1341 31.6668 74.558 31.6668 75Z" fill="#5B9AD8"/>
<path d="M11.6668 66.6667V70H8.3335V66.6667C8.3335 66.2246 8.50909 65.8007 8.82165 65.4882C9.13421 65.1756 9.55814 65 10.0002 65C10.4422 65 10.8661 65.1756 11.1787 65.4882C11.4912 65.8007 11.6668 66.2246 11.6668 66.6667ZM71.6668 66.6667V70H68.3335V66.6667C68.3335 66.2246 68.5091 65.8007 68.8216 65.4882C69.1342 65.1756 69.5581 65 70.0002 65C70.4422 65 70.8661 65.1756 71.1787 65.4882C71.4912 65.8007 71.6668 66.2246 71.6668 66.6667Z" fill="#C4455E"/>
</svg>
