<svg width="80" height="80" viewBox="0 0 80 80" fill="none" xmlns="http://www.w3.org/2000/svg">
<path d="M77.5 6.25V58.125C77.5 60.1959 75.8209 61.875 73.75 61.875H6.25C4.17906 61.875 2.5 60.1959 2.5 58.125V6.25C2.5 4.17906 4.17906 2.5 6.25 2.5H73.75C75.8209 2.5 77.5 4.17906 77.5 6.25Z" fill="#A4C9FF"/>
<path d="M67.6393 58.6656H9.44369C8.95578 58.6656 8.48784 58.4718 8.14284 58.1268C7.79783 57.7818 7.604 57.3138 7.604 56.8259V7.54904C7.604 7.06112 7.79783 6.59319 8.14284 6.24818C8.48784 5.90317 8.95578 5.70935 9.44369 5.70935H67.6393C68.1272 5.70935 68.5952 5.90317 68.9402 6.24818C69.2852 6.59319 69.479 7.06112 69.479 7.54904V56.8256C69.479 57.0672 69.4315 57.3065 69.3391 57.5297C69.2466 57.753 69.1111 57.9558 68.9403 58.1267C68.7694 58.2975 68.5666 58.4331 68.3434 58.5255C68.1202 58.618 67.8809 58.6656 67.6393 58.6656Z" fill="#6BDDDD"/>
<path d="M73.75 62.5H6.25C3.8375 62.5 1.875 60.5375 1.875 58.125V6.25C1.875 3.8375 3.8375 1.875 6.25 1.875H73.75C76.1625 1.875 78.125 3.8375 78.125 6.25V58.125C78.125 60.5375 76.1625 62.5 73.75 62.5ZM6.25 3.125C4.52688 3.125 3.125 4.52688 3.125 6.25V58.125C3.125 59.8481 4.52688 61.25 6.25 61.25H73.75C75.4731 61.25 76.875 59.8481 76.875 58.125V6.25C76.875 4.52688 75.4731 3.125 73.75 3.125H6.25Z" fill="#3762CC"/>
<path d="M67.6393 59.2903H9.444C8.08463 59.2903 6.979 58.1847 6.979 56.8256V7.54904C6.979 6.18998 8.08463 5.08435 9.444 5.08435H67.6396C68.9987 5.08435 70.1043 6.18998 70.1043 7.54904V56.8259C70.104 58.1847 68.9984 59.2903 67.6393 59.2903ZM9.444 6.33466C9.1219 6.33491 8.81305 6.46296 8.58525 6.69069C8.35746 6.91843 8.22933 7.22724 8.229 7.54935V56.8262C8.22933 57.1483 8.35746 57.4571 8.58525 57.6849C8.81305 57.9126 9.1219 58.0407 9.444 58.0409H67.6396C67.9617 58.0407 68.2705 57.9126 68.4983 57.6849C68.726 57.4571 68.8541 57.1483 68.8543 56.8262V7.54904C68.8541 7.22696 68.726 6.91814 68.4983 6.6904C68.2705 6.46265 67.9617 6.3346 67.6396 6.33435L9.444 6.33466Z" fill="#3762CC"/>
<path d="M73.4375 34.4344C74.6785 34.4344 75.6844 33.4284 75.6844 32.1875C75.6844 30.9466 74.6785 29.9406 73.4375 29.9406C72.1966 29.9406 71.1907 30.9466 71.1907 32.1875C71.1907 33.4284 72.1966 34.4344 73.4375 34.4344Z" fill="#E0EBFC"/>
<path d="M5 33.5712C5.77665 33.5712 6.40625 32.9416 6.40625 32.165C6.40625 31.3883 5.77665 30.7587 5 30.7587C4.22335 30.7587 3.59375 31.3883 3.59375 32.165C3.59375 32.9416 4.22335 33.5712 5 33.5712Z" fill="#E0EBFC"/>
<path d="M73.4375 35.059C71.854 35.059 70.5659 33.7709 70.5659 32.1875C70.5659 30.604 71.854 29.3159 73.4375 29.3159C75.0209 29.3159 76.309 30.604 76.309 32.1875C76.309 33.7709 75.0209 35.059 73.4375 35.059ZM73.4375 30.5659C72.5434 30.5659 71.8159 31.2934 71.8159 32.1875C71.8159 33.0815 72.5434 33.809 73.4375 33.809C74.3315 33.809 75.059 33.0815 75.059 32.1875C75.059 31.2934 74.3315 30.5659 73.4375 30.5659Z" fill="#3762CC"/>
<path d="M39.9999 43.6387C47.3242 43.6387 53.2618 37.7012 53.2618 30.3769C53.2618 23.0525 47.3242 17.115 39.9999 17.115C32.6756 17.115 26.738 23.0525 26.738 30.3769C26.738 37.7012 32.6756 43.6387 39.9999 43.6387Z" fill="#E0EBFC"/>
<path d="M34.3179 23.4609V36.4203C34.3179 37.3709 35.3372 37.9738 36.1704 37.5156L47.9516 31.0359C48.8151 30.5609 48.8151 29.3203 47.9516 28.8453L36.1704 22.3656C35.3372 21.9075 34.3179 22.5103 34.3179 23.4609Z" fill="#F9A7A7"/>
<path d="M61.784 55.0482V45.8647C61.784 45.2236 61.5293 44.6087 61.0759 44.1553C60.6226 43.7019 60.0077 43.4472 59.3665 43.4472H58.2162C57.5751 43.4473 56.9602 43.702 56.5069 44.1554C56.0535 44.6087 55.7988 45.2236 55.7987 45.8647C55.7987 45.2236 55.544 44.6087 55.0906 44.1553C54.6373 43.7019 54.0224 43.4472 53.3812 43.4472H52.2309C51.5898 43.4473 50.9749 43.702 50.5215 44.1554C50.0682 44.6087 49.8135 45.2236 49.8134 45.8647C49.8134 45.2236 49.5587 44.6087 49.1053 44.1553C48.6519 43.7019 48.0371 43.4472 47.3959 43.4472H46.2456C45.6044 43.4473 44.9896 43.702 44.5362 44.1554C44.0829 44.6087 43.8282 45.2236 43.8281 45.8647V31.2322C43.8287 30.7581 43.7126 30.2911 43.49 29.8725C43.2674 29.4539 42.9452 29.0965 42.5518 28.8319C42.0738 28.5089 41.51 28.3367 40.9331 28.3375H40.7375C40.4378 28.3375 40.1487 28.3832 39.8765 28.4678C39.287 28.6517 38.7717 29.019 38.4058 29.5164C38.0399 30.0138 37.8425 30.6151 37.8425 31.2325V50.3416C37.8425 50.6285 37.7575 50.9091 37.5981 51.1478L36.1856 53.2638C35.8434 53.7762 35.6609 54.3786 35.6609 54.9947V60.9663C35.6609 61.5932 35.8403 62.1832 36.2328 62.755L36.2303 62.76C36.8831 63.6335 39.1437 66.7703 39.0915 66.6982C39.5463 67.3271 40.0799 67.8951 40.6793 68.3881C41.3065 68.9272 41.7343 69.2385 41.7343 70.1272V77.5007H57.8903V70.1272C57.8903 68.5441 59.2206 68.8353 60.6865 66.3028C62.0665 63.9207 61.784 62.5935 61.784 55.0482Z" fill="#F9CFCF"/>
<path d="M57.8918 78.125H41.7359C41.5701 78.125 41.4111 78.0591 41.2939 77.9419C41.1767 77.8247 41.1109 77.6657 41.1109 77.5V70.1265C41.1109 69.6 40.9477 69.4372 40.3809 68.9534L40.2734 68.8612C39.6367 68.3366 39.0697 67.7327 38.5865 67.064L38.5824 67.0584C38.5002 66.9444 36.3637 63.9797 35.7312 63.1331C35.7092 63.1037 35.6897 63.0724 35.673 63.0397C35.2509 62.399 35.0371 61.7015 35.0371 60.965V54.9937C35.0371 54.2519 35.2549 53.5331 35.6668 52.9159L37.0796 50.8C37.1705 50.6637 37.2184 50.5053 37.2184 50.3409V31.2319C37.2184 29.6815 38.2124 28.3306 39.6918 27.8703C40.0307 27.7651 40.3835 27.7118 40.7384 27.7122H40.934C41.6356 27.7107 42.3215 27.9203 42.9024 28.3137C43.3808 28.6353 43.7726 29.0698 44.0432 29.5787C44.3138 30.0877 44.4549 30.6554 44.454 31.2319V43.4075C44.9738 43.0265 45.6017 42.8215 46.2462 42.8222H47.3965C47.8644 42.8222 48.326 42.9302 48.7453 43.1379C49.1646 43.3455 49.5304 43.6472 49.814 44.0194C50.0975 43.6472 50.4632 43.3455 50.8825 43.1379C51.3017 42.9302 51.7633 42.8222 52.2312 42.8222H53.3818C53.8497 42.8222 54.3112 42.9302 54.7305 43.1379C55.1498 43.3455 55.5154 43.6472 55.799 44.0194C56.0826 43.6472 56.4483 43.3455 56.8676 43.1379C57.287 42.9302 57.7486 42.8222 58.2165 42.8222H59.3668C61.0443 42.8222 62.409 44.1872 62.409 45.8647V55.0478C62.409 56.2812 62.4165 57.3484 62.423 58.2812C62.4577 63.1637 62.4671 64.4759 61.2293 66.6153C60.4805 67.9081 59.7571 68.5247 59.2287 68.9753C58.6965 69.4287 58.5171 69.5815 58.5171 70.1265V77.5C58.5169 77.6657 58.451 77.8247 58.3338 77.9418C58.2165 78.059 58.0576 78.1249 57.8918 78.125ZM42.3609 76.875H57.2668V70.1265C57.2668 69.0047 57.8259 68.5284 58.4177 68.0237C58.903 67.6106 59.5065 67.0956 60.1474 65.989C61.2149 64.1447 61.2068 63.0206 61.1734 58.29C61.1668 57.355 61.159 56.285 61.159 55.0478V45.8647C61.1585 45.3895 60.9695 44.9339 60.6335 44.5978C60.2975 44.2618 59.842 44.0727 59.3668 44.0722H58.2165C57.7412 44.0727 57.2856 44.2617 56.9495 44.5977C56.6135 44.9338 56.4245 45.3894 56.424 45.8647C56.424 46.0304 56.3581 46.1894 56.2409 46.3066C56.1237 46.4238 55.9647 46.4897 55.799 46.4897C55.6332 46.4897 55.4743 46.4238 55.357 46.3066C55.2398 46.1894 55.174 46.0304 55.174 45.8647C55.1735 45.3895 54.9845 44.9339 54.6485 44.5978C54.3126 44.2618 53.857 44.0727 53.3818 44.0722H52.2312C51.756 44.0727 51.3004 44.2618 50.9644 44.5978C50.6284 44.9339 50.4395 45.3895 50.439 45.8647C50.439 46.0304 50.3731 46.1894 50.2559 46.3066C50.1387 46.4238 49.9797 46.4897 49.814 46.4897C49.6482 46.4897 49.4893 46.4238 49.372 46.3066C49.2548 46.1894 49.189 46.0304 49.189 45.8647C49.1885 45.3894 48.9995 44.9338 48.6634 44.5977C48.3274 44.2617 47.8717 44.0727 47.3965 44.0722H46.2462C45.771 44.0727 45.3154 44.2618 44.9794 44.5978C44.6434 44.9339 44.4545 45.3895 44.454 45.8647C44.454 46.0304 44.3881 46.1894 44.2709 46.3066C44.1537 46.4238 43.9947 46.4897 43.829 46.4897C43.6632 46.4897 43.5043 46.4238 43.387 46.3066C43.2698 46.1894 43.204 46.0304 43.204 45.8647V31.2322C43.2045 30.8604 43.1135 30.4942 42.9389 30.1659C42.7643 29.8376 42.5116 29.5574 42.203 29.35C41.8284 29.0966 41.3863 28.9616 40.934 28.9625H40.7384C40.5077 28.9625 40.2802 28.9965 40.063 29.0644C39.5999 29.2069 39.1948 29.4945 38.9077 29.8849C38.6205 30.2752 38.4665 30.7476 38.4684 31.2322V50.3412C38.4688 50.7516 38.3471 51.1529 38.119 51.494L36.7065 53.61C36.4326 54.0196 36.2866 54.5013 36.2871 54.994V60.9656C36.2871 61.4781 36.438 61.9475 36.7493 62.4006C36.7593 62.4156 36.769 62.4312 36.778 62.4465C38.5037 64.7556 39.2571 65.7644 39.5549 66.2772C39.5702 66.294 39.5849 66.3119 39.599 66.3312C40.0227 66.9167 40.5195 67.4456 41.0774 67.905L41.1918 68.0028C41.793 68.5159 42.3605 69.0003 42.3605 70.1269L42.3609 76.875Z" fill="#3762CC"/>
<path d="M37.8435 57.0787C37.6777 57.0787 37.5188 57.0129 37.4016 56.8957C37.2844 56.7785 37.2185 56.6195 37.2185 56.4537V50.3409C37.2185 50.1752 37.2844 50.0162 37.4016 49.899C37.5188 49.7818 37.6777 49.7159 37.8435 49.7159C38.0093 49.7159 38.1682 49.7818 38.2854 49.899C38.4027 50.0162 38.4685 50.1752 38.4685 50.3409V56.4537C38.4685 56.6195 38.4027 56.7785 38.2854 56.8957C38.1682 57.0129 38.0093 57.0787 37.8435 57.0787ZM43.8288 51.0772C43.6631 51.0772 43.5041 51.0113 43.3869 50.8941C43.2697 50.7769 43.2038 50.6179 43.2038 50.4522V45.865C43.2038 45.6992 43.2697 45.5403 43.3869 45.423C43.5041 45.3058 43.6631 45.24 43.8288 45.24C43.9946 45.24 44.1536 45.3058 44.2708 45.423C44.388 45.5403 44.4538 45.6992 44.4538 45.865V50.4522C44.4538 50.6179 44.388 50.7769 44.2708 50.8941C44.1536 51.0113 43.9946 51.0772 43.8288 51.0772ZM49.8138 51.0772C49.6481 51.0772 49.4891 51.0113 49.3719 50.8941C49.2547 50.7769 49.1888 50.6179 49.1888 50.4522V45.865C49.1888 45.6992 49.2547 45.5403 49.3719 45.423C49.4891 45.3058 49.6481 45.24 49.8138 45.24C49.9796 45.24 50.1385 45.3058 50.2558 45.423C50.373 45.5403 50.4388 45.6992 50.4388 45.865V50.4522C50.4388 50.6179 50.373 50.7769 50.2558 50.8941C50.1385 51.0113 49.9796 51.0772 49.8138 51.0772ZM55.7991 51.0772C55.6334 51.0772 55.4744 51.0113 55.3572 50.8941C55.24 50.7769 55.1741 50.6179 55.1741 50.4522V45.865C55.1741 45.6992 55.24 45.5403 55.3572 45.423C55.4744 45.3058 55.6334 45.24 55.7991 45.24C55.9649 45.24 56.1239 45.3058 56.2411 45.423C56.3583 45.5403 56.4241 45.6992 56.4241 45.865V50.4522C56.4241 50.6179 56.3583 50.7769 56.2411 50.8941C56.1239 51.0113 55.9649 51.0772 55.7991 51.0772Z" fill="#3762CC"/>
</svg>
