<svg width="80" height="80" viewBox="0 0 80 80" fill="none" xmlns="http://www.w3.org/2000/svg">
<g clip-path="url(#clip0_1106_9818)">
<path d="M70.6249 33.375L70.2499 33.125C70.3749 32.5 70.4999 31.875 70.4999 31.25C70.4999 30.625 70.3749 30 70.2499 29.375L70.6249 29.125L71.4999 28.375C71.9999 28 71.9999 27.375 71.7499 26.75L70.6249 25C70.3749 24.5 69.7499 24.25 69.1249 24.5L67.9999 24.875L67.7499 25C66.8749 24.125 65.7499 23.5 64.6249 23.125V22.75L64.3749 21.625C64.2499 21 63.7499 20.625 63.1249 20.625H60.8749C60.2499 20.625 59.7499 21 59.6249 21.625L59.3749 22.75V23.125C58.1249 23.5 57.1249 24.125 56.2499 25L55.8749 24.75L54.7499 24.375C54.1249 24.125 53.6249 24.375 53.2499 24.875L52.1249 26.75C51.8749 27.25 51.8749 27.875 52.3749 28.375L53.2499 29.125L53.6249 29.375C53.4999 30 53.3749 30.625 53.3749 31.25C53.3749 31.875 53.4999 32.5 53.6249 33.125L53.2499 33.375L52.4999 34.125C51.9999 34.5 51.9999 35.125 52.2499 35.75L53.3749 37.625C53.6249 38.125 54.2499 38.375 54.8749 38.125L55.9999 37.75L56.2499 37.5C57.1249 38.375 58.2499 39 59.3749 39.375V39.75L59.6249 40.875C59.7499 41.5 60.2499 41.875 60.8749 41.875H63.1249C63.7499 41.875 64.2499 41.5 64.3749 40.875L64.6249 39.75V39.375C65.8749 39 66.8749 38.375 67.7499 37.5L68.1249 37.75L69.2499 38.125C69.8749 38.375 70.3749 38.125 70.7499 37.625L71.8749 35.75C72.1249 35.25 72.1249 34.625 71.6249 34.125L70.6249 33.375ZM61.9999 36.375C59.2499 36.375 56.8749 34.125 56.8749 31.25C56.8749 28.375 59.1249 26.125 61.9999 26.125C64.8749 26.125 67.1249 28.375 67.1249 31.25C67.1249 34.125 64.7499 36.375 61.9999 36.375Z" fill="#9CCC65" stroke="#37474F" stroke-miterlimit="10" stroke-linecap="round" stroke-linejoin="round"/>
<path d="M78.1249 54.625L77.7499 54.375C77.8749 53.75 77.9999 53.125 77.9999 52.5C77.9999 51.875 77.8749 51.25 77.7499 50.625L78.1249 50.375L78.9999 49.625C79.4999 49.25 79.4999 48.625 79.2499 48L78.1249 46.25C77.8749 45.75 77.2499 45.5 76.6249 45.75L75.4999 46.125L75.2499 46.25C74.3749 45.375 73.2499 44.75 72.1249 44.375V44L71.8749 42.875C71.7499 42.25 71.2499 41.875 70.6249 41.875H68.3749C67.7499 41.875 67.2499 42.25 67.1249 42.875L66.8749 44V44.375C65.6249 44.75 64.6249 45.375 63.7499 46.25L63.3749 46L62.2499 45.625C61.6249 45.375 61.1249 45.625 60.7499 46.125L59.6249 48C59.3749 48.5 59.3749 49.125 59.8749 49.625L60.7499 50.375L61.1249 50.625C60.9999 51.25 60.8749 51.875 60.8749 52.5C60.8749 53.125 60.9999 53.75 61.1249 54.375L60.7499 54.625L59.9999 55.375C59.4999 55.75 59.4999 56.375 59.7499 57L60.8749 58.875C61.1249 59.375 61.7499 59.625 62.3749 59.375L63.4999 59L63.7499 58.75C64.6249 59.625 65.7499 60.25 66.8749 60.625V61L67.1249 62.125C67.2499 62.75 67.7499 63.125 68.3749 63.125H70.6249C71.2499 63.125 71.7499 62.75 71.8749 62.125L72.1249 61V60.625C73.3749 60.25 74.3749 59.625 75.2499 58.75L75.6249 59L76.7499 59.375C77.3749 59.625 77.8749 59.375 78.2499 58.875L79.3749 57C79.6249 56.5 79.6249 55.875 79.1249 55.375L78.1249 54.625ZM69.4999 57.625C66.7499 57.625 64.3749 55.375 64.3749 52.5C64.3749 49.75 66.6249 47.375 69.4999 47.375C72.3749 47.375 74.6249 49.625 74.6249 52.5C74.6249 55.375 72.2499 57.625 69.4999 57.625Z" fill="#FF7043" stroke="#37474F" stroke-miterlimit="10" stroke-linecap="round" stroke-linejoin="round"/>
<path d="M10.625 43.75H4.375M1.875 43.75H0.625M22.5 3.75H28.75M31.25 3.75H32.5" stroke="#37474F" stroke-miterlimit="10" stroke-linecap="round" stroke-linejoin="round"/>
<path d="M42.5 28.125H42.125C40.75 22 35.25 17.5 28.75 17.5C22.25 17.5 16.75 22 15.375 28.125H15C13.25 28.125 11.875 29.5 11.875 31.25C11.875 33 13.25 34.375 15 34.375H15.375C16.75 40.5 22.25 45 28.75 45C35.25 45 40.75 40.5 42.125 34.375H42.5C44.25 34.375 45.625 33 45.625 31.25C45.625 29.5 44.25 28.125 42.5 28.125Z" stroke="#37474F" stroke-miterlimit="10" stroke-linecap="round" stroke-linejoin="round"/>
<path d="M16.25 30H15.625V21.875H19.375V26.875C19.375 28.625 18 30 16.25 30ZM38.125 21.75V26.875C38.125 28.625 39.5 30 41.25 30H41.875V20.125C40.875 21 39.625 21.625 38.125 21.75Z" fill="#FFB300" stroke="#37474F" stroke-miterlimit="10" stroke-linecap="round" stroke-linejoin="round"/>
<path d="M33.125 30.625C33.8154 30.625 34.375 30.0654 34.375 29.375C34.375 28.6846 33.8154 28.125 33.125 28.125C32.4346 28.125 31.875 28.6846 31.875 29.375C31.875 30.0654 32.4346 30.625 33.125 30.625Z" fill="#37474F"/>
<path d="M24.375 30.625C25.0654 30.625 25.625 30.0654 25.625 29.375C25.625 28.6846 25.0654 28.125 24.375 28.125C23.6846 28.125 23.125 28.6846 23.125 29.375C23.125 30.0654 23.6846 30.625 24.375 30.625Z" fill="#37474F"/>
<path d="M24.375 35.625C26.875 38.125 30.75 38.125 33.25 35.625" stroke="#37474F" stroke-miterlimit="10" stroke-linecap="round" stroke-linejoin="round"/>
<path d="M37.5 21.875H15.625C15.625 16.75 19.875 12.5 25 12.5H31.5C34.25 12.5 36.875 11.875 39.375 10.75L43.75 8.75V15.625C43.75 19.125 41 21.875 37.5 21.875Z" fill="#FFB300" stroke="#37474F" stroke-miterlimit="10" stroke-linecap="round" stroke-linejoin="round"/>
<path d="M31.875 72.625L28.75 76.25L25.625 72.625L27.5 53.75H30L31.875 72.625Z" fill="#90CAF9" stroke="#37474F" stroke-miterlimit="10" stroke-linecap="round" stroke-linejoin="round"/>
<path d="M16.25 76.25V63.75M41.25 76.25V63.75M23.75 46.25L11.875 51.375C8.5 52.75 6.25 56.125 6.25 59.875V76.25M33.75 46.25L45.625 51.375C49.125 52.875 51.25 56.25 51.25 60V66.25H63.75V76.25H47.5C44 76.25 41.25 73.5 41.25 70V66.25" stroke="#37474F" stroke-miterlimit="10" stroke-linecap="round" stroke-linejoin="round"/>
<path d="M21.125 53.75L26.25 50L23.75 46.25L20.625 47.625L21.125 53.75ZM36.375 53.75L31.25 50L33.75 46.25L36.875 47.625L36.375 53.75Z" stroke="#37474F" stroke-miterlimit="10" stroke-linecap="round" stroke-linejoin="round"/>
<path d="M30 53.75H27.5C26.75 53.75 26.25 53.25 26.25 52.5V51.25C26.25 50.5 26.75 50 27.5 50H30C30.75 50 31.25 50.5 31.25 51.25V52.5C31.25 53.25 30.75 53.75 30 53.75Z" fill="#90CAF9" stroke="#37474F" stroke-miterlimit="10" stroke-linecap="round" stroke-linejoin="round"/>
<path d="M66.25 75H74.25C75.625 75 76.875 74.125 77.25 72.75L78.625 67.875C78.875 67.125 78.25 66.25 77.375 66.25H66.125M28.75 45C27 45 25.25 44.625 23.75 44V46.25L26.5 50.5C26.75 50.25 27 50 27.5 50H30C30.375 50 30.75 50.125 31 50.5L33.75 46.25V44C32.25 44.625 30.5 45 28.75 45Z" stroke="#37474F" stroke-miterlimit="10" stroke-linecap="round" stroke-linejoin="round"/>
<path d="M23.125 76.25L20.625 47.625M36.875 47.625L34.375 76.25" stroke="#37474F" stroke-miterlimit="10" stroke-linecap="round" stroke-linejoin="round"/>
</g>
<defs>
<clipPath id="clip0_1106_9818">
<rect width="80" height="80" fill="white"/>
</clipPath>
</defs>
</svg>
