<svg width="24" height="25" viewBox="0 0 24 25" fill="none" xmlns="http://www.w3.org/2000/svg">
<path d="M11.9892 21.292C11.9892 21.292 5.94019 11.847 5.94019 6.56033C5.94019 3.24235 8.67741 0.499512 11.9892 0.499512C15.3011 0.499512 18.0394 3.24235 18.0394 6.56033C18.0394 11.7585 11.9892 21.292 11.9892 21.292ZM11.9892 8.63947C13.1153 8.63947 13.9761 7.68845 13.9761 6.56033C13.9761 5.5207 13.1153 4.56949 11.9892 4.56949C10.8632 4.56949 10.0024 5.5207 10.0024 6.56033C10.0024 7.68845 10.8632 8.63947 11.9892 8.63947Z" fill="white"/>
<path d="M23.9784 20.4525C23.9784 23.1068 17.9284 24.5006 11.9892 24.5006C6.05 24.5006 0 23.1068 0 20.4525C0 18.1962 3.86449 17.1568 6.22693 16.7808L6.5137 18.2848C2.73821 18.9484 1.50175 19.9879 1.50175 20.4525C1.50175 21.293 5.56427 22.9963 11.9892 22.9963C18.4142 22.9963 22.4767 21.293 22.4767 20.4525C22.4767 19.9879 21.439 18.9484 17.5531 18.2848L17.7515 16.7808C21.9023 17.5328 24 18.7492 24 20.4525" fill="#EB4724"/>
</svg>
