<svg width="24" height="24" viewBox="0 0 24 24" fill="none" xmlns="http://www.w3.org/2000/svg">
<path d="M22.1804 21.7171L16.1919 16.5444L22.1804 11.3716V21.738V21.7171ZM2.74176 22.3664L8.683 17.2566L9.09798 16.9007C10.7102 15.5185 13.2662 15.5185 14.8784 16.9007L15.2934 17.2566L21.1896 22.3664H2.71815H2.74176ZM1.77349 11.3087L7.76196 16.4815L1.77349 21.6547V11.2878V11.3087ZM5.96598 4.3562H17.9654V13.4449L15.2709 15.7907C13.3132 14.4295 10.6177 14.4295 8.683 15.7907L5.98847 13.4449V4.3562H5.96598ZM19.7614 5.08888V2.72262H15.57L11.9769 0L8.38386 2.72262H4.19249V5.13081L0 8.75381V24H24V8.75381L19.8075 5.08888H19.7614Z" fill="white"/>
<path d="M11.9771 10.4497C11.4474 10.4497 11.01 10.031 11.01 9.57027C11.01 9.0886 11.4704 8.69034 11.9771 8.69034C12.5069 8.69034 12.9443 9.06765 12.9443 9.57027C12.9443 10.0729 12.5299 10.4497 11.9771 10.4497ZM11.9771 13.0885C12.6681 13.0885 13.3362 12.921 13.9351 12.6488C14.1654 12.5022 14.2571 12.2298 14.142 12.0204C13.9808 11.811 13.6818 11.727 13.4515 11.8317C12.9908 12.0411 12.4838 12.1671 11.9771 12.1671C10.388 12.1671 9.07514 10.9734 9.09817 9.52835C9.09817 8.08332 10.4104 6.88958 11.9996 6.88958C13.5888 6.88958 14.9022 8.06237 14.9022 9.52835V10.4078C14.3725 10.4078 13.9351 10.031 13.9351 9.52835C13.9351 8.64876 13.2673 7.91557 12.346 7.74803C11.4247 7.58049 10.48 8.04127 10.1575 8.83708C9.8351 9.6329 10.1578 10.5544 10.9639 10.9942C11.77 11.434 12.8296 11.2876 13.4515 10.6384C13.82 11.0153 14.3489 11.2453 14.9247 11.2453C15.4544 11.2453 15.893 10.8685 15.893 10.3658V9.48642C15.893 7.51783 14.1416 5.94727 11.9996 5.94727C9.85768 5.94727 8.10741 7.53877 8.10741 9.48642C8.08437 11.476 9.81216 13.0675 11.9771 13.0885Z" fill="#EB4724"/>
</svg>
