<svg width="24" height="25" viewBox="0 0 24 25" fill="none" xmlns="http://www.w3.org/2000/svg">
<path d="M7.7495 9.68338C7.94635 9.48326 8.05494 9.194 8.05494 8.92716C8.05494 8.6381 7.94635 8.37159 7.7495 8.14923L4.33725 4.65803C4.1404 4.45791 3.85584 4.34694 3.5715 4.32471C3.28715 4.32471 3.02447 4.43567 2.80574 4.65803L2.43408 5.03587L7.37677 10.039L7.77086 9.66112L7.7495 9.68338Z" fill="white"/>
<path d="M12.7141 18.5999C12.5172 18.8223 12.167 18.8223 11.9483 18.5999L5.82337 12.3515C5.60464 12.1291 5.60464 11.7959 5.82337 11.5735L6.58912 10.8173L1.6678 5.81421C1.33971 6.14775 1.03375 6.45877 0.836895 6.63666C0.333826 7.10361 0.0497389 7.74859 0.00599384 8.4379C-0.0377513 9.5497 0.158589 10.6837 0.574168 11.7065C0.989746 12.6404 1.47133 13.5303 2.06189 14.353C4.09603 17.4438 6.65504 20.134 9.6297 22.3131C10.1328 22.6911 10.6571 23.0246 11.2039 23.3136C12.4288 23.9807 13.785 24.381 15.163 24.4922C16.1035 24.5589 17.0438 24.181 17.6781 23.4917L18.3563 22.8023L13.4136 17.7992L12.6703 18.5776L12.7141 18.5999Z" fill="white"/>
<path d="M19.5379 20.1123L16.1256 16.6211C15.71 16.1986 15.0326 16.1986 14.5952 16.6211L14.2449 17.0217L19.1662 22.0471L19.5379 21.6909C19.9534 21.2684 19.9534 20.5792 19.5379 20.1345V20.1123Z" fill="white"/>
<path d="M16.8262 13.3309H15.3823C15.2292 11.2185 13.742 9.46196 11.7297 8.99501V7.50537C14.5513 8.0168 16.6512 10.4403 16.8262 13.3532V13.3309Z" fill="#EB4724"/>
<path d="M20.2824 12.5974C20.2824 12.842 20.2818 13.0863 20.2599 13.3309H18.816C18.8379 13.0863 18.8598 12.842 18.8598 12.5974C18.8598 8.61721 15.6664 5.37075 11.7512 5.37075V3.90283C16.4757 3.90283 20.3037 7.79448 20.3037 12.5974H20.2824Z" fill="#EB4724"/>
<path d="M23.9999 12.597C23.9999 12.8416 24.0005 13.0858 23.9786 13.3304H22.5346C22.5346 13.0858 22.5571 12.8416 22.5571 12.597C22.5571 6.7267 17.8758 1.96814 12.1014 1.96814H11.7297V0.500488H12.08C18.6637 0.500488 23.9786 5.92621 23.9786 12.597H23.9999Z" fill="#EB4724"/>
</svg>
