<svg width="56" height="56" viewBox="0 0 56 56" fill="none" xmlns="http://www.w3.org/2000/svg">
<path d="M42 50.7332L41.125 49.2177C42.7765 48.2643 43.2214 45.1276 42.3457 40.6119C41.3985 35.7278 39.0367 29.8504 35.695 24.0625C32.3532 18.2746 28.4443 13.2904 24.688 10.0282C21.2151 7.01194 18.2763 5.82894 16.625 6.78237L15.75 5.26687C18.1225 3.89705 21.7042 5.11877 25.8356 8.70693C29.7346 12.0932 33.7743 17.2359 37.2106 23.1876C40.6468 29.1394 43.0806 35.2092 44.0637 40.2789C45.1054 45.6506 44.3725 49.3635 42 50.7332Z" fill="#233D7C"/>
<path d="M15.7499 50.7331C13.3774 49.3634 12.6445 45.6506 13.6862 40.2787C14.6693 35.209 17.1031 29.1391 20.5393 23.1875C23.9755 17.2358 28.0153 12.093 31.9143 8.70678C36.0457 5.11873 39.6274 3.89712 41.9999 5.26682L41.1249 6.78232C39.4736 5.8289 36.5346 7.01179 33.0619 10.028C29.3056 13.2904 25.3966 18.2746 22.0549 24.0625C18.7133 29.8504 16.3513 35.7278 15.4041 40.6119C14.5285 45.1276 14.9734 48.2641 16.6249 49.2176L15.7499 50.7331Z" fill="#233D7C"/>
<path d="M55.125 28H53.375C53.375 26.0932 50.881 24.1395 46.5326 22.6401C41.8293 21.0183 35.5584 20.125 28.875 20.125C22.1916 20.125 15.9207 21.0183 11.2174 22.6401C6.86897 24.1395 4.375 26.0932 4.375 28H2.625C2.625 25.2605 5.47389 22.7695 10.6469 20.9857C15.529 19.3022 22.0025 18.375 28.875 18.375C35.7475 18.375 42.221 19.3022 47.1031 20.9857C52.2761 22.7695 55.125 25.2605 55.125 28Z" fill="#233D7C"/>
<g clip-path="url(#clip0_1123_1491)">
<path d="M43.9676 28C43.9676 32.2738 42.3051 36.2919 39.2864 39.3137C36.267 42.3356 32.2532 44 27.9838 44C27.6726 44 27.3632 43.9913 27.0551 43.9731C23.1351 43.75 19.48 42.1156 16.6813 39.3137C13.6625 36.2919 12 32.2738 12 28C12 23.7262 13.6625 19.7081 16.6813 16.6863C19.48 13.8844 23.1351 12.25 27.0551 12.0269C27.3632 12.0088 27.6726 12 27.9838 12C30.2076 12 32.3594 12.4488 34.3808 13.3331C34.4345 13.3569 34.4839 13.39 34.5251 13.4319L42.5639 21.5119C42.6052 21.5538 42.6389 21.6025 42.6621 21.6569C43.5282 23.6625 43.9676 25.7969 43.9676 28Z" fill="url(#paint0_linear_1123_1491)"/>
<path d="M43.9677 28C43.9677 32.2738 42.3052 36.2919 39.2865 39.3137C36.2671 42.3356 32.2533 44 27.9839 44C27.6727 44 27.3633 43.9913 27.0552 43.9731C35.459 43.4919 42.1252 36.5238 42.1252 28C42.1252 19.4762 35.459 12.5081 27.0552 12.0269C27.3633 12.0088 27.6727 12 27.9839 12C30.2077 12 32.3596 12.4488 34.3809 13.3331C34.4346 13.3569 34.484 13.39 34.5252 13.4319L42.5641 21.5119C42.6053 21.5538 42.6391 21.6025 42.6622 21.6569C43.5284 23.6625 43.9677 25.7969 43.9677 28Z" fill="url(#paint1_linear_1123_1491)"/>
<path d="M40.4775 28C40.4775 34.8963 34.8731 40.5069 27.9837 40.5069C27.9112 40.5069 27.8387 40.5063 27.7668 40.5044C20.9768 40.3888 15.4893 34.8238 15.4893 28C15.4893 21.1763 20.9768 15.6113 27.7668 15.4957C27.8387 15.4938 27.9112 15.4932 27.9837 15.4932C29.3012 15.4932 30.5993 15.6975 31.8412 16.1007C31.9118 16.1238 31.9762 16.1632 32.0287 16.2163L34.3262 18.5263L35.4893 19.6957L39.7731 24.0032C39.8256 24.0563 39.8649 24.1207 39.8874 24.1913C40.2794 25.4188 40.4775 26.7 40.4775 28Z" fill="white"/>
<path d="M34.3262 18.5263C32.5231 16.935 30.2625 15.8507 27.7668 15.4957C27.8387 15.4938 27.9112 15.4932 27.9837 15.4932C29.3012 15.4932 30.5993 15.6975 31.8412 16.1007C31.9118 16.1238 31.9762 16.1632 32.0287 16.2163L34.3262 18.5263Z" fill="url(#paint2_linear_1123_1491)"/>
<path d="M40.4775 28.0001C40.4775 34.8963 34.8731 40.5069 27.9837 40.5069C27.9112 40.5069 27.8387 40.5063 27.7668 40.5044C33.8925 39.6332 38.6025 34.3669 38.6025 28.0001C38.6025 24.8207 37.4282 21.9157 35.4894 19.6957L39.7732 24.0032C39.8257 24.0563 39.865 24.1207 39.8875 24.1913C40.2794 25.4188 40.4775 26.7001 40.4775 28.0001Z" fill="url(#paint3_linear_1123_1491)"/>
<path d="M36.6338 28.0001C36.6338 32.7744 32.7532 36.6588 27.9837 36.6588C27.6731 36.6588 27.3662 36.6426 27.0637 36.6101C22.7244 36.1488 19.3337 32.4632 19.3337 28.0001C19.3337 23.5369 22.7244 19.8513 27.0637 19.3901C27.3662 19.3576 27.6731 19.3413 27.9837 19.3413C29.1212 19.3413 30.2275 19.5588 31.2706 19.9888C31.3287 20.0126 31.3806 20.0469 31.425 20.0913L35.8981 24.5876C35.9425 24.6319 35.9769 24.6844 36.0006 24.7419C36.4207 25.7769 36.6338 26.8732 36.6338 28.0001Z" fill="url(#paint4_linear_1123_1491)"/>
<path d="M36.6338 28.0001C36.6338 32.7744 32.7532 36.6588 27.9837 36.6588C27.6731 36.6588 27.3662 36.6426 27.0637 36.6101C31.3981 36.1344 34.7707 32.4607 34.7707 28.0001C34.7707 23.5394 31.3982 19.8657 27.0637 19.3901C27.3662 19.3576 27.6731 19.3413 27.9837 19.3413C29.1212 19.3413 30.2275 19.5588 31.2706 19.9888C31.3287 20.0126 31.3806 20.0469 31.425 20.0913L35.8981 24.5876C35.9425 24.6319 35.9768 24.6844 36.0006 24.7419C36.4207 25.7769 36.6338 26.8732 36.6338 28.0001Z" fill="url(#paint5_linear_1123_1491)"/>
<path d="M32.7539 28C32.7539 30.6325 30.6139 32.7743 27.9839 32.7743C27.5826 32.7743 27.1926 32.7243 26.8201 32.63C24.7501 32.1093 23.2139 30.2306 23.2139 28C23.2139 25.7693 24.7501 23.8906 26.8201 23.37C27.1926 23.2756 27.5826 23.2256 27.9839 23.2256C29.0701 23.2256 30.0932 23.5812 30.9426 24.255C30.9614 24.27 30.9789 24.2856 30.9951 24.3031L31.887 25.2631C31.9032 25.2806 31.9176 25.2993 31.9314 25.3187C32.4694 26.1112 32.7539 27.0381 32.7539 28Z" fill="white"/>
<path d="M32.7538 28C32.7538 30.6325 30.6138 32.7743 27.9838 32.7743C27.5826 32.7743 27.1926 32.7243 26.8201 32.63C29.0694 32.2875 30.7926 30.345 30.7926 28C30.7926 25.655 29.0694 23.7125 26.8201 23.37C27.1926 23.2756 27.5826 23.2256 27.9838 23.2256C29.0701 23.2256 30.0932 23.5812 30.9426 24.255C30.9613 24.27 30.9788 24.2856 30.9951 24.3031L31.8869 25.2631C31.9032 25.2806 31.9176 25.2993 31.9313 25.3187C32.4694 26.1112 32.7538 27.0381 32.7538 28Z" fill="url(#paint6_linear_1123_1491)"/>
<path d="M43.9413 20.1931C43.8407 20.3756 41.4276 24.6719 37.9013 25.45C37.5375 25.53 37.1763 25.57 36.8169 25.57C35.7 25.57 34.6057 25.1831 33.5519 24.4131C33.4388 24.33 33.3688 24.2013 33.3607 24.0613C33.3525 23.9219 33.4075 23.7856 33.5107 23.69L33.7769 23.4438L38.6525 18.9338C38.7932 18.8031 39 18.7719 39.1732 18.855C41.0582 19.7594 43.455 19.5031 43.4788 19.5C43.6538 19.4806 43.8238 19.56 43.9213 19.7056C44.0182 19.8513 44.0263 20.0394 43.9413 20.1931Z" fill="#FFC937"/>
<path d="M37.2984 17.1095C36.2328 15.1992 36.5101 12.5521 36.5129 12.526C36.5325 12.3517 36.4531 12.181 36.3071 12.0838C36.1611 11.9865 35.9731 11.9787 35.8198 12.0638C35.7736 12.0895 34.6725 12.7044 33.4738 13.7561C31.8355 15.1933 30.8509 16.6921 30.5474 18.2106C30.2373 19.7621 30.6573 21.2774 31.7958 22.7145C31.8807 22.8217 32.0081 22.8865 32.1448 22.8918C32.151 22.8921 32.1571 22.8922 32.1633 22.8922C32.2933 22.8922 32.4178 22.8382 32.5066 22.7425L37.2326 17.6569C37.3708 17.5081 37.3974 17.287 37.2984 17.1095Z" fill="#FFC937"/>
<path d="M43.9413 20.1931C43.8407 20.3756 41.4276 24.6718 37.9013 25.4499C37.5375 25.5299 37.1763 25.5699 36.8169 25.5699C35.7 25.5699 34.6057 25.1831 33.5519 24.4131C33.4388 24.3299 33.3688 24.2012 33.3607 24.0612C33.3525 23.9218 33.4075 23.7856 33.5107 23.6899L33.7769 23.4437C40.7569 24.7974 43.9213 19.7056 43.9213 19.7056C44.0182 19.8512 44.0263 20.0393 43.9413 20.1931Z" fill="#FFC46E"/>
<path d="M41.0684 17.5512C41.0084 17.6143 35.0359 23.9337 28.2495 28.6093C28.1689 28.6643 28.0764 28.6918 27.9839 28.6918C27.8633 28.6918 27.7433 28.6456 27.6527 28.555C27.4927 28.395 27.4695 28.1437 27.5977 27.9575C32.2677 21.1643 38.5809 15.1856 38.644 15.1256C38.7559 15.02 38.9127 14.9762 39.0634 15.0087C39.214 15.0406 39.339 15.145 39.3984 15.2868C39.4009 15.2931 39.5884 15.7256 39.9921 16.1518C40.2234 16.3962 40.5265 16.6393 40.9065 16.7975C41.049 16.8562 41.1527 16.9818 41.1852 17.1318C41.2171 17.2825 41.1734 17.4393 41.0684 17.5512Z" fill="#212121"/>
<path d="M41.0683 17.5512C41.0083 17.6144 35.0358 23.9337 28.2495 28.6094C28.1688 28.6644 28.0763 28.6919 27.9838 28.6919C27.8632 28.6919 27.7432 28.6456 27.6526 28.555C37.6683 19.26 39.992 16.1519 39.992 16.1519C40.2233 16.3962 40.5264 16.6394 40.9064 16.7975C41.0489 16.8562 41.1527 16.9819 41.1852 17.1319C41.217 17.2825 41.1733 17.4394 41.0683 17.5512Z" fill="#212121"/>
</g>
<path d="M28.875 37.625C22.0025 37.625 15.529 36.6978 10.6469 35.0143C5.47389 33.2305 2.625 30.7395 2.625 28C2.625 27.5168 3.01678 27.125 3.5 27.125C3.98322 27.125 4.375 27.5168 4.375 28C4.375 29.9068 6.86897 31.8605 11.2174 33.3599C15.9207 34.9817 22.1916 35.875 28.875 35.875C35.5584 35.875 41.8293 34.9817 46.5326 33.3599C50.881 31.8605 53.375 29.9068 53.375 28C53.375 27.5168 53.7668 27.125 54.25 27.125C54.7332 27.125 55.125 27.5168 55.125 28C55.125 30.7395 52.2761 33.2305 47.1031 35.0143C42.221 36.6978 35.7475 37.625 28.875 37.625Z" fill="#EB4724"/>
<path d="M39.85 51.2805C37.6726 51.2805 34.9413 49.9221 31.9143 47.2932C28.0153 43.907 23.9755 38.7643 20.5393 32.8125C17.1031 26.8608 14.6693 20.791 13.6862 15.7212C12.6445 10.3494 13.3774 6.63656 15.7499 5.26685C16.1683 5.02535 16.7035 5.16863 16.9451 5.5871C17.1867 6.00557 17.0433 6.54074 16.6249 6.78235C14.9734 7.73577 14.5285 10.8724 15.4041 15.3881C16.3513 20.2722 18.7132 26.1496 22.0549 31.9375C25.3966 37.7254 29.3056 42.7096 33.0619 45.9719C36.5346 48.9881 39.4735 50.171 41.1249 49.2176C41.5434 48.9761 42.0785 49.1193 42.3201 49.5378C42.5617 49.9563 42.4184 50.4914 41.9999 50.7331C41.3656 51.0993 40.6445 51.2805 39.85 51.2805Z" fill="#EB4724"/>
<path d="M17.9 51.2805C17.1053 51.2805 16.3845 51.0995 15.7501 50.7333C15.3316 50.4917 15.1883 49.9565 15.4299 49.5381C15.6715 49.1195 16.2068 48.9761 16.6251 49.2178C18.2765 50.1712 21.2154 48.9882 24.6881 45.9721C28.4444 42.7099 32.3533 37.7257 35.6951 31.9378C39.0367 26.1498 41.3987 20.2725 42.3458 15.3883C43.2215 10.8727 42.7766 7.73613 41.1251 6.7826C40.7066 6.54099 40.5633 6.00581 40.8049 5.58735C41.0465 5.16877 41.5818 5.02538 42.0001 5.2671C44.3726 6.6368 45.1055 10.3496 44.0638 15.7215C43.0807 20.7912 40.6469 26.8611 37.2107 32.8128C33.7745 38.7644 29.7347 43.9072 25.8357 47.2935C22.8091 49.9218 20.0773 51.2804 17.9 51.2805Z" fill="#EB4724"/>
<path d="M42 8.75C43.4497 8.75 44.625 7.57475 44.625 6.125C44.625 4.67525 43.4497 3.5 42 3.5C40.5503 3.5 39.375 4.67525 39.375 6.125C39.375 7.57475 40.5503 8.75 42 8.75Z" fill="#FFC937"/>
<path d="M42 52.5C43.4497 52.5 44.625 51.3247 44.625 49.875C44.625 48.4253 43.4497 47.25 42 47.25C40.5503 47.25 39.375 48.4253 39.375 49.875C39.375 51.3247 40.5503 52.5 42 52.5Z" fill="#FFC937"/>
<path d="M3.5 30.625C4.94975 30.625 6.125 29.4497 6.125 28C6.125 26.5503 4.94975 25.375 3.5 25.375C2.05025 25.375 0.875 26.5503 0.875 28C0.875 29.4497 2.05025 30.625 3.5 30.625Z" fill="#FFC937"/>
<path d="M3.5 28C3.98325 28 4.375 27.6082 4.375 27.125C4.375 26.6418 3.98325 26.25 3.5 26.25C3.01675 26.25 2.625 26.6418 2.625 27.125C2.625 27.6082 3.01675 28 3.5 28Z" fill="#EB4724"/>
<path d="M42 6.125C42.4832 6.125 42.875 5.73325 42.875 5.25C42.875 4.76675 42.4832 4.375 42 4.375C41.5168 4.375 41.125 4.76675 41.125 5.25C41.125 5.73325 41.5168 6.125 42 6.125Z" fill="#EB4724"/>
<path d="M42 49.875C42.4832 49.875 42.875 49.4832 42.875 49C42.875 48.5168 42.4832 48.125 42 48.125C41.5168 48.125 41.125 48.5168 41.125 49C41.125 49.4832 41.5168 49.875 42 49.875Z" fill="#EB4724"/>
<defs>
<linearGradient id="paint0_linear_1123_1491" x1="13.3147" y1="28.9623" x2="45.3577" y2="28.9623" gradientUnits="userSpaceOnUse">
<stop stop-color="#8DBF44"/>
<stop offset="1" stop-color="#27AAE2"/>
</linearGradient>
<linearGradient id="paint1_linear_1123_1491" x1="27.7507" y1="28.9623" x2="44.7031" y2="28.9623" gradientUnits="userSpaceOnUse">
<stop stop-color="#8DBF44"/>
<stop offset="1" stop-color="#27AAE2"/>
</linearGradient>
<linearGradient id="paint2_linear_1123_1491" x1="28.0366" y1="17.1009" x2="34.6114" y2="17.1009" gradientUnits="userSpaceOnUse">
<stop stop-color="#8DBF44"/>
<stop offset="1" stop-color="#27AAE2"/>
</linearGradient>
<linearGradient id="paint3_linear_1123_1491" x1="28.2896" y1="30.7272" x2="41.0302" y2="30.7272" gradientUnits="userSpaceOnUse">
<stop stop-color="#8DBF44"/>
<stop offset="1" stop-color="#27AAE2"/>
</linearGradient>
<linearGradient id="paint4_linear_1123_1491" x1="20.0452" y1="28.5209" x2="37.3861" y2="28.5209" gradientUnits="userSpaceOnUse">
<stop stop-color="#8DBF44"/>
<stop offset="1" stop-color="#27AAE2"/>
</linearGradient>
<linearGradient id="paint5_linear_1123_1491" x1="27.4573" y1="28.5209" x2="37.0499" y2="28.5209" gradientUnits="userSpaceOnUse">
<stop stop-color="#8DBF44"/>
<stop offset="1" stop-color="#27AAE2"/>
</linearGradient>
<linearGradient id="paint6_linear_1123_1491" x1="27.0641" y1="28.2871" x2="33.0118" y2="28.2871" gradientUnits="userSpaceOnUse">
<stop stop-color="#8DBF44"/>
<stop offset="1" stop-color="#27AAE2"/>
</linearGradient>
<clipPath id="clip0_1123_1491">
<rect width="32" height="32" fill="white" transform="translate(12 12)"/>
</clipPath>
</defs>
</svg>
