<svg width="56" height="56" viewBox="0 0 56 56" fill="none" xmlns="http://www.w3.org/2000/svg">
<path d="M42 50.7332L41.125 49.2177C42.7765 48.2643 43.2214 45.1276 42.3457 40.6119C41.3985 35.7278 39.0367 29.8504 35.695 24.0625C32.3532 18.2746 28.4443 13.2904 24.688 10.0282C21.2151 7.01194 18.2763 5.82894 16.625 6.78237L15.75 5.26687C18.1225 3.89705 21.7042 5.11877 25.8356 8.70693C29.7346 12.0932 33.7743 17.2359 37.2106 23.1876C40.6468 29.1394 43.0806 35.2092 44.0637 40.2789C45.1054 45.6506 44.3725 49.3635 42 50.7332Z" fill="#233D7C"/>
<path d="M15.7499 50.7331C13.3774 49.3634 12.6445 45.6506 13.6862 40.2787C14.6693 35.209 17.1031 29.1391 20.5393 23.1875C23.9755 17.2358 28.0153 12.093 31.9143 8.70678C36.0457 5.11873 39.6274 3.89712 41.9999 5.26682L41.1249 6.78232C39.4736 5.8289 36.5346 7.01179 33.0619 10.028C29.3056 13.2904 25.3966 18.2746 22.0549 24.0625C18.7133 29.8504 16.3513 35.7278 15.4041 40.6119C14.5285 45.1276 14.9734 48.2641 16.6249 49.2176L15.7499 50.7331Z" fill="#233D7C"/>
<path d="M55.125 28H53.375C53.375 26.0932 50.881 24.1395 46.5326 22.6401C41.8293 21.0183 35.5584 20.125 28.875 20.125C22.1916 20.125 15.9207 21.0183 11.2174 22.6401C6.86897 24.1395 4.375 26.0932 4.375 28H2.625C2.625 25.2605 5.47389 22.7695 10.6469 20.9857C15.529 19.3022 22.0025 18.375 28.875 18.375C35.7475 18.375 42.221 19.3022 47.1031 20.9857C52.2761 22.7695 55.125 25.2605 55.125 28Z" fill="#233D7C"/>
<path d="M28.875 43.75C37.5735 43.75 44.625 36.6985 44.625 28C44.625 19.3015 37.5735 12.25 28.875 12.25C20.1765 12.25 13.125 19.3015 13.125 28C13.125 36.6985 20.1765 43.75 28.875 43.75Z" fill="#FFC937"/>
<path d="M40.7325 26.2075L40.3767 25.8517C37.7183 23.1934 34.1129 21.7 30.3534 21.7H27.3964C23.6369 21.7 20.0315 23.1934 17.3731 25.8517L17.0173 26.2075C16.542 26.683 16.2749 27.3276 16.2749 28C16.2749 28.6723 16.542 29.317 17.0173 29.7924L17.3731 30.1482C20.0315 32.8065 23.6369 34.3 27.3964 34.3H30.3534C34.1129 34.3 37.7183 32.8065 40.3767 30.1482L40.7325 29.7924C41.2078 29.3169 41.4749 28.6723 41.4749 28C41.4749 27.3276 41.2078 26.6829 40.7325 26.2075Z" fill="#D3D8E5"/>
<path d="M28.875 34.3C32.3543 34.3 35.175 31.4793 35.175 28C35.175 24.5206 32.3543 21.7 28.875 21.7C25.3956 21.7 22.575 24.5206 22.575 28C22.575 31.4793 25.3956 34.3 28.875 34.3Z" fill="#233D7C"/>
<path d="M28.8749 31.15C30.6146 31.15 32.0249 29.7397 32.0249 28C32.0249 26.2603 30.6146 24.85 28.8749 24.85C27.1352 24.85 25.7249 26.2603 25.7249 28C25.7249 29.7397 27.1352 31.15 28.8749 31.15Z" fill="#212121"/>
<path d="M26.7749 26.95C27.3548 26.95 27.8249 26.4799 27.8249 25.9C27.8249 25.3201 27.3548 24.85 26.7749 24.85C26.195 24.85 25.7249 25.3201 25.7249 25.9C25.7249 26.4799 26.195 26.95 26.7749 26.95Z" fill="#D3D8E5"/>
<path d="M28.875 37.625C22.0025 37.625 15.529 36.6978 10.6469 35.0143C5.47389 33.2305 2.625 30.7395 2.625 28C2.625 27.5168 3.01678 27.125 3.5 27.125C3.98322 27.125 4.375 27.5168 4.375 28C4.375 29.9068 6.86897 31.8605 11.2174 33.3599C15.9207 34.9817 22.1916 35.875 28.875 35.875C35.5584 35.875 41.8293 34.9817 46.5326 33.3599C50.881 31.8605 53.375 29.9068 53.375 28C53.375 27.5168 53.7668 27.125 54.25 27.125C54.7332 27.125 55.125 27.5168 55.125 28C55.125 30.7395 52.2761 33.2305 47.1031 35.0143C42.221 36.6978 35.7475 37.625 28.875 37.625Z" fill="#EB4724"/>
<path d="M39.85 51.2805C37.6726 51.2805 34.9413 49.9221 31.9143 47.2932C28.0153 43.907 23.9755 38.7643 20.5393 32.8125C17.1031 26.8608 14.6693 20.791 13.6862 15.7212C12.6445 10.3494 13.3774 6.63656 15.7499 5.26685C16.1683 5.02535 16.7035 5.16863 16.9451 5.5871C17.1867 6.00557 17.0433 6.54074 16.6249 6.78235C14.9734 7.73577 14.5285 10.8724 15.4041 15.3881C16.3513 20.2722 18.7132 26.1496 22.0549 31.9375C25.3966 37.7254 29.3056 42.7096 33.0619 45.9719C36.5346 48.9881 39.4735 50.171 41.1249 49.2176C41.5434 48.9761 42.0785 49.1193 42.3201 49.5378C42.5617 49.9563 42.4184 50.4914 41.9999 50.7331C41.3656 51.0993 40.6445 51.2805 39.85 51.2805Z" fill="#EB4724"/>
<path d="M17.9 51.2805C17.1053 51.2805 16.3845 51.0995 15.7501 50.7333C15.3316 50.4917 15.1883 49.9565 15.4299 49.5381C15.6715 49.1195 16.2068 48.9761 16.6251 49.2178C18.2765 50.1712 21.2154 48.9882 24.6881 45.9721C28.4444 42.7099 32.3533 37.7257 35.6951 31.9378C39.0367 26.1498 41.3987 20.2725 42.3458 15.3883C43.2215 10.8727 42.7766 7.73613 41.1251 6.7826C40.7066 6.54099 40.5633 6.00581 40.8049 5.58735C41.0465 5.16877 41.5818 5.02538 42.0001 5.2671C44.3726 6.6368 45.1055 10.3496 44.0638 15.7215C43.0807 20.7912 40.6469 26.8611 37.2107 32.8128C33.7745 38.7644 29.7347 43.9072 25.8357 47.2935C22.8091 49.9218 20.0773 51.2804 17.9 51.2805Z" fill="#EB4724"/>
<path d="M42 8.75C43.4497 8.75 44.625 7.57475 44.625 6.125C44.625 4.67525 43.4497 3.5 42 3.5C40.5503 3.5 39.375 4.67525 39.375 6.125C39.375 7.57475 40.5503 8.75 42 8.75Z" fill="#FFC937"/>
<path d="M42 52.5C43.4497 52.5 44.625 51.3247 44.625 49.875C44.625 48.4253 43.4497 47.25 42 47.25C40.5503 47.25 39.375 48.4253 39.375 49.875C39.375 51.3247 40.5503 52.5 42 52.5Z" fill="#FFC937"/>
<path d="M3.5 30.625C4.94975 30.625 6.125 29.4497 6.125 28C6.125 26.5503 4.94975 25.375 3.5 25.375C2.05025 25.375 0.875 26.5503 0.875 28C0.875 29.4497 2.05025 30.625 3.5 30.625Z" fill="#FFC937"/>
<path d="M3.5 28C3.98325 28 4.375 27.6082 4.375 27.125C4.375 26.6418 3.98325 26.25 3.5 26.25C3.01675 26.25 2.625 26.6418 2.625 27.125C2.625 27.6082 3.01675 28 3.5 28Z" fill="#EB4724"/>
<path d="M42 6.125C42.4832 6.125 42.875 5.73325 42.875 5.25C42.875 4.76675 42.4832 4.375 42 4.375C41.5168 4.375 41.125 4.76675 41.125 5.25C41.125 5.73325 41.5168 6.125 42 6.125Z" fill="#EB4724"/>
<path d="M42 49.875C42.4832 49.875 42.875 49.4832 42.875 49C42.875 48.5168 42.4832 48.125 42 48.125C41.5168 48.125 41.125 48.5168 41.125 49C41.125 49.4832 41.5168 49.875 42 49.875Z" fill="#EB4724"/>
</svg>
